{"glyphs":{"0":{"ha":919,"x_min":0,"x_max":0,"o":"m 460 -8 b 849 486 685 -8 849 176 b 460 981 849 796 685 981 b 72 486 235 981 72 796 b 460 -8 72 176 235 -8 z m 460 83 b 174 486 290 83 174 226 b 460 889 174 746 290 889 b 746 486 629 889 746 746 b 460 83 746 226 629 83 z "},"1":{"ha":501,"x_min":0,"x_max":0,"o":"m 13 972 l 13 883 l 242 883 l 242 0 l 342 0 l 342 972 z "},"2":{"ha":789,"x_min":0,"x_max":0,"o":"m 201 89 l 532 414 b 692 718 663 542 692 625 b 369 981 692 881 567 981 b 25 842 221 981 100 931 l 96 781 b 361 889 160 854 247 889 b 589 707 510 889 589 819 b 458 467 589 640 568 575 l 54 71 l 54 0 l 736 0 l 736 89 z "},"3":{"ha":783,"x_min":0,"x_max":0,"o":"m 403 556 l 678 901 l 678 972 l 53 972 l 53 883 l 550 883 l 281 546 l 281 472 l 350 472 b 613 279 531 472 613 396 b 363 83 613 158 524 83 b 61 196 236 83 124 131 l 13 117 b 363 -8 88 40 222 -8 b 715 279 597 -8 715 117 b 403 556 715 435 611 544 z "},"4":{"ha":918,"x_min":0,"x_max":0,"o":"m 899 344 l 704 344 l 704 569 l 607 569 l 607 344 l 185 344 l 682 972 l 571 972 l 56 328 l 56 256 l 604 256 l 604 0 l 704 0 l 704 256 l 899 256 z "},"5":{"ha":786,"x_min":0,"x_max":0,"o":"m 328 574 l 203 574 l 236 883 l 681 883 l 681 972 l 149 972 l 99 485 l 306 485 b 631 282 553 485 631 407 b 378 83 631 164 543 83 b 79 196 253 83 142 131 l 31 117 b 379 -8 106 40 239 -8 b 732 286 617 -8 732 121 b 328 574 732 458 621 574 z "},"6":{"ha":846,"x_min":0,"x_max":0,"o":"m 475 582 b 178 415 340 582 226 522 b 174 494 175 444 174 472 b 518 893 174 758 308 893 b 707 847 590 893 657 881 l 747 928 b 517 981 686 965 604 981 b 72 478 253 981 72 808 b 471 -8 72 171 213 -8 b 803 290 660 -8 803 108 b 475 582 803 468 668 582 z m 467 76 b 210 285 299 76 210 178 b 460 497 210 406 311 497 b 704 288 610 497 704 415 b 467 76 704 158 607 76 z "},"7":{"ha":818,"x_min":0,"x_max":0,"o":"m 44 972 l 44 701 l 143 701 l 143 883 l 643 883 l 243 0 l 351 0 l 758 901 l 758 972 z "},"8":{"ha":886,"x_min":0,"x_max":0,"o":"m 629 510 b 785 724 729 549 785 622 b 442 981 785 882 647 981 b 101 724 236 981 101 882 b 254 510 101 622 156 549 b 67 271 133 469 67 388 b 442 -8 67 99 208 -8 b 819 271 674 -8 819 99 b 629 510 819 386 751 469 z m 201 721 b 442 896 201 829 294 896 b 683 719 588 896 683 829 b 442 546 683 614 593 546 b 201 721 290 546 201 614 z m 442 76 b 168 272 269 76 168 151 b 442 467 168 392 269 467 b 717 272 614 467 717 392 b 442 76 717 151 614 76 z "},"9":{"ha":846,"x_min":0,"x_max":0,"o":"m 375 981 b 43 682 186 981 43 864 b 371 390 43 504 178 390 b 668 557 506 390 619 450 b 672 478 671 528 672 500 b 328 79 672 214 538 79 b 139 125 256 79 189 92 l 99 44 b 329 -8 160 7 242 -8 b 774 494 593 -8 774 164 b 375 981 774 801 633 981 z m 386 475 b 142 685 236 475 142 557 b 379 896 142 814 239 896 b 636 688 547 896 636 794 b 386 475 636 567 535 475 z "},"A":{"ha":996,"x_min":0,"x_max":0,"o":"m 885 0 l 993 0 l 549 972 l 447 972 l 3 0 l 110 0 l 226 260 l 768 260 z m 264 343 l 497 865 l 731 343 z "},"Á":{"ha":996,"x_min":0,"x_max":0,"o":"m 731 1224 l 599 1224 l 408 1051 l 506 1051 z m 885 0 l 993 0 l 549 972 l 447 972 l 3 0 l 110 0 l 226 260 l 768 260 z m 264 343 l 497 865 l 731 343 z "},"Ă":{"ha":996,"x_min":0,"x_max":0,"o":"m 499 1044 b 710 1224 615 1044 706 1113 l 640 1224 b 499 1106 638 1150 576 1106 b 357 1224 421 1106 360 1150 l 288 1224 b 499 1044 292 1113 382 1044 z m 885 0 l 993 0 l 549 972 l 447 972 l 3 0 l 110 0 l 226 260 l 768 260 z m 264 343 l 497 865 l 731 343 z "},"Ắ":{"ha":996,"x_min":0,"x_max":0,"o":"m 701 1360 l 582 1360 l 414 1208 l 501 1208 z m 499 1044 b 710 1182 614 1044 699 1096 l 642 1182 b 499 1103 633 1132 576 1103 b 356 1182 421 1103 364 1132 l 288 1182 b 499 1044 299 1096 383 1044 z m 885 0 l 993 0 l 549 972 l 447 972 l 3 0 l 110 0 l 226 260 l 768 260 z m 264 343 l 497 865 l 731 343 z "},"Ặ":{"ha":996,"x_min":0,"x_max":0,"o":"m 499 1044 b 710 1224 615 1044 706 1113 l 640 1224 b 499 1106 638 1150 576 1106 b 357 1224 421 1106 360 1150 l 288 1224 b 499 1044 292 1113 382 1044 z m 993 0 l 549 972 l 447 972 l 3 0 l 110 0 l 226 260 l 768 260 l 885 0 z m 264 343 l 497 865 l 731 343 z m 499 -144 b 439 -204 465 -144 439 -169 b 499 -264 439 -239 465 -264 b 558 -204 532 -264 558 -239 b 499 -144 558 -169 532 -144 z "},"Ằ":{"ha":996,"x_min":0,"x_max":0,"o":"m 583 1208 l 417 1360 l 296 1360 l 497 1208 z m 499 1044 b 710 1182 614 1044 699 1096 l 642 1182 b 499 1103 633 1132 576 1103 b 356 1182 421 1103 364 1132 l 288 1182 b 499 1044 299 1096 383 1044 z m 885 0 l 993 0 l 549 972 l 447 972 l 3 0 l 110 0 l 226 260 l 768 260 z m 264 343 l 497 865 l 731 343 z "},"Ẳ":{"ha":996,"x_min":0,"x_max":0,"o":"m 489 1322 b 544 1276 521 1322 544 1304 b 486 1207 544 1250 524 1225 l 515 1172 b 597 1282 567 1194 597 1233 b 497 1372 597 1335 560 1372 b 408 1346 465 1372 433 1363 l 429 1306 b 489 1322 449 1317 468 1322 z m 499 1044 b 710 1182 614 1044 699 1096 l 642 1182 b 499 1103 633 1132 576 1103 b 356 1182 421 1103 364 1132 l 288 1182 b 499 1044 299 1096 383 1044 z m 885 0 l 993 0 l 549 972 l 447 972 l 3 0 l 110 0 l 226 260 l 768 260 z m 264 343 l 497 865 l 731 343 z "},"Ẵ":{"ha":996,"x_min":0,"x_max":0,"o":"m 410 1294 b 592 1219 465 1294 507 1219 b 714 1346 665 1219 713 1268 l 656 1346 b 588 1278 654 1304 631 1278 b 407 1353 532 1278 489 1353 b 283 1225 333 1353 285 1306 l 343 1225 b 410 1294 344 1269 368 1294 z m 499 1103 b 356 1182 421 1103 364 1132 l 288 1182 b 499 1044 299 1096 383 1044 b 710 1182 614 1044 699 1096 l 642 1182 b 499 1103 633 1132 576 1103 z m 885 0 l 993 0 l 549 972 l 447 972 l 3 0 l 110 0 l 226 260 l 768 260 z m 264 343 l 497 865 l 731 343 z "},"Ǎ":{"ha":996,"x_min":0,"x_max":0,"o":"m 549 1051 l 728 1224 l 636 1224 l 499 1110 l 361 1224 l 269 1224 l 449 1051 z m 885 0 l 993 0 l 549 972 l 447 972 l 3 0 l 110 0 l 226 260 l 768 260 z m 264 343 l 497 865 l 731 343 z "},"Â":{"ha":996,"x_min":0,"x_max":0,"o":"m 499 1167 l 636 1051 l 728 1051 l 549 1224 l 449 1224 l 269 1051 l 361 1051 z m 885 0 l 993 0 l 549 972 l 447 972 l 3 0 l 110 0 l 226 260 l 768 260 z m 264 343 l 497 865 l 731 343 z "},"Ấ":{"ha":996,"x_min":0,"x_max":0,"o":"m 913 1319 l 793 1319 l 625 1168 l 713 1168 z m 499 1133 l 633 1051 l 728 1051 l 547 1182 l 450 1182 l 269 1051 l 364 1051 z m 885 0 l 993 0 l 549 972 l 447 972 l 3 0 l 110 0 l 226 260 l 768 260 z m 264 343 l 497 865 l 731 343 z "},"Ậ":{"ha":996,"x_min":0,"x_max":0,"o":"m 499 1167 l 636 1051 l 728 1051 l 549 1224 l 449 1224 l 269 1051 l 361 1051 z m 993 0 l 549 972 l 447 972 l 3 0 l 110 0 l 226 260 l 768 260 l 885 0 z m 264 343 l 497 865 l 731 343 z m 499 -144 b 439 -204 465 -144 439 -169 b 499 -264 439 -239 465 -264 b 558 -204 532 -264 558 -239 b 499 -144 558 -169 532 -144 z "},"Ầ":{"ha":996,"x_min":0,"x_max":0,"o":"m 794 1168 l 628 1319 l 507 1319 l 708 1168 z m 499 1133 l 633 1051 l 728 1051 l 547 1182 l 450 1182 l 269 1051 l 364 1051 z m 885 0 l 993 0 l 549 972 l 447 972 l 3 0 l 110 0 l 226 260 l 768 260 z m 264 343 l 497 865 l 731 343 z "},"Ẩ":{"ha":996,"x_min":0,"x_max":0,"o":"m 656 1294 b 711 1249 688 1294 711 1276 b 653 1179 711 1222 690 1197 l 682 1144 b 764 1254 733 1167 764 1206 b 664 1344 764 1307 726 1344 b 575 1318 632 1344 600 1335 l 596 1278 b 656 1294 615 1289 635 1294 z m 499 1133 l 633 1051 l 728 1051 l 547 1182 l 450 1182 l 269 1051 l 364 1051 z m 885 0 l 993 0 l 549 972 l 447 972 l 3 0 l 110 0 l 226 260 l 768 260 z m 264 343 l 497 865 l 731 343 z "},"Ẫ":{"ha":996,"x_min":0,"x_max":0,"o":"m 410 1301 b 592 1226 465 1301 507 1226 b 714 1353 665 1226 713 1275 l 656 1353 b 588 1285 654 1311 631 1285 b 407 1360 532 1285 489 1360 b 283 1232 333 1360 285 1313 l 343 1232 b 410 1301 344 1276 368 1301 z m 499 1133 l 633 1051 l 728 1051 l 547 1182 l 450 1182 l 269 1051 l 364 1051 z m 885 0 l 993 0 l 549 972 l 447 972 l 3 0 l 110 0 l 226 260 l 768 260 z m 264 343 l 497 865 l 731 343 z "},"Ȁ":{"ha":996,"x_min":0,"x_max":0,"o":"m 429 1051 l 296 1224 l 186 1224 l 342 1051 z m 656 1051 l 521 1224 l 411 1224 l 568 1051 z m 885 0 l 993 0 l 549 972 l 447 972 l 3 0 l 110 0 l 226 260 l 768 260 z m 264 343 l 497 865 l 731 343 z "},"Ä":{"ha":996,"x_min":0,"x_max":0,"o":"m 375 1083 b 435 1143 407 1083 435 1108 b 375 1203 435 1176 407 1203 b 315 1143 342 1203 315 1176 b 375 1083 315 1108 342 1083 z m 622 1083 b 682 1143 656 1083 682 1108 b 622 1203 682 1176 656 1203 b 563 1143 590 1203 563 1176 b 622 1083 563 1108 590 1083 z m 885 0 l 993 0 l 549 972 l 447 972 l 3 0 l 110 0 l 226 260 l 768 260 z m 264 343 l 497 865 l 731 343 z "},"Ạ":{"ha":996,"x_min":0,"x_max":0,"o":"m 993 0 l 549 972 l 447 972 l 3 0 l 110 0 l 226 260 l 768 260 l 885 0 z m 264 343 l 497 865 l 731 343 z m 499 -144 b 439 -204 465 -144 439 -169 b 499 -264 439 -239 465 -264 b 558 -204 532 -264 558 -239 b 499 -144 558 -169 532 -144 z "},"À":{"ha":996,"x_min":0,"x_max":0,"o":"m 589 1051 l 399 1224 l 267 1224 l 492 1051 z m 885 0 l 993 0 l 549 972 l 447 972 l 3 0 l 110 0 l 226 260 l 768 260 z m 264 343 l 497 865 l 731 343 z "},"Ả":{"ha":996,"x_min":0,"x_max":0,"o":"m 488 1251 b 564 1183 532 1251 564 1222 b 482 1085 564 1142 538 1110 l 517 1042 b 628 1190 592 1076 628 1125 b 496 1310 628 1264 574 1310 b 381 1274 456 1310 411 1297 l 404 1225 b 488 1251 432 1243 458 1251 z m 885 0 l 993 0 l 549 972 l 447 972 l 3 0 l 110 0 l 226 260 l 768 260 z m 264 343 l 497 865 l 731 343 z "},"Ȃ":{"ha":996,"x_min":0,"x_max":0,"o":"m 499 1169 b 640 1051 576 1169 638 1124 l 710 1051 b 499 1229 706 1163 615 1229 b 288 1051 382 1229 292 1163 l 357 1051 b 499 1169 360 1124 421 1169 z m 885 0 l 993 0 l 549 972 l 447 972 l 3 0 l 110 0 l 226 260 l 768 260 z m 264 343 l 497 865 l 731 343 z "},"Ā":{"ha":996,"x_min":0,"x_max":0,"o":"m 713 1169 l 285 1169 l 285 1104 l 713 1104 z m 885 0 l 993 0 l 549 972 l 447 972 l 3 0 l 110 0 l 226 260 l 768 260 z m 264 343 l 497 865 l 731 343 z "},"Ą":{"ha":996,"x_min":0,"x_max":0,"o":"m 1000 -218 b 914 -244 978 -236 944 -244 b 824 -167 863 -244 824 -218 b 993 0 824 -115 861 -58 l 549 972 l 447 972 l 3 0 l 110 0 l 226 260 l 768 260 l 882 6 b 751 -174 782 -51 751 -117 b 904 -306 751 -254 811 -306 b 1022 -272 947 -306 989 -294 z m 264 343 l 497 865 l 731 343 z "},"Å":{"ha":996,"x_min":0,"x_max":0,"o":"m 497 1068 b 643 1210 581 1068 643 1132 b 497 1356 643 1289 581 1356 b 353 1210 415 1356 353 1289 b 497 1068 353 1132 414 1068 z m 497 1307 b 592 1210 551 1307 592 1264 b 497 1117 592 1157 553 1117 b 404 1210 442 1117 404 1157 b 497 1307 404 1265 443 1307 z m 885 0 l 993 0 l 549 972 l 447 972 l 3 0 l 110 0 l 226 260 l 768 260 z m 264 343 l 497 865 l 731 343 z "},"Ǻ":{"ha":996,"x_min":0,"x_max":0,"o":"m 497 1068 b 643 1210 581 1068 643 1132 b 615 1296 643 1242 633 1271 l 743 1403 l 688 1447 l 574 1335 b 497 1356 551 1347 525 1356 b 353 1210 415 1356 353 1289 b 497 1068 353 1132 414 1068 z m 497 1307 b 592 1210 551 1307 592 1264 b 497 1117 592 1157 553 1117 b 404 1210 442 1117 404 1157 b 497 1307 404 1265 443 1307 z m 885 0 l 993 0 l 549 972 l 447 972 l 3 0 l 110 0 l 226 260 l 768 260 z m 264 343 l 497 865 l 731 343 z "},"Ã":{"ha":996,"x_min":0,"x_max":0,"o":"m 411 1154 b 593 1060 467 1154 507 1060 b 718 1210 667 1060 715 1119 l 658 1210 b 586 1124 656 1157 628 1124 b 404 1218 532 1124 490 1218 b 279 1065 331 1218 282 1158 l 339 1065 b 411 1154 342 1121 369 1154 z m 885 0 l 993 0 l 549 972 l 447 972 l 3 0 l 110 0 l 226 260 l 768 260 z m 264 343 l 497 865 l 731 343 z "},"Æ":{"ha":1435,"x_min":0,"x_max":0,"o":"m 767 89 l 767 450 l 1271 450 l 1271 538 l 767 538 l 767 883 l 1331 883 l 1331 972 l 596 972 l 3 0 l 110 0 l 267 260 l 665 260 l 665 0 l 1351 0 l 1351 89 z m 317 343 l 644 883 l 665 883 l 665 343 z "},"Ǽ":{"ha":1435,"x_min":0,"x_max":0,"o":"m 947 1224 l 815 1224 l 625 1051 l 722 1051 z m 767 89 l 767 450 l 1271 450 l 1271 538 l 767 538 l 767 883 l 1331 883 l 1331 972 l 596 972 l 3 0 l 110 0 l 267 260 l 665 260 l 665 0 l 1351 0 l 1351 89 z m 317 343 l 644 883 l 665 883 l 665 343 z "},"B":{"ha":1047,"x_min":0,"x_max":0,"o":"m 771 501 b 919 722 860 538 919 611 b 578 972 919 881 794 972 l 158 972 l 158 0 l 606 0 b 971 260 849 0 971 94 b 771 501 971 392 896 474 z m 571 888 b 817 711 726 888 817 828 b 571 535 817 594 726 535 l 261 535 l 261 888 z m 604 85 l 261 85 l 261 450 l 604 450 b 868 268 775 450 868 394 b 604 85 868 140 775 85 z "},"C":{"ha":999,"x_min":0,"x_max":0,"o":"m 581 -8 b 938 135 724 -8 851 40 l 872 200 b 585 83 793 118 696 83 b 174 486 350 83 174 256 b 585 889 174 717 350 889 b 872 774 696 889 793 854 l 938 839 b 582 981 851 933 724 981 b 72 486 289 981 72 771 b 581 -8 72 201 289 -8 z "},"Ć":{"ha":999,"x_min":0,"x_max":0,"o":"m 479 1051 l 576 1051 l 801 1224 l 669 1224 z m 581 -8 b 938 135 724 -8 851 40 l 872 200 b 585 83 793 118 696 83 b 174 486 350 83 174 256 b 585 889 174 717 350 889 b 872 774 696 889 793 854 l 938 839 b 582 981 851 933 724 981 b 72 486 289 981 72 771 b 581 -8 72 201 289 -8 z "},"Č":{"ha":999,"x_min":0,"x_max":0,"o":"m 619 1051 l 799 1224 l 707 1224 l 569 1110 l 432 1224 l 340 1224 l 519 1051 z m 585 83 b 174 486 350 83 174 256 b 585 889 174 717 350 889 b 872 774 696 889 793 854 l 938 839 b 582 981 851 933 724 981 b 72 486 289 981 72 771 b 581 -8 72 201 289 -8 b 938 135 724 -8 851 40 l 872 200 b 585 83 793 118 696 83 z "},"Ç":{"ha":999,"x_min":0,"x_max":0,"o":"m 585 83 b 174 486 350 83 174 256 b 585 889 174 717 350 889 b 872 774 696 889 793 854 l 938 839 b 582 981 851 933 724 981 b 72 486 289 981 72 771 b 526 -6 72 219 263 18 l 497 -118 l 529 -118 b 615 -182 588 -118 615 -144 b 529 -247 615 -224 585 -247 b 438 -221 496 -247 465 -239 l 414 -274 b 531 -306 447 -296 485 -306 b 688 -185 624 -306 688 -260 b 569 -72 688 -124 646 -79 l 586 -8 b 938 135 726 -7 853 42 l 872 200 b 585 83 793 118 696 83 z "},"Ḉ":{"ha":999,"x_min":0,"x_max":0,"o":"m 801 1224 l 669 1224 l 479 1051 l 576 1051 z m 585 83 b 174 486 350 83 174 256 b 585 889 174 717 350 889 b 872 774 696 889 793 854 l 938 839 b 582 981 851 933 724 981 b 72 486 289 981 72 771 b 526 -6 72 219 263 18 l 497 -118 l 529 -118 b 615 -182 588 -118 615 -144 b 529 -247 615 -224 585 -247 b 438 -221 496 -247 465 -239 l 414 -274 b 531 -306 447 -296 485 -306 b 688 -185 624 -306 688 -260 b 569 -72 688 -124 646 -79 l 586 -8 b 938 135 726 -7 853 42 l 872 200 b 585 83 793 118 696 83 z "},"Ĉ":{"ha":999,"x_min":0,"x_max":0,"o":"m 569 1167 l 707 1051 l 799 1051 l 619 1224 l 519 1224 l 340 1051 l 432 1051 z m 585 83 b 174 486 350 83 174 256 b 585 889 174 717 350 889 b 872 774 696 889 793 854 l 938 839 b 582 981 851 933 724 981 b 72 486 289 981 72 771 b 581 -8 72 201 289 -8 b 938 135 724 -8 851 40 l 872 200 b 585 83 793 118 696 83 z "},"Ċ":{"ha":999,"x_min":0,"x_max":0,"o":"m 569 1083 b 636 1150 607 1083 636 1113 b 569 1217 636 1188 607 1217 b 503 1150 532 1217 503 1188 b 569 1083 503 1113 532 1083 z m 581 -8 b 938 135 724 -8 851 40 l 872 200 b 585 83 793 118 696 83 b 174 486 350 83 174 256 b 585 889 174 717 350 889 b 872 774 696 889 793 854 l 938 839 b 582 981 851 933 724 981 b 72 486 289 981 72 771 b 581 -8 72 201 289 -8 z "},"D":{"ha":1147,"x_min":0,"x_max":0,"o":"m 158 0 l 554 0 b 1075 486 865 0 1075 200 b 554 972 1075 772 865 972 l 158 972 z m 261 89 l 261 883 l 549 883 b 974 486 807 883 974 719 b 549 89 974 253 807 89 z "},"Ǆ":{"ha":2022,"x_min":0,"x_max":0,"o":"m 1619 1051 l 1799 1224 l 1707 1224 l 1569 1110 l 1432 1224 l 1340 1224 l 1519 1051 z m 554 972 l 158 972 l 158 0 l 554 0 b 1075 486 865 0 1075 200 b 554 972 1075 772 865 972 z m 1308 89 l 1951 901 l 1951 972 l 1181 972 l 1181 883 l 1815 883 l 1171 71 l 1171 0 l 1968 0 l 1968 89 z m 549 89 l 261 89 l 261 883 l 549 883 b 974 486 807 883 974 719 b 549 89 974 253 807 89 z "},"Ð":{"ha":1154,"x_min":0,"x_max":0,"o":"m 561 972 l 165 972 l 165 536 l 18 536 l 18 454 l 165 454 l 165 0 l 561 0 b 1082 486 872 0 1082 200 b 561 972 1082 772 872 972 z m 556 89 l 268 89 l 268 454 l 557 454 l 557 536 l 268 536 l 268 883 l 556 883 b 981 486 814 883 981 719 b 556 89 981 253 814 89 z "},"Ď":{"ha":1147,"x_min":0,"x_max":0,"o":"m 582 1050 l 761 1222 l 669 1222 l 532 1108 l 394 1222 l 303 1222 l 482 1050 z m 554 972 l 158 972 l 158 0 l 554 0 b 1075 486 865 0 1075 200 b 554 972 1075 772 865 972 z m 549 89 l 261 89 l 261 883 l 549 883 b 974 486 807 883 974 719 b 549 89 974 253 807 89 z "},"Đ":{"ha":1154,"x_min":0,"x_max":0,"o":"m 561 972 l 165 972 l 165 536 l 18 536 l 18 454 l 165 454 l 165 0 l 561 0 b 1082 486 872 0 1082 200 b 561 972 1082 772 872 972 z m 556 89 l 268 89 l 268 454 l 557 454 l 557 536 l 268 536 l 268 883 l 556 883 b 981 486 814 883 981 719 b 556 89 981 253 814 89 z "},"Ḍ":{"ha":1147,"x_min":0,"x_max":0,"o":"m 158 0 l 554 0 b 1075 486 865 0 1075 200 b 554 972 1075 772 865 972 l 158 972 z m 261 89 l 261 883 l 549 883 b 974 486 807 883 974 719 b 549 89 974 253 807 89 z m 539 -264 b 599 -204 572 -264 599 -239 b 539 -144 599 -169 572 -144 b 479 -204 506 -144 479 -169 b 539 -264 479 -239 506 -264 z "},"Ḏ":{"ha":1147,"x_min":0,"x_max":0,"o":"m 158 0 l 554 0 b 1075 486 865 0 1075 200 b 554 972 1075 772 865 972 l 158 972 z m 261 89 l 261 883 l 549 883 b 974 486 807 883 974 719 b 549 89 974 253 807 89 z m 325 -235 l 753 -235 l 753 -169 l 325 -169 z "},"ǅ":{"ha":1857,"x_min":0,"x_max":0,"o":"m 1553 844 l 1732 1017 l 1640 1017 l 1503 903 l 1365 1017 l 1274 1017 l 1453 844 z m 554 972 l 158 972 l 158 0 l 554 0 b 1075 486 865 0 1075 200 b 554 972 1075 772 865 972 z m 549 89 l 261 89 l 261 883 l 549 883 b 974 486 807 883 974 719 b 549 89 974 253 807 89 z m 1332 82 l 1792 665 l 1792 731 l 1214 731 l 1214 647 l 1665 647 l 1206 65 l 1206 0 l 1800 0 l 1800 82 z "},"E":{"ha":929,"x_min":0,"x_max":0,"o":"m 261 89 l 261 450 l 764 450 l 764 538 l 261 538 l 261 883 l 825 883 l 825 972 l 158 972 l 158 0 l 846 0 l 846 89 z "},"É":{"ha":929,"x_min":0,"x_max":0,"o":"m 725 1224 l 593 1224 l 403 1051 l 500 1051 z m 261 89 l 261 450 l 764 450 l 764 538 l 261 538 l 261 883 l 825 883 l 825 972 l 158 972 l 158 0 l 846 0 l 846 89 z "},"Ĕ":{"ha":929,"x_min":0,"x_max":0,"o":"m 493 1044 b 704 1224 610 1044 700 1113 l 635 1224 b 493 1106 632 1150 571 1106 b 351 1224 415 1106 354 1150 l 282 1224 b 493 1044 286 1113 376 1044 z m 261 89 l 261 450 l 764 450 l 764 538 l 261 538 l 261 883 l 825 883 l 825 972 l 158 972 l 158 0 l 846 0 l 846 89 z "},"Ě":{"ha":929,"x_min":0,"x_max":0,"o":"m 543 1051 l 722 1224 l 631 1224 l 493 1110 l 356 1224 l 264 1224 l 443 1051 z m 261 89 l 261 450 l 764 450 l 764 538 l 261 538 l 261 883 l 825 883 l 825 972 l 158 972 l 158 0 l 846 0 l 846 89 z "},"Ḝ":{"ha":929,"x_min":0,"x_max":0,"o":"m 493 1044 b 704 1224 610 1044 700 1113 l 635 1224 b 493 1106 632 1150 571 1106 b 351 1224 415 1106 354 1150 l 282 1224 b 493 1044 286 1113 376 1044 z m 846 0 l 846 89 l 261 89 l 261 450 l 764 450 l 764 538 l 261 538 l 261 883 l 825 883 l 825 972 l 158 972 l 158 0 l 478 0 l 447 -118 l 479 -118 b 565 -182 538 -118 565 -144 b 479 -247 565 -224 535 -247 b 388 -221 446 -247 415 -239 l 364 -274 b 481 -306 397 -296 435 -306 b 638 -185 574 -306 638 -260 b 519 -72 638 -124 596 -79 l 538 0 z "},"Ê":{"ha":929,"x_min":0,"x_max":0,"o":"m 493 1167 l 631 1051 l 722 1051 l 543 1224 l 443 1224 l 264 1051 l 356 1051 z m 261 89 l 261 450 l 764 450 l 764 538 l 261 538 l 261 883 l 825 883 l 825 972 l 158 972 l 158 0 l 846 0 l 846 89 z "},"Ế":{"ha":929,"x_min":0,"x_max":0,"o":"m 907 1319 l 788 1319 l 619 1168 l 707 1168 z m 493 1133 l 628 1051 l 722 1051 l 542 1182 l 444 1182 l 264 1051 l 358 1051 z m 261 450 l 764 450 l 764 538 l 261 538 l 261 883 l 825 883 l 825 972 l 158 972 l 158 0 l 846 0 l 846 89 l 261 89 z "},"Ệ":{"ha":929,"x_min":0,"x_max":0,"o":"m 493 1167 l 631 1051 l 722 1051 l 543 1224 l 443 1224 l 264 1051 l 356 1051 z m 261 89 l 261 450 l 764 450 l 764 538 l 261 538 l 261 883 l 825 883 l 825 972 l 158 972 l 158 0 l 846 0 l 846 89 z m 511 -144 b 451 -204 478 -144 451 -169 b 511 -264 451 -239 478 -264 b 571 -204 544 -264 571 -239 b 511 -144 571 -169 544 -144 z "},"Ề":{"ha":929,"x_min":0,"x_max":0,"o":"m 789 1168 l 622 1319 l 501 1319 l 703 1168 z m 493 1133 l 628 1051 l 722 1051 l 542 1182 l 444 1182 l 264 1051 l 358 1051 z m 261 89 l 261 450 l 764 450 l 764 538 l 261 538 l 261 883 l 825 883 l 825 972 l 158 972 l 158 0 l 846 0 l 846 89 z "},"Ể":{"ha":929,"x_min":0,"x_max":0,"o":"m 650 1294 b 706 1249 682 1294 706 1276 b 647 1179 706 1222 685 1197 l 676 1144 b 758 1254 728 1167 758 1206 b 658 1344 758 1307 721 1344 b 569 1318 626 1344 594 1335 l 590 1278 b 650 1294 610 1289 629 1294 z m 493 1133 l 628 1051 l 722 1051 l 542 1182 l 444 1182 l 264 1051 l 358 1051 z m 261 89 l 261 450 l 764 450 l 764 538 l 261 538 l 261 883 l 825 883 l 825 972 l 158 972 l 158 0 l 846 0 l 846 89 z "},"Ễ":{"ha":929,"x_min":0,"x_max":0,"o":"m 404 1301 b 586 1226 460 1301 501 1226 b 708 1353 660 1226 707 1275 l 650 1353 b 582 1285 649 1311 625 1285 b 401 1360 526 1285 483 1360 b 278 1232 328 1360 279 1313 l 338 1232 b 404 1301 339 1276 363 1301 z m 493 1133 l 628 1051 l 722 1051 l 542 1182 l 444 1182 l 264 1051 l 358 1051 z m 261 89 l 261 450 l 764 450 l 764 538 l 261 538 l 261 883 l 825 883 l 825 972 l 158 972 l 158 0 l 846 0 l 846 89 z "},"Ȅ":{"ha":929,"x_min":0,"x_max":0,"o":"m 424 1051 l 290 1224 l 181 1224 l 336 1051 z m 650 1051 l 515 1224 l 406 1224 l 563 1051 z m 261 89 l 261 450 l 764 450 l 764 538 l 261 538 l 261 883 l 825 883 l 825 972 l 158 972 l 158 0 l 846 0 l 846 89 z "},"Ë":{"ha":929,"x_min":0,"x_max":0,"o":"m 369 1083 b 429 1143 401 1083 429 1108 b 369 1203 429 1176 401 1203 b 310 1143 336 1203 310 1176 b 369 1083 310 1108 336 1083 z m 617 1083 b 676 1143 650 1083 676 1108 b 617 1203 676 1176 650 1203 b 557 1143 585 1203 557 1176 b 617 1083 557 1108 585 1083 z m 261 89 l 261 450 l 764 450 l 764 538 l 261 538 l 261 883 l 825 883 l 825 972 l 158 972 l 158 0 l 846 0 l 846 89 z "},"Ė":{"ha":929,"x_min":0,"x_max":0,"o":"m 493 1083 b 560 1150 531 1083 560 1113 b 493 1217 560 1188 531 1217 b 426 1150 456 1217 426 1188 b 493 1083 426 1113 456 1083 z m 261 89 l 261 450 l 764 450 l 764 538 l 261 538 l 261 883 l 825 883 l 825 972 l 158 972 l 158 0 l 846 0 l 846 89 z "},"Ẹ":{"ha":929,"x_min":0,"x_max":0,"o":"m 261 89 l 261 450 l 764 450 l 764 538 l 261 538 l 261 883 l 825 883 l 825 972 l 158 972 l 158 0 l 846 0 l 846 89 z m 511 -144 b 451 -204 478 -144 451 -169 b 511 -264 451 -239 478 -264 b 571 -204 544 -264 571 -239 b 511 -144 571 -169 544 -144 z "},"È":{"ha":929,"x_min":0,"x_max":0,"o":"m 583 1051 l 393 1224 l 261 1224 l 486 1051 z m 261 89 l 261 450 l 764 450 l 764 538 l 261 538 l 261 883 l 825 883 l 825 972 l 158 972 l 158 0 l 846 0 l 846 89 z "},"Ẻ":{"ha":929,"x_min":0,"x_max":0,"o":"m 482 1251 b 558 1183 526 1251 558 1222 b 476 1085 558 1142 532 1110 l 511 1042 b 622 1190 586 1076 622 1125 b 490 1310 622 1264 568 1310 b 375 1274 450 1310 406 1297 l 399 1225 b 482 1251 426 1243 453 1251 z m 261 89 l 261 450 l 764 450 l 764 538 l 261 538 l 261 883 l 825 883 l 825 972 l 158 972 l 158 0 l 846 0 l 846 89 z "},"Ȇ":{"ha":929,"x_min":0,"x_max":0,"o":"m 493 1169 b 635 1051 571 1169 632 1124 l 704 1051 b 493 1229 700 1163 610 1229 b 282 1051 376 1229 286 1163 l 351 1051 b 493 1169 354 1124 415 1169 z m 261 89 l 261 450 l 764 450 l 764 538 l 261 538 l 261 883 l 825 883 l 825 972 l 158 972 l 158 0 l 846 0 l 846 89 z "},"Ē":{"ha":929,"x_min":0,"x_max":0,"o":"m 707 1169 l 279 1169 l 279 1104 l 707 1104 z m 261 89 l 261 450 l 764 450 l 764 538 l 261 538 l 261 883 l 825 883 l 825 972 l 158 972 l 158 0 l 846 0 l 846 89 z "},"Ḗ":{"ha":929,"x_min":0,"x_max":0,"o":"m 696 1386 l 576 1386 l 408 1235 l 496 1235 z m 707 1147 l 279 1147 l 279 1085 l 707 1085 z m 261 89 l 261 450 l 764 450 l 764 538 l 261 538 l 261 883 l 825 883 l 825 972 l 158 972 l 158 0 l 846 0 l 846 89 z "},"Ḕ":{"ha":929,"x_min":0,"x_max":0,"o":"m 578 1235 l 411 1386 l 290 1386 l 492 1235 z m 707 1147 l 279 1147 l 279 1085 l 707 1085 z m 261 89 l 261 450 l 764 450 l 764 538 l 261 538 l 261 883 l 825 883 l 825 972 l 158 972 l 158 0 l 846 0 l 846 89 z "},"Ę":{"ha":929,"x_min":0,"x_max":0,"o":"m 853 -218 b 767 -244 831 -236 797 -244 b 676 -167 715 -244 676 -218 b 846 0 676 -115 714 -58 l 846 89 l 261 89 l 261 450 l 764 450 l 764 538 l 261 538 l 261 883 l 825 883 l 825 972 l 158 972 l 158 0 l 725 0 b 604 -174 632 -56 604 -118 b 757 -306 604 -254 664 -306 b 875 -272 800 -306 842 -294 z "},"Ẽ":{"ha":929,"x_min":0,"x_max":0,"o":"m 406 1154 b 588 1060 461 1154 501 1060 b 713 1210 661 1060 710 1119 l 653 1210 b 581 1124 650 1157 622 1124 b 399 1218 526 1124 485 1218 b 274 1065 325 1218 276 1158 l 333 1065 b 406 1154 336 1121 364 1154 z m 261 89 l 261 450 l 764 450 l 764 538 l 261 538 l 261 883 l 825 883 l 825 972 l 158 972 l 158 0 l 846 0 l 846 89 z "},"Ʒ":{"ha":854,"x_min":0,"x_max":0,"o":"m 439 556 l 735 901 l 735 972 l 81 972 l 81 885 l 614 885 l 322 546 l 322 474 l 394 474 b 675 279 586 474 675 399 b 407 82 675 157 579 82 b 85 194 269 82 150 129 l 44 114 b 410 -8 117 40 257 -8 b 778 279 654 -8 778 115 b 439 556 778 436 665 547 z "},"Ǯ":{"ha":854,"x_min":0,"x_max":0,"o":"m 463 1051 l 642 1224 l 550 1224 l 413 1110 l 275 1224 l 183 1224 l 363 1051 z m 439 556 l 735 901 l 735 972 l 81 972 l 81 885 l 614 885 l 322 546 l 322 474 l 394 474 b 675 279 586 474 675 399 b 407 82 675 157 579 82 b 85 194 269 82 150 129 l 44 114 b 410 -8 117 40 257 -8 b 778 279 654 -8 778 115 b 439 556 778 436 665 547 z "},"F":{"ha":879,"x_min":0,"x_max":0,"o":"m 825 883 l 825 972 l 158 972 l 158 0 l 261 0 l 261 413 l 764 413 l 764 501 l 261 501 l 261 883 z "},"G":{"ha":1074,"x_min":0,"x_max":0,"o":"m 843 158 b 589 83 768 104 682 83 b 174 486 350 83 174 256 b 590 889 174 718 350 889 b 883 775 704 889 801 856 l 947 840 b 586 981 861 933 733 981 b 72 486 289 981 72 771 b 585 -8 72 201 289 -8 b 942 115 719 -8 850 33 l 942 486 l 843 486 z "},"Ğ":{"ha":1074,"x_min":0,"x_max":0,"o":"m 567 1044 b 778 1224 683 1044 774 1113 l 708 1224 b 567 1106 706 1150 644 1106 b 425 1224 489 1106 428 1150 l 356 1224 b 567 1044 360 1113 450 1044 z m 843 158 b 589 83 768 104 682 83 b 174 486 350 83 174 256 b 590 889 174 718 350 889 b 883 775 704 889 801 856 l 947 840 b 586 981 861 933 733 981 b 72 486 289 981 72 771 b 585 -8 72 201 289 -8 b 942 115 719 -8 850 33 l 942 486 l 843 486 z "},"Ǧ":{"ha":1074,"x_min":0,"x_max":0,"o":"m 617 1051 l 796 1224 l 704 1224 l 567 1110 l 429 1224 l 338 1224 l 517 1051 z m 843 158 b 589 83 768 104 682 83 b 174 486 350 83 174 256 b 590 889 174 718 350 889 b 883 775 704 889 801 856 l 947 840 b 586 981 861 933 733 981 b 72 486 289 981 72 771 b 585 -8 72 201 289 -8 b 942 115 719 -8 850 33 l 942 486 l 843 486 z "},"Ĝ":{"ha":1074,"x_min":0,"x_max":0,"o":"m 567 1167 l 704 1051 l 796 1051 l 617 1224 l 517 1224 l 338 1051 l 429 1051 z m 843 158 b 589 83 768 104 682 83 b 174 486 350 83 174 256 b 590 889 174 718 350 889 b 883 775 704 889 801 856 l 947 840 b 586 981 861 933 733 981 b 72 486 289 981 72 771 b 585 -8 72 201 289 -8 b 942 115 719 -8 850 33 l 942 486 l 843 486 z "},"Ģ":{"ha":1074,"x_min":0,"x_max":0,"o":"m 843 158 b 589 83 768 104 682 83 b 174 486 350 83 174 256 b 590 889 174 718 350 889 b 883 775 704 889 801 856 l 947 840 b 586 981 861 933 733 981 b 72 486 289 981 72 771 b 585 -8 72 201 289 -8 b 942 115 719 -8 850 33 l 942 486 l 843 486 z m 561 -144 b 501 -199 525 -144 501 -168 b 542 -250 501 -225 517 -244 l 513 -364 l 567 -364 l 606 -261 b 621 -199 617 -236 621 -217 b 561 -144 621 -169 597 -144 z "},"Ġ":{"ha":1074,"x_min":0,"x_max":0,"o":"m 567 1083 b 633 1150 604 1083 633 1113 b 567 1217 633 1188 604 1217 b 500 1150 529 1217 500 1188 b 567 1083 500 1113 529 1083 z m 843 158 b 589 83 768 104 682 83 b 174 486 350 83 174 256 b 590 889 174 718 350 889 b 883 775 704 889 801 856 l 947 840 b 586 981 861 933 733 981 b 72 486 289 981 72 771 b 585 -8 72 201 289 -8 b 942 115 719 -8 850 33 l 942 486 l 843 486 z "},"Ḡ":{"ha":1074,"x_min":0,"x_max":0,"o":"m 781 1169 l 353 1169 l 353 1104 l 781 1104 z m 843 158 b 589 83 768 104 682 83 b 174 486 350 83 174 256 b 590 889 174 718 350 889 b 883 775 704 889 801 856 l 947 840 b 586 981 861 933 733 981 b 72 486 289 981 72 771 b 585 -8 72 201 289 -8 b 942 115 719 -8 850 33 l 942 486 l 843 486 z "},"Ǥ":{"ha":1119,"x_min":0,"x_max":0,"o":"m 1088 369 l 942 369 l 942 486 l 843 486 l 843 369 l 564 369 l 564 288 l 843 288 l 843 158 b 589 83 768 104 682 83 b 174 486 350 83 174 256 b 590 889 174 718 350 889 b 883 775 704 889 801 856 l 947 840 b 586 981 861 933 733 981 b 72 486 289 981 72 771 b 585 -8 72 201 289 -8 b 942 115 719 -8 850 33 l 942 288 l 1088 288 z "},"H":{"ha":1129,"x_min":0,"x_max":0,"o":"m 869 972 l 869 539 l 261 539 l 261 972 l 158 972 l 158 0 l 261 0 l 261 449 l 869 449 l 869 0 l 971 0 l 971 972 z "},"Ħ":{"ha":1143,"x_min":0,"x_max":0,"o":"m 1124 803 l 978 803 l 978 972 l 876 972 l 876 803 l 268 803 l 268 972 l 165 972 l 165 803 l 17 803 l 17 719 l 165 719 l 165 0 l 268 0 l 268 449 l 876 449 l 876 0 l 978 0 l 978 719 l 1124 719 z m 876 539 l 268 539 l 268 719 l 876 719 z "},"Ḫ":{"ha":1129,"x_min":0,"x_max":0,"o":"m 869 972 l 869 539 l 261 539 l 261 972 l 158 972 l 158 0 l 261 0 l 261 449 l 869 449 l 869 0 l 971 0 l 971 972 z m 564 -228 b 419 -117 483 -228 421 -185 l 353 -117 b 564 -285 357 -219 447 -285 b 775 -117 681 -285 771 -219 l 708 -117 b 564 -228 707 -185 644 -228 z "},"Ȟ":{"ha":1129,"x_min":0,"x_max":0,"o":"m 614 1051 l 793 1224 l 701 1224 l 564 1110 l 426 1224 l 335 1224 l 514 1051 z m 869 972 l 869 539 l 261 539 l 261 972 l 158 972 l 158 0 l 261 0 l 261 449 l 869 449 l 869 0 l 971 0 l 971 972 z "},"Ĥ":{"ha":1129,"x_min":0,"x_max":0,"o":"m 564 1167 l 701 1051 l 793 1051 l 614 1224 l 514 1224 l 335 1051 l 426 1051 z m 869 972 l 869 539 l 261 539 l 261 972 l 158 972 l 158 0 l 261 0 l 261 449 l 869 449 l 869 0 l 971 0 l 971 972 z "},"Ḥ":{"ha":1129,"x_min":0,"x_max":0,"o":"m 869 972 l 869 539 l 261 539 l 261 972 l 158 972 l 158 0 l 261 0 l 261 449 l 869 449 l 869 0 l 971 0 l 971 972 z m 564 -144 b 504 -204 531 -144 504 -169 b 564 -264 504 -239 531 -264 b 624 -204 597 -264 624 -239 b 564 -144 624 -169 597 -144 z "},"I":{"ha":419,"x_min":0,"x_max":0,"o":"m 158 0 l 261 0 l 261 972 l 158 972 z "},"Ĳ":{"ha":997,"x_min":0,"x_max":0,"o":"m 454 -8 b 847 419 692 -8 847 136 l 847 972 l 744 972 l 744 415 b 457 83 744 190 639 83 b 178 169 353 83 256 114 l 136 88 b 454 -8 217 31 329 -8 z m 150 419 l 253 419 l 253 972 l 150 972 z "},"Í":{"ha":419,"x_min":0,"x_max":0,"o":"m 119 1051 l 217 1051 l 442 1224 l 310 1224 z m 158 0 l 261 0 l 261 972 l 158 972 z "},"Ĭ":{"ha":419,"x_min":0,"x_max":0,"o":"m 210 1044 b 421 1224 326 1044 417 1113 l 351 1224 b 210 1106 349 1150 288 1106 b 68 1224 132 1106 71 1150 l -1 1224 b 210 1044 3 1113 93 1044 z m 158 0 l 261 0 l 261 972 l 158 972 z "},"Î":{"ha":419,"x_min":0,"x_max":0,"o":"m 260 1224 l 160 1224 l -19 1051 l 72 1051 l 210 1167 l 347 1051 l 439 1051 z m 158 0 l 261 0 l 261 972 l 158 972 z "},"Ȉ":{"ha":419,"x_min":0,"x_max":0,"o":"m 53 1051 l 140 1051 l 7 1224 l -103 1224 z m 279 1051 l 367 1051 l 232 1224 l 122 1224 z m 158 0 l 261 0 l 261 972 l 158 972 z "},"Ï":{"ha":419,"x_min":0,"x_max":0,"o":"m 86 1083 b 146 1143 118 1083 146 1108 b 86 1203 146 1176 118 1203 b 26 1143 53 1203 26 1176 b 86 1083 26 1108 53 1083 z m 333 1083 b 393 1143 367 1083 393 1108 b 333 1203 393 1176 367 1203 b 274 1143 301 1203 274 1176 b 333 1083 274 1108 301 1083 z m 158 0 l 261 0 l 261 972 l 158 972 z "},"Ḯ":{"ha":419,"x_min":0,"x_max":0,"o":"m 125 1235 l 213 1235 l 413 1386 l 293 1386 z m 88 1083 b 146 1142 119 1083 146 1108 b 88 1199 146 1174 119 1199 b 29 1142 56 1199 29 1174 b 88 1083 29 1108 56 1083 z m 332 1083 b 390 1142 364 1083 390 1108 b 332 1199 390 1174 364 1199 b 274 1142 301 1199 274 1174 b 332 1083 274 1108 301 1083 z m 158 0 l 261 0 l 261 972 l 158 972 z "},"İ":{"ha":419,"x_min":0,"x_max":0,"o":"m 210 1083 b 276 1150 247 1083 276 1113 b 210 1217 276 1188 247 1217 b 143 1150 172 1217 143 1188 b 210 1083 143 1113 172 1083 z m 158 0 l 261 0 l 261 972 l 158 972 z "},"Ị":{"ha":419,"x_min":0,"x_max":0,"o":"m 158 0 l 261 0 l 261 972 l 158 972 z m 210 -264 b 269 -204 243 -264 269 -239 b 210 -144 269 -169 243 -144 b 150 -204 176 -144 150 -169 b 210 -264 150 -239 176 -264 z "},"Ì":{"ha":419,"x_min":0,"x_max":0,"o":"m 203 1051 l 300 1051 l 110 1224 l -22 1224 z m 158 0 l 261 0 l 261 972 l 158 972 z "},"Ỉ":{"ha":419,"x_min":0,"x_max":0,"o":"m 228 1042 b 339 1190 303 1076 339 1125 b 207 1310 339 1264 285 1310 b 92 1274 167 1310 122 1297 l 115 1225 b 199 1251 143 1243 169 1251 b 275 1183 243 1251 275 1222 b 193 1085 275 1142 249 1110 z m 158 0 l 261 0 l 261 972 l 158 972 z "},"Ȋ":{"ha":419,"x_min":0,"x_max":0,"o":"m -1 1051 l 68 1051 b 210 1169 71 1124 132 1169 b 351 1051 288 1169 349 1124 l 421 1051 b 210 1229 417 1163 326 1229 b -1 1051 93 1229 3 1163 z m 158 0 l 261 0 l 261 972 l 158 972 z "},"Ī":{"ha":419,"x_min":0,"x_max":0,"o":"m 35 1104 l 385 1104 l 385 1169 l 35 1169 z m 158 0 l 261 0 l 261 972 l 158 972 z "},"Į":{"ha":419,"x_min":0,"x_max":0,"o":"m 294 -226 b 243 -246 279 -239 263 -246 b 181 -169 210 -246 181 -218 b 261 0 181 -125 192 -71 l 261 972 l 158 972 l 158 0 l 186 0 b 108 -179 129 -62 108 -125 b 232 -306 108 -256 158 -306 b 314 -276 265 -306 294 -296 z "},"Ĩ":{"ha":419,"x_min":0,"x_max":0,"o":"m 304 1060 b 429 1210 378 1060 426 1119 l 369 1210 b 297 1124 367 1157 339 1124 b 115 1218 243 1124 201 1218 b -10 1065 42 1218 -7 1158 l 50 1065 b 122 1154 53 1121 81 1154 b 304 1060 178 1154 218 1060 z m 158 0 l 261 0 l 261 972 l 158 972 z "},"J":{"ha":696,"x_min":0,"x_max":0,"o":"m 263 -8 b 546 299 449 -8 546 93 l 546 972 l 89 972 l 89 883 l 444 883 l 444 294 b 264 81 444 151 383 81 b 54 200 178 81 107 122 l -7 131 b 263 -8 53 42 153 -8 z "},"Ĵ":{"ha":696,"x_min":0,"x_max":0,"o":"m 318 1167 l 456 1051 l 547 1051 l 368 1224 l 268 1224 l 89 1051 l 181 1051 z m 89 883 l 444 883 l 444 294 b 264 81 444 151 383 81 b 54 200 178 81 107 122 l -7 131 b 263 -8 53 42 153 -8 b 546 299 449 -8 546 93 l 546 972 l 89 972 z "},"K":{"ha":988,"x_min":0,"x_max":0,"o":"m 857 0 l 979 0 l 529 532 l 950 972 l 832 972 l 261 385 l 261 972 l 158 972 l 158 0 l 261 0 l 261 256 l 460 457 z "},"Ǩ":{"ha":988,"x_min":0,"x_max":0,"o":"m 568 1051 l 747 1224 l 656 1224 l 518 1110 l 381 1224 l 289 1224 l 468 1051 z m 857 0 l 979 0 l 529 532 l 950 972 l 832 972 l 261 385 l 261 972 l 158 972 l 158 0 l 261 0 l 261 256 l 460 457 z "},"Ķ":{"ha":988,"x_min":0,"x_max":0,"o":"m 529 532 l 950 972 l 832 972 l 261 385 l 261 972 l 158 972 l 158 0 l 261 0 l 261 256 l 460 457 l 857 0 l 979 0 z m 518 -144 b 458 -199 482 -144 458 -168 b 499 -250 458 -225 474 -244 l 469 -364 l 524 -364 l 563 -261 b 578 -199 574 -236 578 -217 b 518 -144 578 -169 554 -144 z "},"L":{"ha":818,"x_min":0,"x_max":0,"o":"m 158 0 l 806 0 l 806 89 l 261 89 l 261 972 l 158 972 z "},"Ǉ":{"ha":1514,"x_min":0,"x_max":0,"o":"m 158 0 l 806 0 l 806 89 l 261 89 l 261 972 l 158 972 z m 1081 -8 b 1364 299 1267 -8 1364 93 l 1364 972 l 907 972 l 907 883 l 1263 883 l 1263 294 b 1082 81 1263 151 1201 81 b 872 200 996 81 925 122 l 811 131 b 1081 -8 871 42 971 -8 z "},"Ĺ":{"ha":818,"x_min":0,"x_max":0,"o":"m 119 1051 l 217 1051 l 442 1224 l 310 1224 z m 158 0 l 806 0 l 806 89 l 261 89 l 261 972 l 158 972 z "},"Ľ":{"ha":818,"x_min":0,"x_max":0,"o":"m 611 750 l 682 750 l 694 1013 l 611 1013 z m 158 0 l 806 0 l 806 89 l 261 89 l 261 972 l 158 972 z "},"Ļ":{"ha":818,"x_min":0,"x_max":0,"o":"m 261 89 l 261 972 l 158 972 l 158 0 l 806 0 l 806 89 z m 497 -144 b 438 -199 461 -144 438 -168 b 478 -250 438 -225 453 -244 l 449 -364 l 503 -364 l 542 -261 b 557 -199 553 -236 557 -217 b 497 -144 557 -169 533 -144 z "},"Ŀ":{"ha":818,"x_min":0,"x_max":0,"o":"m 158 0 l 806 0 l 806 89 l 261 89 l 261 972 l 158 972 z m 618 461 b 686 531 656 461 686 490 b 618 600 686 571 656 600 b 550 531 581 600 550 571 b 618 461 550 490 581 461 z "},"Ḷ":{"ha":818,"x_min":0,"x_max":0,"o":"m 158 0 l 806 0 l 806 89 l 261 89 l 261 972 l 158 972 z m 497 -264 b 557 -204 531 -264 557 -239 b 497 -144 557 -169 531 -144 b 438 -204 464 -144 438 -169 b 497 -264 438 -239 464 -264 z "},"ǈ":{"ha":1199,"x_min":0,"x_max":0,"o":"m 1013 892 b 1085 964 1054 892 1085 924 b 1013 1032 1085 1001 1053 1032 b 940 963 972 1032 940 1000 b 1013 892 940 924 972 892 z m 158 0 l 806 0 l 806 89 l 261 89 l 261 972 l 158 972 z m 847 -276 b 1061 -54 986 -276 1061 -189 l 1061 731 l 963 731 l 963 -54 b 842 -192 963 -144 919 -192 b 728 -154 796 -192 757 -179 l 693 -229 b 847 -276 729 -261 789 -276 z "},"Ḻ":{"ha":818,"x_min":0,"x_max":0,"o":"m 158 0 l 806 0 l 806 89 l 261 89 l 261 972 l 158 972 z m 283 -235 l 711 -235 l 711 -169 l 283 -169 z "},"Ł":{"ha":825,"x_min":0,"x_max":0,"o":"m 268 89 l 268 506 l 479 664 l 432 724 l 268 600 l 268 972 l 165 972 l 165 522 l 26 418 l 72 360 l 165 429 l 165 0 l 813 0 l 813 89 z "},"M":{"ha":1326,"x_min":0,"x_max":0,"o":"m 1083 972 l 665 251 l 243 972 l 158 972 l 158 0 l 257 0 l 257 774 l 639 124 l 688 124 l 1069 778 l 1069 0 l 1168 0 l 1168 972 z "},"Ṃ":{"ha":1326,"x_min":0,"x_max":0,"o":"m 1083 972 l 665 251 l 243 972 l 158 972 l 158 0 l 257 0 l 257 774 l 639 124 l 688 124 l 1069 778 l 1069 0 l 1168 0 l 1168 972 z m 663 -144 b 603 -204 629 -144 603 -169 b 663 -264 603 -239 629 -264 b 722 -204 696 -264 722 -239 b 663 -144 722 -169 696 -144 z "},"N":{"ha":1129,"x_min":0,"x_max":0,"o":"m 869 972 l 869 183 l 243 972 l 158 972 l 158 0 l 261 0 l 261 789 l 886 0 l 971 0 l 971 972 z "},"Ǌ":{"ha":1825,"x_min":0,"x_max":0,"o":"m 869 183 l 243 972 l 158 972 l 158 0 l 261 0 l 261 789 l 886 0 l 971 0 l 971 972 l 869 972 z m 1218 972 l 1218 883 l 1574 883 l 1574 294 b 1393 81 1574 151 1513 81 b 1183 200 1307 81 1236 122 l 1122 131 b 1392 -8 1182 42 1282 -8 b 1675 299 1578 -8 1675 93 l 1675 972 z "},"Ń":{"ha":1129,"x_min":0,"x_max":0,"o":"m 796 1224 l 664 1224 l 474 1051 l 571 1051 z m 869 972 l 869 183 l 243 972 l 158 972 l 158 0 l 261 0 l 261 789 l 886 0 l 971 0 l 971 972 z "},"Ň":{"ha":1129,"x_min":0,"x_max":0,"o":"m 614 1051 l 793 1224 l 701 1224 l 564 1110 l 426 1224 l 335 1224 l 514 1051 z m 869 972 l 869 183 l 243 972 l 158 972 l 158 0 l 261 0 l 261 789 l 886 0 l 971 0 l 971 972 z "},"Ņ":{"ha":1129,"x_min":0,"x_max":0,"o":"m 869 972 l 869 183 l 243 972 l 158 972 l 158 0 l 261 0 l 261 789 l 886 0 l 971 0 l 971 972 z m 564 -144 b 504 -199 528 -144 504 -168 b 544 -250 504 -225 519 -244 l 515 -364 l 569 -364 l 608 -261 b 624 -199 619 -236 624 -217 b 564 -144 624 -169 600 -144 z "},"Ṅ":{"ha":1129,"x_min":0,"x_max":0,"o":"m 564 1083 b 631 1150 601 1083 631 1113 b 564 1217 631 1188 601 1217 b 497 1150 526 1217 497 1188 b 564 1083 497 1113 526 1083 z m 869 972 l 869 183 l 243 972 l 158 972 l 158 0 l 261 0 l 261 789 l 886 0 l 971 0 l 971 972 z "},"Ṇ":{"ha":1129,"x_min":0,"x_max":0,"o":"m 869 972 l 869 183 l 243 972 l 158 972 l 158 0 l 261 0 l 261 789 l 886 0 l 971 0 l 971 972 z m 564 -144 b 504 -204 531 -144 504 -169 b 564 -264 504 -239 531 -264 b 624 -204 597 -264 624 -239 b 564 -144 624 -169 597 -144 z "},"Ŋ":{"ha":1129,"x_min":0,"x_max":0,"o":"m 869 972 l 869 183 l 243 972 l 158 972 l 158 0 l 261 0 l 261 789 l 869 21 b 690 -187 868 -119 810 -187 b 494 -85 610 -187 543 -150 l 443 -157 b 690 -276 500 -233 592 -276 b 971 39 875 -276 971 -174 l 971 972 z "},"ǋ":{"ha":1510,"x_min":0,"x_max":0,"o":"m 1324 1032 b 1251 963 1283 1032 1251 1000 b 1324 892 1251 924 1283 892 b 1396 964 1365 892 1396 924 b 1324 1032 1396 1001 1364 1032 z m 869 183 l 243 972 l 158 972 l 158 0 l 261 0 l 261 789 l 886 0 l 971 0 l 971 972 l 869 972 z m 1274 -54 b 1153 -192 1274 -144 1231 -192 b 1039 -154 1107 -192 1068 -179 l 1004 -229 b 1158 -276 1040 -261 1100 -276 b 1372 -54 1297 -276 1372 -189 l 1372 731 l 1274 731 z "},"Ṉ":{"ha":1129,"x_min":0,"x_max":0,"o":"m 869 972 l 869 183 l 243 972 l 158 972 l 158 0 l 261 0 l 261 789 l 886 0 l 971 0 l 971 972 z m 350 -235 l 778 -235 l 778 -169 l 350 -169 z "},"Ñ":{"ha":1129,"x_min":0,"x_max":0,"o":"m 476 1154 b 658 1060 532 1154 572 1060 b 783 1210 732 1060 781 1119 l 724 1210 b 651 1124 721 1157 693 1124 b 469 1218 597 1124 556 1218 b 344 1065 396 1218 347 1158 l 404 1065 b 476 1154 407 1121 435 1154 z m 869 972 l 869 183 l 243 972 l 158 972 l 158 0 l 261 0 l 261 789 l 886 0 l 971 0 l 971 972 z "},"O":{"ha":1165,"x_min":0,"x_max":0,"o":"m 583 -8 b 1093 486 875 -8 1093 201 b 583 981 1093 771 875 981 b 72 486 289 981 72 769 b 583 -8 72 203 289 -8 z m 583 83 b 174 486 349 83 174 254 b 583 889 174 718 349 889 b 990 486 817 889 990 718 b 583 83 990 254 817 83 z "},"Ó":{"ha":1165,"x_min":0,"x_max":0,"o":"m 493 1051 l 590 1051 l 815 1224 l 683 1224 z m 583 -8 b 1093 486 875 -8 1093 201 b 583 981 1093 771 875 981 b 72 486 289 981 72 769 b 583 -8 72 203 289 -8 z m 583 83 b 174 486 349 83 174 254 b 583 889 174 718 349 889 b 990 486 817 889 990 718 b 583 83 990 254 817 83 z "},"Ŏ":{"ha":1165,"x_min":0,"x_max":0,"o":"m 583 1044 b 794 1224 700 1044 790 1113 l 725 1224 b 583 1106 722 1150 661 1106 b 442 1224 506 1106 444 1150 l 372 1224 b 583 1044 376 1113 467 1044 z m 583 -8 b 1093 486 875 -8 1093 201 b 583 981 1093 771 875 981 b 72 486 289 981 72 769 b 583 -8 72 203 289 -8 z m 583 83 b 174 486 349 83 174 254 b 583 889 174 718 349 889 b 990 486 817 889 990 718 b 583 83 990 254 817 83 z "},"Ô":{"ha":1165,"x_min":0,"x_max":0,"o":"m 583 1167 l 721 1051 l 813 1051 l 633 1224 l 533 1224 l 354 1051 l 446 1051 z m 583 981 b 72 486 289 981 72 769 b 583 -8 72 203 289 -8 b 1093 486 875 -8 1093 201 b 583 981 1093 771 875 981 z m 583 83 b 174 486 349 83 174 254 b 583 889 174 718 349 889 b 990 486 817 889 990 718 b 583 83 990 254 817 83 z "},"Ố":{"ha":1165,"x_min":0,"x_max":0,"o":"m 997 1319 l 878 1319 l 710 1168 l 797 1168 z m 583 1133 l 718 1051 l 813 1051 l 632 1182 l 535 1182 l 354 1051 l 449 1051 z m 583 981 b 72 486 289 981 72 769 b 583 -8 72 203 289 -8 b 1093 486 875 -8 1093 201 b 583 981 1093 771 875 981 z m 583 83 b 174 486 349 83 174 254 b 583 889 174 718 349 889 b 990 486 817 889 990 718 b 583 83 990 254 817 83 z "},"Ộ":{"ha":1165,"x_min":0,"x_max":0,"o":"m 583 1167 l 721 1051 l 813 1051 l 633 1224 l 533 1224 l 354 1051 l 446 1051 z m 583 981 b 72 486 289 981 72 769 b 583 -8 72 203 289 -8 b 1093 486 875 -8 1093 201 b 583 981 1093 771 875 981 z m 583 83 b 174 486 349 83 174 254 b 583 889 174 718 349 889 b 990 486 817 889 990 718 b 583 83 990 254 817 83 z m 583 -144 b 524 -204 550 -144 524 -169 b 583 -264 524 -239 550 -264 b 643 -204 617 -264 643 -239 b 583 -144 643 -169 617 -144 z "},"Ồ":{"ha":1165,"x_min":0,"x_max":0,"o":"m 879 1168 l 713 1319 l 592 1319 l 793 1168 z m 583 1133 l 718 1051 l 813 1051 l 632 1182 l 535 1182 l 354 1051 l 449 1051 z m 583 981 b 72 486 289 981 72 769 b 583 -8 72 203 289 -8 b 1093 486 875 -8 1093 201 b 583 981 1093 771 875 981 z m 583 83 b 174 486 349 83 174 254 b 583 889 174 718 349 889 b 990 486 817 889 990 718 b 583 83 990 254 817 83 z "},"Ổ":{"ha":1165,"x_min":0,"x_max":0,"o":"m 740 1294 b 796 1249 772 1294 796 1276 b 738 1179 796 1222 775 1197 l 767 1144 b 849 1254 818 1167 849 1206 b 749 1344 849 1307 811 1344 b 660 1318 717 1344 685 1335 l 681 1278 b 740 1294 700 1289 719 1294 z m 583 1133 l 718 1051 l 813 1051 l 632 1182 l 535 1182 l 354 1051 l 449 1051 z m 583 981 b 72 486 289 981 72 769 b 583 -8 72 203 289 -8 b 1093 486 875 -8 1093 201 b 583 981 1093 771 875 981 z m 583 83 b 174 486 349 83 174 254 b 583 889 174 718 349 889 b 990 486 817 889 990 718 b 583 83 990 254 817 83 z "},"Ỗ":{"ha":1165,"x_min":0,"x_max":0,"o":"m 494 1301 b 676 1226 550 1301 592 1226 b 799 1353 750 1226 797 1275 l 740 1353 b 672 1285 739 1311 715 1285 b 492 1360 617 1285 574 1360 b 368 1232 418 1360 369 1313 l 428 1232 b 494 1301 429 1276 453 1301 z m 583 1133 l 718 1051 l 813 1051 l 632 1182 l 535 1182 l 354 1051 l 449 1051 z m 583 981 b 72 486 289 981 72 769 b 583 -8 72 203 289 -8 b 1093 486 875 -8 1093 201 b 583 981 1093 771 875 981 z m 583 83 b 174 486 349 83 174 254 b 583 889 174 718 349 889 b 990 486 817 889 990 718 b 583 83 990 254 817 83 z "},"Ȍ":{"ha":1165,"x_min":0,"x_max":0,"o":"m 426 1051 l 514 1051 l 381 1224 l 271 1224 z m 653 1051 l 740 1051 l 606 1224 l 496 1224 z m 583 -8 b 1093 486 875 -8 1093 201 b 583 981 1093 771 875 981 b 72 486 289 981 72 769 b 583 -8 72 203 289 -8 z m 583 83 b 174 486 349 83 174 254 b 583 889 174 718 349 889 b 990 486 817 889 990 718 b 583 83 990 254 817 83 z "},"Ö":{"ha":1165,"x_min":0,"x_max":0,"o":"m 460 1083 b 519 1143 492 1083 519 1108 b 460 1203 519 1176 492 1203 b 400 1143 426 1203 400 1176 b 460 1083 400 1108 426 1083 z m 707 1083 b 767 1143 740 1083 767 1108 b 707 1203 767 1176 740 1203 b 647 1143 675 1203 647 1176 b 707 1083 647 1108 675 1083 z m 583 -8 b 1093 486 875 -8 1093 201 b 583 981 1093 771 875 981 b 72 486 289 981 72 769 b 583 -8 72 203 289 -8 z m 583 83 b 174 486 349 83 174 254 b 583 889 174 718 349 889 b 990 486 817 889 990 718 b 583 83 990 254 817 83 z "},"Ȫ":{"ha":1165,"x_min":0,"x_max":0,"o":"m 369 1268 l 797 1268 l 797 1331 l 369 1331 z m 461 1083 b 519 1142 493 1083 519 1108 b 461 1199 519 1174 493 1199 b 403 1142 429 1199 403 1174 b 461 1083 403 1108 429 1083 z m 706 1083 b 764 1142 738 1083 764 1108 b 706 1199 764 1174 738 1199 b 647 1142 675 1199 647 1174 b 706 1083 647 1108 675 1083 z m 583 -8 b 1093 486 875 -8 1093 201 b 583 981 1093 771 875 981 b 72 486 289 981 72 769 b 583 -8 72 203 289 -8 z m 583 83 b 174 486 349 83 174 254 b 583 889 174 718 349 889 b 990 486 817 889 990 718 b 583 83 990 254 817 83 z "},"Ȱ":{"ha":1165,"x_min":0,"x_max":0,"o":"m 369 1272 l 797 1272 l 797 1335 l 369 1335 z m 583 1082 b 643 1142 617 1082 643 1107 b 583 1201 643 1176 617 1201 b 524 1142 550 1201 524 1176 b 583 1082 524 1107 550 1082 z m 583 -8 b 1093 486 875 -8 1093 201 b 583 981 1093 771 875 981 b 72 486 289 981 72 769 b 583 -8 72 203 289 -8 z m 583 83 b 174 486 349 83 174 254 b 583 889 174 718 349 889 b 990 486 817 889 990 718 b 583 83 990 254 817 83 z "},"Ọ":{"ha":1165,"x_min":0,"x_max":0,"o":"m 583 -8 b 1093 486 875 -8 1093 201 b 583 981 1093 771 875 981 b 72 486 289 981 72 769 b 583 -8 72 203 289 -8 z m 583 83 b 174 486 349 83 174 254 b 583 889 174 718 349 889 b 990 486 817 889 990 718 b 583 83 990 254 817 83 z m 583 -264 b 643 -204 617 -264 643 -239 b 583 -144 643 -169 617 -144 b 524 -204 550 -144 524 -169 b 583 -264 524 -239 550 -264 z "},"Ò":{"ha":1165,"x_min":0,"x_max":0,"o":"m 576 1051 l 674 1051 l 483 1224 l 351 1224 z m 583 -8 b 1093 486 875 -8 1093 201 b 583 981 1093 771 875 981 b 72 486 289 981 72 769 b 583 -8 72 203 289 -8 z m 583 83 b 174 486 349 83 174 254 b 583 889 174 718 349 889 b 990 486 817 889 990 718 b 583 83 990 254 817 83 z "},"Ỏ":{"ha":1165,"x_min":0,"x_max":0,"o":"m 601 1042 b 713 1190 676 1076 713 1125 b 581 1310 713 1264 658 1310 b 465 1274 540 1310 496 1297 l 489 1225 b 572 1251 517 1243 543 1251 b 649 1183 617 1251 649 1222 b 567 1085 649 1142 622 1110 z m 583 -8 b 1093 486 875 -8 1093 201 b 583 981 1093 771 875 981 b 72 486 289 981 72 769 b 583 -8 72 203 289 -8 z m 583 83 b 174 486 349 83 174 254 b 583 889 174 718 349 889 b 990 486 817 889 990 718 b 583 83 990 254 817 83 z "},"Ơ":{"ha":1165,"x_min":0,"x_max":0,"o":"m 876 894 b 1072 1064 1003 900 1072 960 b 1036 1181 1072 1107 1058 1149 l 971 1156 b 999 1067 986 1131 999 1101 b 861 961 999 996 951 961 b 586 981 778 961 700 981 b 72 486 290 981 72 771 b 583 -8 72 203 289 -8 b 1093 486 875 -8 1093 201 b 876 894 1093 660 1010 811 z m 583 83 b 174 486 350 83 174 256 b 583 889 174 717 350 889 b 990 486 817 889 990 715 b 583 83 990 257 817 83 z "},"Ớ":{"ha":1165,"x_min":0,"x_max":0,"o":"m 815 1224 l 683 1224 l 493 1051 l 590 1051 z m 876 894 b 1072 1064 1003 900 1072 960 b 1036 1181 1072 1107 1058 1149 l 971 1156 b 999 1067 986 1131 999 1101 b 861 961 999 996 951 961 b 586 981 778 961 700 981 b 72 486 290 981 72 771 b 583 -8 72 203 289 -8 b 1093 486 875 -8 1093 201 b 876 894 1093 660 1010 811 z m 583 83 b 174 486 350 83 174 256 b 583 889 174 717 350 889 b 990 486 817 889 990 715 b 583 83 990 257 817 83 z "},"Ợ":{"ha":1165,"x_min":0,"x_max":0,"o":"m 876 894 b 1072 1064 1003 900 1072 960 b 1036 1181 1072 1107 1058 1149 l 971 1156 b 999 1067 986 1131 999 1101 b 861 961 999 996 951 961 b 586 981 778 961 700 981 b 72 486 290 981 72 771 b 583 -8 72 203 289 -8 b 1093 486 875 -8 1093 201 b 876 894 1093 660 1010 811 z m 583 83 b 174 486 350 83 174 256 b 583 889 174 717 350 889 b 990 486 817 889 990 715 b 583 83 990 257 817 83 z m 583 -144 b 524 -204 550 -144 524 -169 b 583 -264 524 -239 550 -264 b 643 -204 617 -264 643 -239 b 583 -144 643 -169 617 -144 z "},"Ờ":{"ha":1165,"x_min":0,"x_max":0,"o":"m 674 1051 l 483 1224 l 351 1224 l 576 1051 z m 876 894 b 1072 1064 1003 900 1072 960 b 1036 1181 1072 1107 1058 1149 l 971 1156 b 999 1067 986 1131 999 1101 b 861 961 999 996 951 961 b 586 981 778 961 700 981 b 72 486 290 981 72 771 b 583 -8 72 203 289 -8 b 1093 486 875 -8 1093 201 b 876 894 1093 660 1010 811 z m 583 83 b 174 486 350 83 174 256 b 583 889 174 717 350 889 b 990 486 817 889 990 715 b 583 83 990 257 817 83 z "},"Ở":{"ha":1165,"x_min":0,"x_max":0,"o":"m 572 1251 b 649 1183 617 1251 649 1222 b 567 1085 649 1142 622 1110 l 601 1042 b 713 1190 676 1076 713 1125 b 581 1310 713 1264 658 1310 b 465 1274 540 1310 496 1297 l 489 1225 b 572 1251 517 1243 543 1251 z m 876 894 b 1072 1064 1003 900 1072 960 b 1036 1181 1072 1107 1058 1149 l 971 1156 b 999 1067 986 1131 999 1101 b 861 961 999 996 951 961 b 586 981 778 961 700 981 b 72 486 290 981 72 771 b 583 -8 72 203 289 -8 b 1093 486 875 -8 1093 201 b 876 894 1093 660 1010 811 z m 583 83 b 174 486 350 83 174 256 b 583 889 174 717 350 889 b 990 486 817 889 990 715 b 583 83 990 257 817 83 z "},"Ỡ":{"ha":1165,"x_min":0,"x_max":0,"o":"m 496 1154 b 678 1060 551 1154 592 1060 b 803 1210 751 1060 800 1119 l 743 1210 b 671 1124 740 1157 713 1124 b 489 1218 617 1124 575 1218 b 364 1065 415 1218 367 1158 l 424 1065 b 496 1154 426 1121 454 1154 z m 876 894 b 1072 1064 1003 900 1072 960 b 1036 1181 1072 1107 1058 1149 l 971 1156 b 999 1067 986 1131 999 1101 b 861 961 999 996 951 961 b 586 981 778 961 700 981 b 72 486 290 981 72 771 b 583 -8 72 203 289 -8 b 1093 486 875 -8 1093 201 b 876 894 1093 660 1010 811 z m 583 83 b 174 486 350 83 174 256 b 583 889 174 717 350 889 b 990 486 817 889 990 715 b 583 83 990 257 817 83 z "},"Ő":{"ha":1165,"x_min":0,"x_max":0,"o":"m 426 1051 l 514 1051 l 671 1224 l 561 1224 z m 653 1051 l 740 1051 l 896 1224 l 786 1224 z m 583 -8 b 1093 486 875 -8 1093 201 b 583 981 1093 771 875 981 b 72 486 289 981 72 769 b 583 -8 72 203 289 -8 z m 583 83 b 174 486 349 83 174 254 b 583 889 174 718 349 889 b 990 486 817 889 990 718 b 583 83 990 254 817 83 z "},"Ȏ":{"ha":1165,"x_min":0,"x_max":0,"o":"m 372 1051 l 442 1051 b 583 1169 444 1124 506 1169 b 725 1051 661 1169 722 1124 l 794 1051 b 583 1229 790 1163 700 1229 b 372 1051 467 1229 376 1163 z m 583 -8 b 1093 486 875 -8 1093 201 b 583 981 1093 771 875 981 b 72 486 289 981 72 769 b 583 -8 72 203 289 -8 z m 583 83 b 174 486 349 83 174 254 b 583 889 174 718 349 889 b 990 486 817 889 990 718 b 583 83 990 254 817 83 z "},"Ō":{"ha":1165,"x_min":0,"x_max":0,"o":"m 369 1104 l 797 1104 l 797 1169 l 369 1169 z m 583 -8 b 1093 486 875 -8 1093 201 b 583 981 1093 771 875 981 b 72 486 289 981 72 769 b 583 -8 72 203 289 -8 z m 583 83 b 174 486 349 83 174 254 b 583 889 174 718 349 889 b 990 486 817 889 990 718 b 583 83 990 254 817 83 z "},"Ṓ":{"ha":1165,"x_min":0,"x_max":0,"o":"m 499 1235 l 586 1235 l 786 1386 l 667 1386 z m 369 1085 l 797 1085 l 797 1147 l 369 1147 z m 583 -8 b 1093 486 875 -8 1093 201 b 583 981 1093 771 875 981 b 72 486 289 981 72 769 b 583 -8 72 203 289 -8 z m 583 83 b 174 486 349 83 174 254 b 583 889 174 718 349 889 b 990 486 817 889 990 718 b 583 83 990 254 817 83 z "},"Ṑ":{"ha":1165,"x_min":0,"x_max":0,"o":"m 582 1235 l 668 1235 l 501 1386 l 381 1386 z m 369 1085 l 797 1085 l 797 1147 l 369 1147 z m 583 -8 b 1093 486 875 -8 1093 201 b 583 981 1093 771 875 981 b 72 486 289 981 72 769 b 583 -8 72 203 289 -8 z m 583 83 b 174 486 349 83 174 254 b 583 889 174 718 349 889 b 990 486 817 889 990 718 b 583 83 990 254 817 83 z "},"Ǫ":{"ha":1165,"x_min":0,"x_max":0,"o":"m 583 981 b 72 486 290 981 72 771 b 544 -7 72 214 271 11 b 436 -174 463 -60 436 -121 b 589 -306 436 -254 494 -306 b 707 -272 632 -306 674 -294 l 683 -218 b 599 -244 661 -236 629 -244 b 508 -167 546 -244 508 -218 b 717 8 508 -89 596 -21 b 1093 486 925 57 1093 233 b 583 981 1093 771 875 981 z m 583 83 b 174 486 349 83 174 254 b 583 889 174 718 349 889 b 990 486 817 889 990 718 b 583 83 990 254 817 83 z "},"Ø":{"ha":1165,"x_min":0,"x_max":0,"o":"m 906 876 l 1046 1069 l 964 1069 l 850 913 b 583 981 774 956 683 981 b 72 486 289 981 72 769 b 260 96 72 324 143 185 l 121 -97 l 204 -97 l 317 58 b 583 -8 393 15 483 -8 b 1093 486 875 -8 1093 201 b 906 876 1093 649 1022 788 z m 174 486 b 583 889 174 718 349 889 b 794 835 663 889 733 869 l 317 174 b 174 486 228 246 174 357 z m 583 83 b 372 136 506 83 433 103 l 850 797 b 990 486 936 725 990 615 b 583 83 990 254 817 83 z "},"Ǿ":{"ha":1165,"x_min":0,"x_max":0,"o":"m 815 1224 l 683 1224 l 493 1051 l 590 1051 z m 906 876 l 1046 1069 l 964 1069 l 850 913 b 583 981 774 956 683 981 b 72 486 289 981 72 769 b 260 96 72 324 143 185 l 121 -97 l 204 -97 l 317 58 b 583 -8 393 15 483 -8 b 1093 486 875 -8 1093 201 b 906 876 1093 649 1022 788 z m 174 486 b 583 889 174 718 349 889 b 794 835 663 889 733 869 l 317 174 b 174 486 228 246 174 357 z m 583 83 b 372 136 506 83 433 103 l 850 797 b 990 486 936 725 990 615 b 583 83 990 254 817 83 z "},"Õ":{"ha":1165,"x_min":0,"x_max":0,"o":"m 678 1060 b 803 1210 751 1060 800 1119 l 743 1210 b 671 1124 740 1157 713 1124 b 489 1218 617 1124 575 1218 b 364 1065 415 1218 367 1158 l 424 1065 b 496 1154 426 1121 454 1154 b 678 1060 551 1154 592 1060 z m 583 -8 b 1093 486 875 -8 1093 201 b 583 981 1093 771 875 981 b 72 486 289 981 72 769 b 583 -8 72 203 289 -8 z m 583 83 b 174 486 349 83 174 254 b 583 889 174 718 349 889 b 990 486 817 889 990 718 b 583 83 990 254 817 83 z "},"Ṍ":{"ha":1165,"x_min":0,"x_max":0,"o":"m 499 1235 l 586 1235 l 786 1386 l 667 1386 z m 676 1063 b 799 1189 750 1063 797 1111 l 740 1189 b 672 1121 739 1147 715 1121 b 492 1196 617 1121 574 1196 b 368 1068 418 1196 369 1149 l 428 1068 b 494 1138 429 1113 453 1138 b 676 1063 550 1138 592 1063 z m 583 -8 b 1093 486 875 -8 1093 201 b 583 981 1093 771 875 981 b 72 486 289 981 72 769 b 583 -8 72 203 289 -8 z m 583 83 b 174 486 349 83 174 254 b 583 889 174 718 349 889 b 990 486 817 889 990 718 b 583 83 990 254 817 83 z "},"Ṏ":{"ha":1165,"x_min":0,"x_max":0,"o":"m 461 1267 b 519 1325 493 1267 519 1292 b 461 1382 519 1357 493 1382 b 403 1325 429 1382 403 1357 b 461 1267 403 1292 429 1267 z m 706 1267 b 764 1325 738 1267 764 1292 b 706 1382 764 1357 738 1382 b 647 1325 675 1382 647 1357 b 706 1267 647 1292 675 1267 z m 676 1063 b 799 1189 750 1063 797 1111 l 740 1189 b 672 1121 739 1147 715 1121 b 492 1196 617 1121 574 1196 b 368 1068 418 1196 369 1149 l 428 1068 b 494 1138 429 1113 453 1138 b 676 1063 550 1138 592 1063 z m 583 -8 b 1093 486 875 -8 1093 201 b 583 981 1093 771 875 981 b 72 486 289 981 72 769 b 583 -8 72 203 289 -8 z m 583 83 b 174 486 349 83 174 254 b 583 889 174 718 349 889 b 990 486 817 889 990 718 b 583 83 990 254 817 83 z "},"Ȭ":{"ha":1165,"x_min":0,"x_max":0,"o":"m 369 1268 l 797 1268 l 797 1331 l 369 1331 z m 676 1063 b 799 1189 750 1063 797 1111 l 740 1189 b 672 1121 739 1147 715 1121 b 492 1196 617 1121 574 1196 b 368 1068 418 1196 369 1149 l 428 1068 b 494 1138 429 1113 453 1138 b 676 1063 550 1138 592 1063 z m 583 -8 b 1093 486 875 -8 1093 201 b 583 981 1093 771 875 981 b 72 486 289 981 72 769 b 583 -8 72 203 289 -8 z m 583 83 b 174 486 349 83 174 254 b 583 889 174 718 349 889 b 990 486 817 889 990 718 b 583 83 990 254 817 83 z "},"Œ":{"ha":1557,"x_min":0,"x_max":0,"o":"m 889 89 l 889 450 l 1392 450 l 1392 538 l 889 538 l 889 883 l 1453 883 l 1453 972 l 593 972 b 72 485 282 972 72 772 b 593 0 72 200 282 0 l 1474 0 l 1474 89 z m 597 89 b 174 485 340 89 174 251 b 597 883 174 719 340 883 l 786 883 l 786 89 z "},"P":{"ha":997,"x_min":0,"x_max":0,"o":"m 522 972 l 158 972 l 158 0 l 261 0 l 261 307 l 522 307 b 919 639 769 307 919 432 b 522 972 919 847 769 972 z m 519 397 l 261 397 l 261 883 l 519 883 b 817 639 714 883 817 794 b 519 397 817 486 714 397 z "},"Þ":{"ha":997,"x_min":0,"x_max":0,"o":"m 522 846 l 261 846 l 261 972 l 158 972 l 158 0 l 261 0 l 261 179 l 522 179 b 919 513 769 179 919 304 b 522 846 919 721 769 846 z m 519 269 l 261 269 l 261 757 l 519 757 b 817 513 714 757 817 668 b 519 269 817 358 714 269 z "},"Q":{"ha":1165,"x_min":0,"x_max":0,"o":"m 1088 -22 b 903 -111 1036 -82 976 -111 b 692 1 833 -111 765 -76 b 1093 486 928 47 1093 238 b 583 981 1093 771 875 981 b 72 486 289 981 72 769 b 565 -8 72 208 281 0 b 901 -193 693 -142 788 -193 b 1138 -82 996 -193 1078 -154 z m 174 486 b 583 889 174 717 349 889 b 990 486 817 889 990 717 b 583 83 990 256 817 83 b 174 486 349 83 174 256 z "},"R":{"ha":1004,"x_min":0,"x_max":0,"o":"m 935 0 l 697 333 b 919 639 839 379 919 486 b 522 972 919 847 769 972 l 158 972 l 158 0 l 261 0 l 261 308 l 522 308 b 600 313 550 308 575 310 l 822 0 z m 519 396 l 261 396 l 261 883 l 519 883 b 817 639 714 883 817 794 b 519 396 817 486 714 396 z "},"Ŕ":{"ha":1004,"x_min":0,"x_max":0,"o":"m 744 1224 l 613 1224 l 422 1051 l 519 1051 z m 935 0 l 697 333 b 919 639 839 379 919 486 b 522 972 919 847 769 972 l 158 972 l 158 0 l 261 0 l 261 308 l 522 308 b 600 313 550 308 575 310 l 822 0 z m 519 396 l 261 396 l 261 883 l 519 883 b 817 639 714 883 817 794 b 519 396 817 486 714 396 z "},"Ř":{"ha":1004,"x_min":0,"x_max":0,"o":"m 563 1051 l 742 1224 l 650 1224 l 513 1110 l 375 1224 l 283 1224 l 463 1051 z m 935 0 l 697 333 b 919 639 839 379 919 486 b 522 972 919 847 769 972 l 158 972 l 158 0 l 261 0 l 261 308 l 522 308 b 600 313 550 308 575 310 l 822 0 z m 519 396 l 261 396 l 261 883 l 519 883 b 817 639 714 883 817 794 b 519 396 817 486 714 396 z "},"Ŗ":{"ha":1004,"x_min":0,"x_max":0,"o":"m 935 0 l 697 333 b 919 639 839 379 919 486 b 522 972 919 847 769 972 l 158 972 l 158 0 l 261 0 l 261 308 l 522 308 b 600 313 550 308 575 310 l 822 0 z m 519 396 l 261 396 l 261 883 l 519 883 b 817 639 714 883 817 794 b 519 396 817 486 714 396 z m 513 -144 b 453 -199 476 -144 453 -168 b 493 -250 453 -225 468 -244 l 464 -364 l 518 -364 l 557 -261 b 572 -199 568 -236 572 -217 b 513 -144 572 -169 549 -144 z "},"Ȑ":{"ha":1004,"x_min":0,"x_max":0,"o":"m 443 1051 l 310 1224 l 200 1224 l 356 1051 z m 669 1051 l 535 1224 l 425 1224 l 582 1051 z m 935 0 l 697 333 b 919 639 839 379 919 486 b 522 972 919 847 769 972 l 158 972 l 158 0 l 261 0 l 261 308 l 522 308 b 600 313 550 308 575 310 l 822 0 z m 519 396 l 261 396 l 261 883 l 519 883 b 817 639 714 883 817 794 b 519 396 817 486 714 396 z "},"Ṛ":{"ha":1004,"x_min":0,"x_max":0,"o":"m 935 0 l 697 333 b 919 639 839 379 919 486 b 522 972 919 847 769 972 l 158 972 l 158 0 l 261 0 l 261 308 l 522 308 b 600 313 550 308 575 310 l 822 0 z m 519 396 l 261 396 l 261 883 l 519 883 b 817 639 714 883 817 794 b 519 396 817 486 714 396 z m 513 -144 b 453 -204 479 -144 453 -169 b 513 -264 453 -239 479 -264 b 572 -204 546 -264 572 -239 b 513 -144 572 -169 546 -144 z "},"Ȓ":{"ha":1004,"x_min":0,"x_max":0,"o":"m 513 1169 b 654 1051 590 1169 651 1124 l 724 1051 b 513 1229 719 1163 629 1229 b 301 1051 396 1229 306 1163 l 371 1051 b 513 1169 374 1124 435 1169 z m 935 0 l 697 333 b 919 639 839 379 919 486 b 522 972 919 847 769 972 l 158 972 l 158 0 l 261 0 l 261 308 l 522 308 b 600 313 550 308 575 310 l 822 0 z m 519 396 l 261 396 l 261 883 l 519 883 b 817 639 714 883 817 794 b 519 396 817 486 714 396 z "},"Ṟ":{"ha":1004,"x_min":0,"x_max":0,"o":"m 697 333 b 919 639 839 379 919 486 b 522 972 919 847 769 972 l 158 972 l 158 0 l 261 0 l 261 308 l 522 308 b 600 313 550 308 575 310 l 822 0 l 935 0 z m 519 396 l 261 396 l 261 883 l 519 883 b 817 639 714 883 817 794 b 519 396 817 486 714 396 z m 299 -235 l 726 -235 l 726 -169 l 299 -169 z "},"S":{"ha":854,"x_min":0,"x_max":0,"o":"m 426 -8 b 789 257 675 -8 789 114 b 190 717 789 611 190 450 b 447 893 190 814 269 893 b 714 813 533 893 631 867 l 749 894 b 447 981 671 949 557 981 b 89 714 200 981 89 857 b 688 251 89 354 688 518 b 426 79 688 156 608 79 b 106 197 299 79 175 129 l 65 118 b 426 -8 138 43 281 -8 z "},"Ś":{"ha":854,"x_min":0,"x_max":0,"o":"m 356 1051 l 453 1051 l 678 1224 l 546 1224 z m 426 -8 b 789 257 675 -8 789 114 b 190 717 789 611 190 450 b 447 893 190 814 269 893 b 714 813 533 893 631 867 l 749 894 b 447 981 671 949 557 981 b 89 714 200 981 89 857 b 688 251 89 354 688 518 b 426 79 688 156 608 79 b 106 197 299 79 175 129 l 65 118 b 426 -8 138 43 281 -8 z "},"Ṥ":{"ha":854,"x_min":0,"x_max":0,"o":"m 446 1265 b 506 1325 479 1265 506 1290 b 446 1385 506 1360 479 1385 b 386 1325 413 1385 386 1360 b 446 1265 386 1290 413 1265 z m 361 1051 l 449 1051 l 649 1203 l 529 1203 z m 426 -8 b 789 257 675 -8 789 114 b 190 717 789 611 190 450 b 447 893 190 814 269 893 b 714 813 533 893 631 867 l 749 894 b 447 981 671 949 557 981 b 89 714 200 981 89 857 b 688 251 89 354 688 518 b 426 79 688 156 608 79 b 106 197 299 79 175 129 l 65 118 b 426 -8 138 43 281 -8 z "},"Ꞌ":{"ha":335,"x_min":0,"x_max":0,"o":"m 117 414 l 207 414 l 218 972 l 117 972 z "},"Š":{"ha":854,"x_min":0,"x_max":0,"o":"m 496 1051 l 675 1224 l 583 1224 l 446 1110 l 308 1224 l 217 1224 l 396 1051 z m 190 717 b 447 893 190 814 269 893 b 714 813 533 893 631 867 l 749 894 b 447 981 671 949 557 981 b 89 714 200 981 89 857 b 688 251 89 354 688 518 b 426 79 688 156 608 79 b 106 197 299 79 175 129 l 65 118 b 426 -8 138 43 281 -8 b 789 257 675 -8 789 114 b 190 717 789 611 190 450 z "},"Ṧ":{"ha":854,"x_min":0,"x_max":0,"o":"m 446 1233 b 506 1293 479 1233 506 1258 b 446 1353 506 1328 479 1353 b 386 1293 413 1353 386 1328 b 446 1233 386 1258 413 1233 z m 494 1051 l 675 1182 l 581 1182 l 446 1100 l 311 1182 l 217 1182 l 397 1051 z m 190 717 b 447 893 190 814 269 893 b 714 813 533 893 631 867 l 749 894 b 447 981 671 949 557 981 b 89 714 200 981 89 857 b 688 251 89 354 688 518 b 426 79 688 156 608 79 b 106 197 299 79 175 129 l 65 118 b 426 -8 138 43 281 -8 b 789 257 675 -8 789 114 b 190 717 789 611 190 450 z "},"Ş":{"ha":854,"x_min":0,"x_max":0,"o":"m 789 257 b 190 717 789 611 190 450 b 447 893 190 814 269 893 b 714 813 533 893 631 867 l 749 894 b 447 981 671 949 557 981 b 89 714 200 981 89 857 b 688 251 89 354 688 518 b 426 79 688 156 608 79 b 106 197 299 79 175 129 l 65 118 b 411 -8 135 46 271 -4 l 382 -118 l 414 -118 b 500 -182 472 -118 500 -144 b 414 -247 500 -224 469 -247 b 322 -221 381 -247 350 -239 l 299 -274 b 415 -306 332 -296 369 -306 b 572 -185 508 -306 572 -260 b 454 -72 572 -124 531 -79 l 471 -7 b 789 257 689 7 789 122 z "},"Ŝ":{"ha":854,"x_min":0,"x_max":0,"o":"m 446 1167 l 583 1051 l 675 1051 l 496 1224 l 396 1224 l 217 1051 l 308 1051 z m 190 717 b 447 893 190 814 269 893 b 714 813 533 893 631 867 l 749 894 b 447 981 671 949 557 981 b 89 714 200 981 89 857 b 688 251 89 354 688 518 b 426 79 688 156 608 79 b 106 197 299 79 175 129 l 65 118 b 426 -8 138 43 281 -8 b 789 257 675 -8 789 114 b 190 717 789 611 190 450 z "},"Ș":{"ha":854,"x_min":0,"x_max":0,"o":"m 190 717 b 447 893 190 814 269 893 b 714 813 533 893 631 867 l 749 894 b 447 981 671 949 557 981 b 89 714 200 981 89 857 b 688 251 89 354 688 518 b 426 79 688 156 608 79 b 106 197 299 79 175 129 l 65 118 b 426 -8 138 43 281 -8 b 789 257 675 -8 789 114 b 190 717 789 611 190 450 z m 446 -144 b 386 -199 410 -144 386 -168 b 426 -250 386 -225 401 -244 l 397 -364 l 451 -364 l 490 -261 b 506 -199 501 -236 506 -217 b 446 -144 506 -169 482 -144 z "},"Ṡ":{"ha":854,"x_min":0,"x_max":0,"o":"m 446 1083 b 513 1150 483 1083 513 1113 b 446 1217 513 1188 483 1217 b 379 1150 408 1217 379 1188 b 446 1083 379 1113 408 1083 z m 426 -8 b 789 257 675 -8 789 114 b 190 717 789 611 190 450 b 447 893 190 814 269 893 b 714 813 533 893 631 867 l 749 894 b 447 981 671 949 557 981 b 89 714 200 981 89 857 b 688 251 89 354 688 518 b 426 79 688 156 608 79 b 106 197 299 79 175 129 l 65 118 b 426 -8 138 43 281 -8 z "},"Ṣ":{"ha":854,"x_min":0,"x_max":0,"o":"m 426 -8 b 789 257 675 -8 789 114 b 190 717 789 611 190 450 b 447 893 190 814 269 893 b 714 813 533 893 631 867 l 749 894 b 447 981 671 949 557 981 b 89 714 200 981 89 857 b 688 251 89 354 688 518 b 426 79 688 156 608 79 b 106 197 299 79 175 129 l 65 118 b 426 -8 138 43 281 -8 z m 446 -264 b 506 -204 479 -264 506 -239 b 446 -144 506 -169 479 -144 b 386 -204 413 -144 386 -169 b 446 -264 386 -239 413 -264 z "},"Ṩ":{"ha":854,"x_min":0,"x_max":0,"o":"m 446 1083 b 513 1150 483 1083 513 1113 b 446 1217 513 1188 483 1217 b 379 1150 408 1217 379 1188 b 446 1083 379 1113 408 1083 z m 426 -8 b 789 257 675 -8 789 114 b 190 717 789 611 190 450 b 447 893 190 814 269 893 b 714 813 533 893 631 867 l 749 894 b 447 981 671 949 557 981 b 89 714 200 981 89 857 b 688 251 89 354 688 518 b 426 79 688 156 608 79 b 106 197 299 79 175 129 l 65 118 b 426 -8 138 43 281 -8 z m 446 -264 b 506 -204 479 -264 506 -239 b 446 -144 506 -169 479 -144 b 386 -204 413 -144 386 -169 b 446 -264 386 -239 413 -264 z "},"ẞ":{"ha":1050,"x_min":0,"x_max":0,"o":"m 649 564 l 646 564 l 883 822 l 883 889 b 564 986 803 954 686 986 b 150 571 304 986 150 829 l 150 0 l 253 0 l 253 567 b 565 899 253 782 365 899 b 793 844 654 899 729 882 l 494 518 l 515 467 b 633 482 549 476 593 482 b 869 281 778 482 869 414 b 638 79 869 147 779 79 b 468 114 574 79 517 90 l 450 28 b 649 -8 507 3 565 -8 b 974 278 838 -8 974 92 b 649 564 974 464 836 564 z "},"Ə":{"ha":1135,"x_min":0,"x_max":0,"o":"m 557 981 b 185 847 408 981 275 933 l 246 776 b 557 889 331 854 439 889 b 958 521 774 889 943 732 l 72 521 l 72 490 b 568 -8 72 203 282 -8 b 1063 488 849 -8 1063 207 b 557 981 1063 771 849 981 z m 568 81 b 176 433 354 81 199 224 l 957 433 b 568 81 936 226 778 81 z "},"T":{"ha":797,"x_min":0,"x_max":0,"o":"m 347 0 l 450 0 l 450 883 l 792 883 l 792 972 l 6 972 l 6 883 l 347 883 z "},"Ŧ":{"ha":797,"x_min":0,"x_max":0,"o":"m 792 883 l 792 972 l 6 972 l 6 883 l 347 883 l 347 521 l 129 521 l 129 439 l 347 439 l 347 0 l 450 0 l 450 439 l 668 439 l 668 521 l 450 521 l 450 883 z "},"Ť":{"ha":797,"x_min":0,"x_max":0,"o":"m 449 1051 l 628 1224 l 536 1224 l 399 1110 l 261 1224 l 169 1224 l 349 1051 z m 6 972 l 6 883 l 347 883 l 347 0 l 450 0 l 450 883 l 792 883 l 792 972 z "},"Ţ":{"ha":797,"x_min":0,"x_max":0,"o":"m 450 0 l 450 883 l 792 883 l 792 972 l 6 972 l 6 883 l 347 883 l 347 0 l 365 0 l 335 -118 l 367 -118 b 453 -182 425 -118 453 -144 b 367 -247 453 -224 422 -247 b 275 -221 333 -247 303 -239 l 251 -274 b 368 -306 285 -296 322 -306 b 525 -185 461 -306 525 -260 b 407 -72 525 -124 483 -79 l 425 0 z "},"Ț":{"ha":797,"x_min":0,"x_max":0,"o":"m 6 972 l 6 883 l 347 883 l 347 0 l 450 0 l 450 883 l 792 883 l 792 972 z m 399 -144 b 339 -199 363 -144 339 -168 b 379 -250 339 -225 354 -244 l 350 -364 l 404 -364 l 443 -261 b 458 -199 454 -236 458 -217 b 399 -144 458 -169 435 -144 z "},"Ṭ":{"ha":797,"x_min":0,"x_max":0,"o":"m 347 0 l 450 0 l 450 883 l 792 883 l 792 972 l 6 972 l 6 883 l 347 883 z m 399 -264 b 458 -204 432 -264 458 -239 b 399 -144 458 -169 432 -144 b 339 -204 365 -144 339 -169 b 399 -264 339 -239 365 -264 z "},"Ṯ":{"ha":797,"x_min":0,"x_max":0,"o":"m 347 0 l 450 0 l 450 883 l 792 883 l 792 972 l 6 972 l 6 883 l 347 883 z m 185 -235 l 613 -235 l 613 -169 l 185 -169 z "},"U":{"ha":1100,"x_min":0,"x_max":0,"o":"m 550 -8 b 949 415 799 -8 949 136 l 949 972 l 849 972 l 849 419 b 550 83 849 189 740 83 b 253 419 361 83 253 189 l 253 972 l 150 972 l 150 415 b 550 -8 150 136 301 -8 z "},"Ú":{"ha":1100,"x_min":0,"x_max":0,"o":"m 460 1051 l 557 1051 l 782 1224 l 650 1224 z m 550 -8 b 949 415 799 -8 949 136 l 949 972 l 849 972 l 849 419 b 550 83 849 189 740 83 b 253 419 361 83 253 189 l 253 972 l 150 972 l 150 415 b 550 -8 150 136 301 -8 z "},"Ŭ":{"ha":1100,"x_min":0,"x_max":0,"o":"m 550 1044 b 761 1224 667 1044 757 1113 l 692 1224 b 550 1106 689 1150 628 1106 b 408 1224 472 1106 411 1150 l 339 1224 b 550 1044 343 1113 433 1044 z m 550 -8 b 949 415 799 -8 949 136 l 949 972 l 849 972 l 849 419 b 550 83 849 189 740 83 b 253 419 361 83 253 189 l 253 972 l 150 972 l 150 415 b 550 -8 150 136 301 -8 z "},"Ǔ":{"ha":1100,"x_min":0,"x_max":0,"o":"m 600 1051 l 779 1224 l 688 1224 l 550 1110 l 413 1224 l 321 1224 l 500 1051 z m 849 972 l 849 419 b 550 83 849 189 740 83 b 253 419 361 83 253 189 l 253 972 l 150 972 l 150 415 b 550 -8 150 136 301 -8 b 949 415 799 -8 949 136 l 949 972 z "},"Û":{"ha":1100,"x_min":0,"x_max":0,"o":"m 550 1167 l 688 1051 l 779 1051 l 600 1224 l 500 1224 l 321 1051 l 413 1051 z m 849 972 l 849 419 b 550 83 849 189 740 83 b 253 419 361 83 253 189 l 253 972 l 150 972 l 150 415 b 550 -8 150 136 301 -8 b 949 415 799 -8 949 136 l 949 972 z "},"Ȕ":{"ha":1100,"x_min":0,"x_max":0,"o":"m 393 1051 l 481 1051 l 347 1224 l 238 1224 z m 619 1051 l 707 1051 l 572 1224 l 463 1224 z m 550 -8 b 949 415 799 -8 949 136 l 949 972 l 849 972 l 849 419 b 550 83 849 189 740 83 b 253 419 361 83 253 189 l 253 972 l 150 972 l 150 415 b 550 -8 150 136 301 -8 z "},"Ü":{"ha":1100,"x_min":0,"x_max":0,"o":"m 426 1083 b 486 1143 458 1083 486 1108 b 426 1203 486 1176 458 1203 b 367 1143 393 1203 367 1176 b 426 1083 367 1108 393 1083 z m 674 1083 b 733 1143 707 1083 733 1108 b 674 1203 733 1176 707 1203 b 614 1143 642 1203 614 1176 b 674 1083 614 1108 642 1083 z m 550 -8 b 949 415 799 -8 949 136 l 949 972 l 849 972 l 849 419 b 550 83 849 189 740 83 b 253 419 361 83 253 189 l 253 972 l 150 972 l 150 415 b 550 -8 150 136 301 -8 z "},"Ụ":{"ha":1100,"x_min":0,"x_max":0,"o":"m 550 -8 b 949 415 799 -8 949 136 l 949 972 l 849 972 l 849 419 b 550 83 849 189 740 83 b 253 419 361 83 253 189 l 253 972 l 150 972 l 150 415 b 550 -8 150 136 301 -8 z m 550 -264 b 610 -204 583 -264 610 -239 b 550 -144 610 -169 583 -144 b 490 -204 517 -144 490 -169 b 550 -264 490 -239 517 -264 z "},"Ù":{"ha":1100,"x_min":0,"x_max":0,"o":"m 543 1051 l 640 1051 l 450 1224 l 318 1224 z m 550 -8 b 949 415 799 -8 949 136 l 949 972 l 849 972 l 849 419 b 550 83 849 189 740 83 b 253 419 361 83 253 189 l 253 972 l 150 972 l 150 415 b 550 -8 150 136 301 -8 z "},"Ủ":{"ha":1100,"x_min":0,"x_max":0,"o":"m 568 1042 b 679 1190 643 1076 679 1125 b 547 1310 679 1264 625 1310 b 432 1274 507 1310 463 1297 l 456 1225 b 539 1251 483 1243 510 1251 b 615 1183 583 1251 615 1222 b 533 1085 615 1142 589 1110 z m 550 -8 b 949 415 799 -8 949 136 l 949 972 l 849 972 l 849 419 b 550 83 849 189 740 83 b 253 419 361 83 253 189 l 253 972 l 150 972 l 150 415 b 550 -8 150 136 301 -8 z "},"Ư":{"ha":1107,"x_min":0,"x_max":0,"o":"m 1088 1063 b 1051 1179 1088 1107 1074 1149 l 986 1154 b 1014 1065 1003 1131 1014 1100 b 922 972 1014 1014 986 972 l 849 972 l 849 419 b 550 83 849 189 740 83 b 253 419 361 83 253 189 l 253 972 l 150 972 l 150 415 b 550 -8 150 136 301 -8 b 949 415 799 -8 949 136 l 949 897 b 1088 1063 1040 907 1088 972 z "},"Ứ":{"ha":1107,"x_min":0,"x_max":0,"o":"m 782 1224 l 650 1224 l 460 1051 l 557 1051 z m 1088 1063 b 1051 1179 1088 1107 1074 1149 l 986 1154 b 1014 1065 1003 1131 1014 1100 b 922 972 1014 1014 986 972 l 849 972 l 849 419 b 550 83 849 189 740 83 b 253 419 361 83 253 189 l 253 972 l 150 972 l 150 415 b 550 -8 150 136 301 -8 b 949 415 799 -8 949 136 l 949 897 b 1088 1063 1040 907 1088 972 z "},"Ự":{"ha":1107,"x_min":0,"x_max":0,"o":"m 1088 1063 b 1051 1179 1088 1107 1074 1149 l 986 1154 b 1014 1065 1003 1131 1014 1100 b 922 972 1014 1014 986 972 l 849 972 l 849 419 b 550 83 849 189 740 83 b 253 419 361 83 253 189 l 253 972 l 150 972 l 150 415 b 550 -8 150 136 301 -8 b 949 415 799 -8 949 136 l 949 897 b 1088 1063 1040 907 1088 972 z m 550 -144 b 490 -204 517 -144 490 -169 b 550 -264 490 -239 517 -264 b 610 -204 583 -264 610 -239 b 550 -144 610 -169 583 -144 z "},"Ừ":{"ha":1107,"x_min":0,"x_max":0,"o":"m 640 1051 l 450 1224 l 318 1224 l 543 1051 z m 1088 1063 b 1051 1179 1088 1107 1074 1149 l 986 1154 b 1014 1065 1003 1131 1014 1100 b 922 972 1014 1014 986 972 l 849 972 l 849 419 b 550 83 849 189 740 83 b 253 419 361 83 253 189 l 253 972 l 150 972 l 150 415 b 550 -8 150 136 301 -8 b 949 415 799 -8 949 136 l 949 897 b 1088 1063 1040 907 1088 972 z "},"Ử":{"ha":1107,"x_min":0,"x_max":0,"o":"m 539 1251 b 615 1183 583 1251 615 1222 b 533 1085 615 1142 589 1110 l 568 1042 b 679 1190 643 1076 679 1125 b 547 1310 679 1264 625 1310 b 432 1274 507 1310 463 1297 l 456 1225 b 539 1251 483 1243 510 1251 z m 1088 1063 b 1051 1179 1088 1107 1074 1149 l 986 1154 b 1014 1065 1003 1131 1014 1100 b 922 972 1014 1014 986 972 l 849 972 l 849 419 b 550 83 849 189 740 83 b 253 419 361 83 253 189 l 253 972 l 150 972 l 150 415 b 550 -8 150 136 301 -8 b 949 415 799 -8 949 136 l 949 897 b 1088 1063 1040 907 1088 972 z "},"Ữ":{"ha":1107,"x_min":0,"x_max":0,"o":"m 463 1154 b 644 1060 518 1154 558 1060 b 769 1210 718 1060 767 1119 l 710 1210 b 638 1124 707 1157 679 1124 b 456 1218 583 1124 542 1218 b 331 1065 382 1218 333 1158 l 390 1065 b 463 1154 393 1121 421 1154 z m 1088 1063 b 1051 1179 1088 1107 1074 1149 l 986 1154 b 1014 1065 1003 1131 1014 1100 b 922 972 1014 1014 986 972 l 849 972 l 849 419 b 550 83 849 189 740 83 b 253 419 361 83 253 189 l 253 972 l 150 972 l 150 415 b 550 -8 150 136 301 -8 b 949 415 799 -8 949 136 l 949 897 b 1088 1063 1040 907 1088 972 z "},"Ű":{"ha":1100,"x_min":0,"x_max":0,"o":"m 393 1051 l 481 1051 l 638 1224 l 528 1224 z m 619 1051 l 707 1051 l 863 1224 l 753 1224 z m 550 -8 b 949 415 799 -8 949 136 l 949 972 l 849 972 l 849 419 b 550 83 849 189 740 83 b 253 419 361 83 253 189 l 253 972 l 150 972 l 150 415 b 550 -8 150 136 301 -8 z "},"Ȗ":{"ha":1100,"x_min":0,"x_max":0,"o":"m 339 1051 l 408 1051 b 550 1169 411 1124 472 1169 b 692 1051 628 1169 689 1124 l 761 1051 b 550 1229 757 1163 667 1229 b 339 1051 433 1229 343 1163 z m 550 -8 b 949 415 799 -8 949 136 l 949 972 l 849 972 l 849 419 b 550 83 849 189 740 83 b 253 419 361 83 253 189 l 253 972 l 150 972 l 150 415 b 550 -8 150 136 301 -8 z "},"Ū":{"ha":1100,"x_min":0,"x_max":0,"o":"m 336 1104 l 764 1104 l 764 1169 l 336 1169 z m 550 -8 b 949 415 799 -8 949 136 l 949 972 l 849 972 l 849 419 b 550 83 849 189 740 83 b 253 419 361 83 253 189 l 253 972 l 150 972 l 150 415 b 550 -8 150 136 301 -8 z "},"Ṻ":{"ha":1100,"x_min":0,"x_max":0,"o":"m 428 1268 b 486 1326 460 1268 486 1293 b 428 1383 486 1358 460 1383 b 369 1326 396 1383 369 1358 b 428 1268 369 1293 396 1268 z m 672 1268 b 731 1326 704 1268 731 1293 b 672 1383 731 1358 704 1383 b 614 1326 642 1383 614 1358 b 672 1268 614 1293 642 1268 z m 336 1086 l 764 1086 l 764 1149 l 336 1149 z m 550 -8 b 949 415 799 -8 949 136 l 949 972 l 849 972 l 849 419 b 550 83 849 189 740 83 b 253 419 361 83 253 189 l 253 972 l 150 972 l 150 415 b 550 -8 150 136 301 -8 z "},"Ų":{"ha":1100,"x_min":0,"x_max":0,"o":"m 849 972 l 849 419 b 550 83 849 189 740 83 b 253 419 361 83 253 189 l 253 972 l 150 972 l 150 415 b 528 -8 150 144 293 0 b 421 -174 446 -60 421 -121 b 575 -306 421 -254 481 -306 b 692 -272 618 -306 660 -294 l 669 -218 b 585 -244 647 -236 615 -244 b 494 -167 532 -244 494 -218 b 700 11 494 -118 526 -49 b 949 415 854 64 949 190 l 949 972 z "},"Ů":{"ha":1100,"x_min":0,"x_max":0,"o":"m 549 1068 b 694 1210 632 1068 694 1132 b 549 1356 694 1289 632 1356 b 404 1210 467 1356 404 1289 b 549 1068 404 1132 465 1068 z m 549 1117 b 456 1210 493 1117 456 1157 b 549 1307 456 1265 494 1307 b 643 1210 603 1307 643 1264 b 549 1117 643 1157 604 1117 z m 550 -8 b 949 415 799 -8 949 136 l 949 972 l 849 972 l 849 419 b 550 83 849 189 740 83 b 253 419 361 83 253 189 l 253 972 l 150 972 l 150 415 b 550 -8 150 136 301 -8 z "},"Ũ":{"ha":1100,"x_min":0,"x_max":0,"o":"m 644 1060 b 769 1210 718 1060 767 1119 l 710 1210 b 638 1124 707 1157 679 1124 b 456 1218 583 1124 542 1218 b 331 1065 382 1218 333 1158 l 390 1065 b 463 1154 393 1121 421 1154 b 644 1060 518 1154 558 1060 z m 550 -8 b 949 415 799 -8 949 136 l 949 972 l 849 972 l 849 419 b 550 83 849 189 740 83 b 253 419 361 83 253 189 l 253 972 l 150 972 l 150 415 b 550 -8 150 136 301 -8 z "},"Ṹ":{"ha":1100,"x_min":0,"x_max":0,"o":"m 465 1235 l 553 1235 l 753 1386 l 633 1386 z m 643 1063 b 765 1189 717 1063 764 1111 l 707 1189 b 639 1121 706 1147 682 1121 b 458 1196 583 1121 540 1196 b 335 1068 385 1196 336 1149 l 394 1068 b 461 1138 396 1113 419 1138 b 643 1063 517 1138 558 1063 z m 550 -8 b 949 415 799 -8 949 136 l 949 972 l 849 972 l 849 419 b 550 83 849 189 740 83 b 253 419 361 83 253 189 l 253 972 l 150 972 l 150 415 b 550 -8 150 136 301 -8 z "},"V":{"ha":969,"x_min":0,"x_max":0,"o":"m 863 972 l 488 128 l 115 972 l 4 972 l 435 0 l 536 0 l 967 972 z "},"W":{"ha":1543,"x_min":0,"x_max":0,"o":"m 1394 972 l 1110 132 l 824 972 l 728 972 l 438 136 l 157 972 l 51 972 l 379 0 l 486 0 l 772 829 l 1057 0 l 1165 0 l 1493 972 z "},"Ẃ":{"ha":1543,"x_min":0,"x_max":0,"o":"m 1004 1224 l 872 1224 l 682 1051 l 779 1051 z m 1394 972 l 1110 132 l 824 972 l 728 972 l 438 136 l 157 972 l 51 972 l 379 0 l 486 0 l 772 829 l 1057 0 l 1165 0 l 1493 972 z "},"Ŵ":{"ha":1543,"x_min":0,"x_max":0,"o":"m 772 1167 l 910 1051 l 1001 1051 l 822 1224 l 722 1224 l 543 1051 l 635 1051 z m 1394 972 l 1110 132 l 824 972 l 728 972 l 438 136 l 157 972 l 51 972 l 379 0 l 486 0 l 772 829 l 1057 0 l 1165 0 l 1493 972 z "},"Ẅ":{"ha":1543,"x_min":0,"x_max":0,"o":"m 649 1083 b 708 1143 681 1083 708 1108 b 649 1203 708 1176 681 1203 b 589 1143 615 1203 589 1176 b 649 1083 589 1108 615 1083 z m 896 1083 b 956 1143 929 1083 956 1108 b 896 1203 956 1176 929 1203 b 836 1143 864 1203 836 1176 b 896 1083 836 1108 864 1083 z m 1394 972 l 1110 132 l 824 972 l 728 972 l 438 136 l 157 972 l 51 972 l 379 0 l 486 0 l 772 829 l 1057 0 l 1165 0 l 1493 972 z "},"Ẁ":{"ha":1543,"x_min":0,"x_max":0,"o":"m 863 1051 l 672 1224 l 540 1224 l 765 1051 z m 1394 972 l 1110 132 l 824 972 l 728 972 l 438 136 l 157 972 l 51 972 l 379 0 l 486 0 l 772 829 l 1057 0 l 1165 0 l 1493 972 z "},"X":{"ha":911,"x_min":0,"x_max":0,"o":"m 888 0 l 517 503 l 861 972 l 750 972 l 458 575 l 165 972 l 47 972 l 393 500 l 24 0 l 142 0 l 454 428 l 768 0 z "},"Y":{"ha":882,"x_min":0,"x_max":0,"o":"m 881 972 l 778 972 l 444 426 l 111 972 l 1 972 l 390 336 l 390 0 l 492 0 l 492 336 z "},"Ý":{"ha":882,"x_min":0,"x_max":0,"o":"m 672 1224 l 540 1224 l 350 1051 l 447 1051 z m 881 972 l 778 972 l 444 426 l 111 972 l 1 972 l 390 336 l 390 0 l 492 0 l 492 336 z "},"Ŷ":{"ha":882,"x_min":0,"x_max":0,"o":"m 440 1167 l 578 1051 l 669 1051 l 490 1224 l 390 1224 l 211 1051 l 303 1051 z m 881 972 l 778 972 l 444 426 l 111 972 l 1 972 l 390 336 l 390 0 l 492 0 l 492 336 z "},"Ÿ":{"ha":882,"x_min":0,"x_max":0,"o":"m 317 1083 b 376 1143 349 1083 376 1108 b 317 1203 376 1176 349 1203 b 257 1143 283 1203 257 1176 b 317 1083 257 1108 283 1083 z m 564 1083 b 624 1143 597 1083 624 1108 b 564 1203 624 1176 597 1203 b 504 1143 532 1203 504 1176 b 564 1083 504 1108 532 1083 z m 881 972 l 778 972 l 444 426 l 111 972 l 1 972 l 390 336 l 390 0 l 492 0 l 492 336 z "},"Ẏ":{"ha":882,"x_min":0,"x_max":0,"o":"m 440 1083 b 507 1150 478 1083 507 1113 b 440 1217 507 1188 478 1217 b 374 1150 403 1217 374 1188 b 440 1083 374 1113 403 1083 z m 881 972 l 778 972 l 444 426 l 111 972 l 1 972 l 390 336 l 390 0 l 492 0 l 492 336 z "},"Ỵ":{"ha":882,"x_min":0,"x_max":0,"o":"m 390 0 l 492 0 l 492 336 l 881 972 l 778 972 l 444 426 l 111 972 l 1 972 l 390 336 z m 440 -144 b 381 -204 407 -144 381 -169 b 440 -264 381 -239 407 -264 b 500 -204 474 -264 500 -239 b 440 -144 500 -169 474 -144 z "},"Ỳ":{"ha":882,"x_min":0,"x_max":0,"o":"m 531 1051 l 340 1224 l 208 1224 l 433 1051 z m 881 972 l 778 972 l 444 426 l 111 972 l 1 972 l 390 336 l 390 0 l 492 0 l 492 336 z "},"Ỷ":{"ha":882,"x_min":0,"x_max":0,"o":"m 429 1251 b 506 1183 474 1251 506 1222 b 424 1085 506 1142 479 1110 l 458 1042 b 569 1190 533 1076 569 1125 b 438 1310 569 1264 515 1310 b 322 1274 397 1310 353 1297 l 346 1225 b 429 1251 374 1243 400 1251 z m 881 972 l 778 972 l 444 426 l 111 972 l 1 972 l 390 336 l 390 0 l 492 0 l 492 336 z "},"Ȳ":{"ha":882,"x_min":0,"x_max":0,"o":"m 654 1169 l 226 1169 l 226 1104 l 654 1104 z m 881 972 l 778 972 l 444 426 l 111 972 l 1 972 l 390 336 l 390 0 l 492 0 l 492 336 z "},"Ỹ":{"ha":882,"x_min":0,"x_max":0,"o":"m 353 1154 b 535 1060 408 1154 449 1060 b 660 1210 608 1060 657 1119 l 600 1210 b 528 1124 597 1157 569 1124 b 346 1218 474 1124 432 1218 b 221 1065 272 1218 224 1158 l 281 1065 b 353 1154 283 1121 311 1154 z m 881 972 l 778 972 l 444 426 l 111 972 l 1 972 l 390 336 l 390 0 l 492 0 l 492 336 z "},"Z":{"ha":904,"x_min":0,"x_max":0,"o":"m 200 89 l 843 901 l 843 972 l 72 972 l 72 883 l 707 883 l 63 71 l 63 0 l 860 0 l 860 89 z "},"Ź":{"ha":904,"x_min":0,"x_max":0,"o":"m 693 1224 l 561 1224 l 371 1051 l 468 1051 z m 200 89 l 843 901 l 843 972 l 72 972 l 72 883 l 707 883 l 63 71 l 63 0 l 860 0 l 860 89 z "},"Ž":{"ha":904,"x_min":0,"x_max":0,"o":"m 511 1051 l 690 1224 l 599 1224 l 461 1110 l 324 1224 l 232 1224 l 411 1051 z m 200 89 l 843 901 l 843 972 l 72 972 l 72 883 l 707 883 l 63 71 l 63 0 l 860 0 l 860 89 z "},"Ż":{"ha":904,"x_min":0,"x_max":0,"o":"m 461 1083 b 528 1150 499 1083 528 1113 b 461 1217 528 1188 499 1217 b 394 1150 424 1217 394 1188 b 461 1083 394 1113 424 1083 z m 200 89 l 843 901 l 843 972 l 72 972 l 72 883 l 707 883 l 63 71 l 63 0 l 860 0 l 860 89 z "},"Ẓ":{"ha":904,"x_min":0,"x_max":0,"o":"m 200 89 l 843 901 l 843 972 l 72 972 l 72 883 l 707 883 l 63 71 l 63 0 l 860 0 l 860 89 z m 472 -144 b 413 -204 439 -144 413 -169 b 472 -264 413 -239 439 -264 b 532 -204 506 -264 532 -239 b 472 -144 532 -169 506 -144 z "},"a":{"ha":819,"x_min":0,"x_max":0,"o":"m 393 736 b 96 638 278 736 169 700 l 140 564 b 383 650 200 617 289 650 b 590 457 519 650 590 582 l 590 413 l 358 413 b 76 206 149 413 76 318 b 343 -7 76 79 178 -7 b 594 114 464 -7 550 39 l 594 0 l 689 0 l 689 453 b 393 736 689 642 582 736 z m 358 71 b 174 208 242 71 174 124 b 361 339 174 283 219 339 l 590 339 l 590 219 b 358 71 551 124 469 71 z "},"á":{"ha":819,"x_min":0,"x_max":0,"o":"m 628 1015 l 496 1015 l 306 843 l 403 843 z m 393 736 b 96 638 278 736 169 700 l 140 564 b 383 650 200 617 289 650 b 590 457 519 650 590 582 l 590 413 l 358 413 b 76 206 149 413 76 318 b 343 -7 76 79 178 -7 b 594 114 464 -7 550 39 l 594 0 l 689 0 l 689 453 b 393 736 689 642 582 736 z m 358 71 b 174 208 242 71 174 124 b 361 339 174 283 219 339 l 590 339 l 590 219 b 358 71 551 124 469 71 z "},"ă":{"ha":819,"x_min":0,"x_max":0,"o":"m 396 836 b 607 1015 513 836 603 904 l 538 1015 b 396 897 535 942 474 897 b 254 1015 318 897 257 942 l 185 1015 b 396 836 189 904 279 836 z m 393 736 b 96 638 278 736 169 700 l 140 564 b 383 650 200 617 289 650 b 590 457 519 650 590 582 l 590 413 l 358 413 b 76 206 149 413 76 318 b 343 -7 76 79 178 -7 b 594 114 464 -7 550 39 l 594 0 l 689 0 l 689 453 b 393 736 689 642 582 736 z m 358 71 b 174 208 242 71 174 124 b 361 339 174 283 219 339 l 590 339 l 590 219 b 358 71 551 124 469 71 z "},"ắ":{"ha":819,"x_min":0,"x_max":0,"o":"m 599 1151 l 479 1151 l 311 1000 l 399 1000 z m 396 836 b 607 974 511 836 596 888 l 539 974 b 396 894 531 924 474 894 b 253 974 318 894 261 924 l 185 974 b 396 836 196 888 281 836 z m 393 736 b 96 638 278 736 169 700 l 140 564 b 383 650 200 617 289 650 b 590 457 519 650 590 582 l 590 413 l 358 413 b 76 206 149 413 76 318 b 343 -7 76 79 178 -7 b 594 114 464 -7 550 39 l 594 0 l 689 0 l 689 453 b 393 736 689 642 582 736 z m 358 71 b 174 208 242 71 174 124 b 361 339 174 283 219 339 l 590 339 l 590 219 b 358 71 551 124 469 71 z "},"ặ":{"ha":819,"x_min":0,"x_max":0,"o":"m 396 836 b 607 1015 513 836 603 904 l 538 1015 b 396 897 535 942 474 897 b 254 1015 318 897 257 942 l 185 1015 b 396 836 189 904 279 836 z m 393 736 b 96 638 278 736 169 700 l 140 564 b 383 650 200 617 289 650 b 590 457 519 650 590 582 l 590 413 l 358 413 b 76 206 149 413 76 318 b 343 -7 76 79 178 -7 b 594 114 464 -7 550 39 l 594 0 l 689 0 l 689 453 b 393 736 689 642 582 736 z m 358 71 b 174 208 242 71 174 124 b 361 339 174 283 219 339 l 590 339 l 590 219 b 358 71 551 124 469 71 z m 399 -144 b 339 -204 365 -144 339 -169 b 399 -264 339 -239 365 -264 b 458 -204 432 -264 458 -239 b 399 -144 458 -169 432 -144 z "},"ằ":{"ha":819,"x_min":0,"x_max":0,"o":"m 481 1000 l 314 1151 l 193 1151 l 394 1000 z m 396 836 b 607 974 511 836 596 888 l 539 974 b 396 894 531 924 474 894 b 253 974 318 894 261 924 l 185 974 b 396 836 196 888 281 836 z m 393 736 b 96 638 278 736 169 700 l 140 564 b 383 650 200 617 289 650 b 590 457 519 650 590 582 l 590 413 l 358 413 b 76 206 149 413 76 318 b 343 -7 76 79 178 -7 b 594 114 464 -7 550 39 l 594 0 l 689 0 l 689 453 b 393 736 689 642 582 736 z m 358 71 b 174 208 242 71 174 124 b 361 339 174 283 219 339 l 590 339 l 590 219 b 358 71 551 124 469 71 z "},"ẳ":{"ha":819,"x_min":0,"x_max":0,"o":"m 386 1114 b 442 1068 418 1114 442 1096 b 383 999 442 1042 421 1017 l 413 964 b 494 1074 464 986 494 1025 b 394 1164 494 1126 457 1164 b 306 1138 363 1164 331 1154 l 326 1097 b 386 1114 346 1108 365 1114 z m 396 836 b 607 974 511 836 596 888 l 539 974 b 396 894 531 924 474 894 b 253 974 318 894 261 924 l 185 974 b 396 836 196 888 281 836 z m 393 736 b 96 638 278 736 169 700 l 140 564 b 383 650 200 617 289 650 b 590 457 519 650 590 582 l 590 413 l 358 413 b 76 206 149 413 76 318 b 343 -7 76 79 178 -7 b 594 114 464 -7 550 39 l 594 0 l 689 0 l 689 453 b 393 736 689 642 582 736 z m 358 71 b 174 208 242 71 174 124 b 361 339 174 283 219 339 l 590 339 l 590 219 b 358 71 551 124 469 71 z "},"ẵ":{"ha":819,"x_min":0,"x_max":0,"o":"m 307 1086 b 489 1011 363 1086 404 1011 b 611 1138 563 1011 610 1060 l 553 1138 b 485 1069 551 1096 528 1069 b 304 1144 429 1069 386 1144 b 181 1017 231 1144 182 1097 l 240 1017 b 307 1086 242 1061 265 1086 z m 396 894 b 253 974 318 894 261 924 l 185 974 b 396 836 196 888 281 836 b 607 974 511 836 596 888 l 539 974 b 396 894 531 924 474 894 z m 393 736 b 96 638 278 736 169 700 l 140 564 b 383 650 200 617 289 650 b 590 457 519 650 590 582 l 590 413 l 358 413 b 76 206 149 413 76 318 b 343 -7 76 79 178 -7 b 594 114 464 -7 550 39 l 594 0 l 689 0 l 689 453 b 393 736 689 642 582 736 z m 358 71 b 174 208 242 71 174 124 b 361 339 174 283 219 339 l 590 339 l 590 219 b 358 71 551 124 469 71 z "},"ǎ":{"ha":819,"x_min":0,"x_max":0,"o":"m 446 843 l 625 1015 l 533 1015 l 396 901 l 258 1015 l 167 1015 l 346 843 z m 393 736 b 96 638 278 736 169 700 l 140 564 b 383 650 200 617 289 650 b 590 457 519 650 590 582 l 590 413 l 358 413 b 76 206 149 413 76 318 b 343 -7 76 79 178 -7 b 594 114 464 -7 550 39 l 594 0 l 689 0 l 689 453 b 393 736 689 642 582 736 z m 358 71 b 174 208 242 71 174 124 b 361 339 174 283 219 339 l 590 339 l 590 219 b 358 71 551 124 469 71 z "},"â":{"ha":819,"x_min":0,"x_max":0,"o":"m 396 958 l 533 843 l 625 843 l 446 1015 l 346 1015 l 167 843 l 258 843 z m 393 736 b 96 638 278 736 169 700 l 140 564 b 383 650 200 617 289 650 b 590 457 519 650 590 582 l 590 413 l 358 413 b 76 206 149 413 76 318 b 343 -7 76 79 178 -7 b 594 114 464 -7 550 39 l 594 0 l 689 0 l 689 453 b 393 736 689 642 582 736 z m 358 71 b 174 208 242 71 174 124 b 361 339 174 283 219 339 l 590 339 l 590 219 b 358 71 551 124 469 71 z "},"ấ":{"ha":819,"x_min":0,"x_max":0,"o":"m 810 1111 l 690 1111 l 522 960 l 610 960 z m 396 925 l 531 843 l 625 843 l 444 974 l 347 974 l 167 843 l 261 843 z m 393 736 b 96 638 278 736 169 700 l 140 564 b 383 650 200 617 289 650 b 590 457 519 650 590 582 l 590 413 l 358 413 b 76 206 149 413 76 318 b 343 -7 76 79 178 -7 b 594 114 464 -7 550 39 l 594 0 l 689 0 l 689 453 b 393 736 689 642 582 736 z m 358 71 b 174 208 242 71 174 124 b 361 339 174 283 219 339 l 590 339 l 590 219 b 358 71 551 124 469 71 z "},"ậ":{"ha":819,"x_min":0,"x_max":0,"o":"m 396 958 l 533 843 l 625 843 l 446 1015 l 346 1015 l 167 843 l 258 843 z m 393 736 b 96 638 278 736 169 700 l 140 564 b 383 650 200 617 289 650 b 590 457 519 650 590 582 l 590 413 l 358 413 b 76 206 149 413 76 318 b 343 -7 76 79 178 -7 b 594 114 464 -7 550 39 l 594 0 l 689 0 l 689 453 b 393 736 689 642 582 736 z m 358 71 b 174 208 242 71 174 124 b 361 339 174 283 219 339 l 590 339 l 590 219 b 358 71 551 124 469 71 z m 399 -144 b 339 -204 365 -144 339 -169 b 399 -264 339 -239 365 -264 b 458 -204 432 -264 458 -239 b 399 -144 458 -169 432 -144 z "},"ầ":{"ha":819,"x_min":0,"x_max":0,"o":"m 692 960 l 525 1111 l 404 1111 l 606 960 z m 396 925 l 531 843 l 625 843 l 444 974 l 347 974 l 167 843 l 261 843 z m 393 736 b 96 638 278 736 169 700 l 140 564 b 383 650 200 617 289 650 b 590 457 519 650 590 582 l 590 413 l 358 413 b 76 206 149 413 76 318 b 343 -7 76 79 178 -7 b 594 114 464 -7 550 39 l 594 0 l 689 0 l 689 453 b 393 736 689 642 582 736 z m 358 71 b 174 208 242 71 174 124 b 361 339 174 283 219 339 l 590 339 l 590 219 b 358 71 551 124 469 71 z "},"ẩ":{"ha":819,"x_min":0,"x_max":0,"o":"m 553 1086 b 608 1040 585 1086 608 1068 b 550 971 608 1014 588 989 l 579 936 b 661 1046 631 958 661 997 b 561 1136 661 1099 624 1136 b 472 1110 529 1136 497 1126 l 493 1069 b 553 1086 513 1081 532 1086 z m 396 925 l 531 843 l 625 843 l 444 974 l 347 974 l 167 843 l 261 843 z m 393 736 b 96 638 278 736 169 700 l 140 564 b 383 650 200 617 289 650 b 590 457 519 650 590 582 l 590 413 l 358 413 b 76 206 149 413 76 318 b 343 -7 76 79 178 -7 b 594 114 464 -7 550 39 l 594 0 l 689 0 l 689 453 b 393 736 689 642 582 736 z m 358 71 b 174 208 242 71 174 124 b 361 339 174 283 219 339 l 590 339 l 590 219 b 358 71 551 124 469 71 z "},"ẫ":{"ha":819,"x_min":0,"x_max":0,"o":"m 307 1093 b 489 1018 363 1093 404 1018 b 611 1144 563 1018 610 1067 l 553 1144 b 485 1076 551 1103 528 1076 b 304 1151 429 1076 386 1151 b 181 1024 231 1151 182 1104 l 240 1024 b 307 1093 242 1068 265 1093 z m 396 925 l 531 843 l 625 843 l 444 974 l 347 974 l 167 843 l 261 843 z m 393 736 b 96 638 278 736 169 700 l 140 564 b 383 650 200 617 289 650 b 590 457 519 650 590 582 l 590 413 l 358 413 b 76 206 149 413 76 318 b 343 -7 76 79 178 -7 b 594 114 464 -7 550 39 l 594 0 l 689 0 l 689 453 b 393 736 689 642 582 736 z m 358 71 b 174 208 242 71 174 124 b 361 339 174 283 219 339 l 590 339 l 590 219 b 358 71 551 124 469 71 z "},"ȁ":{"ha":819,"x_min":0,"x_max":0,"o":"m 326 843 l 193 1015 l 83 1015 l 239 843 z m 553 843 l 418 1015 l 308 1015 l 465 843 z m 393 736 b 96 638 278 736 169 700 l 140 564 b 383 650 200 617 289 650 b 590 457 519 650 590 582 l 590 413 l 358 413 b 76 206 149 413 76 318 b 343 -7 76 79 178 -7 b 594 114 464 -7 550 39 l 594 0 l 689 0 l 689 453 b 393 736 689 642 582 736 z m 358 71 b 174 208 242 71 174 124 b 361 339 174 283 219 339 l 590 339 l 590 219 b 358 71 551 124 469 71 z "},"ä":{"ha":819,"x_min":0,"x_max":0,"o":"m 272 875 b 332 935 304 875 332 900 b 272 994 332 968 304 994 b 213 935 239 994 213 968 b 272 875 213 900 239 875 z m 519 875 b 579 935 553 875 579 900 b 519 994 579 968 553 994 b 460 935 488 994 460 968 b 519 875 460 900 488 875 z m 393 736 b 96 638 278 736 169 700 l 140 564 b 383 650 200 617 289 650 b 590 457 519 650 590 582 l 590 413 l 358 413 b 76 206 149 413 76 318 b 343 -7 76 79 178 -7 b 594 114 464 -7 550 39 l 594 0 l 689 0 l 689 453 b 393 736 689 642 582 736 z m 358 71 b 174 208 242 71 174 124 b 361 339 174 283 219 339 l 590 339 l 590 219 b 358 71 551 124 469 71 z "},"ạ":{"ha":819,"x_min":0,"x_max":0,"o":"m 393 736 b 96 638 278 736 169 700 l 140 564 b 383 650 200 617 289 650 b 590 457 519 650 590 582 l 590 413 l 358 413 b 76 206 149 413 76 318 b 343 -7 76 79 178 -7 b 594 114 464 -7 550 39 l 594 0 l 689 0 l 689 453 b 393 736 689 642 582 736 z m 358 71 b 174 208 242 71 174 124 b 361 339 174 283 219 339 l 590 339 l 590 219 b 358 71 551 124 469 71 z m 399 -144 b 339 -204 365 -144 339 -169 b 399 -264 339 -239 365 -264 b 458 -204 432 -264 458 -239 b 399 -144 458 -169 432 -144 z "},"à":{"ha":819,"x_min":0,"x_max":0,"o":"m 486 843 l 296 1015 l 164 1015 l 389 843 z m 393 736 b 96 638 278 736 169 700 l 140 564 b 383 650 200 617 289 650 b 590 457 519 650 590 582 l 590 413 l 358 413 b 76 206 149 413 76 318 b 343 -7 76 79 178 -7 b 594 114 464 -7 550 39 l 594 0 l 689 0 l 689 453 b 393 736 689 642 582 736 z m 358 71 b 174 208 242 71 174 124 b 361 339 174 283 219 339 l 590 339 l 590 219 b 358 71 551 124 469 71 z "},"ả":{"ha":819,"x_min":0,"x_max":0,"o":"m 385 1043 b 461 975 429 1043 461 1014 b 379 876 461 933 435 901 l 414 833 b 525 982 489 868 525 917 b 393 1101 525 1056 471 1101 b 278 1065 353 1101 308 1089 l 301 1017 b 385 1043 329 1035 356 1043 z m 393 736 b 96 638 278 736 169 700 l 140 564 b 383 650 200 617 289 650 b 590 457 519 650 590 582 l 590 413 l 358 413 b 76 206 149 413 76 318 b 343 -7 76 79 178 -7 b 594 114 464 -7 550 39 l 594 0 l 689 0 l 689 453 b 393 736 689 642 582 736 z m 358 71 b 174 208 242 71 174 124 b 361 339 174 283 219 339 l 590 339 l 590 219 b 358 71 551 124 469 71 z "},"ȃ":{"ha":819,"x_min":0,"x_max":0,"o":"m 396 961 b 538 843 474 961 535 915 l 607 843 b 396 1021 603 954 513 1021 b 185 843 279 1021 189 954 l 254 843 b 396 961 257 915 318 961 z m 393 736 b 96 638 278 736 169 700 l 140 564 b 383 650 200 617 289 650 b 590 457 519 650 590 582 l 590 413 l 358 413 b 76 206 149 413 76 318 b 343 -7 76 79 178 -7 b 594 114 464 -7 550 39 l 594 0 l 689 0 l 689 453 b 393 736 689 642 582 736 z m 358 71 b 174 208 242 71 174 124 b 361 339 174 283 219 339 l 590 339 l 590 219 b 358 71 551 124 469 71 z "},"ā":{"ha":819,"x_min":0,"x_max":0,"o":"m 610 961 l 182 961 l 182 896 l 610 896 z m 393 736 b 96 638 278 736 169 700 l 140 564 b 383 650 200 617 289 650 b 590 457 519 650 590 582 l 590 413 l 358 413 b 76 206 149 413 76 318 b 343 -7 76 79 178 -7 b 594 114 464 -7 550 39 l 594 0 l 689 0 l 689 453 b 393 736 689 642 582 736 z m 358 71 b 174 208 242 71 174 124 b 361 339 174 283 219 339 l 590 339 l 590 219 b 358 71 551 124 469 71 z "},"ą":{"ha":819,"x_min":0,"x_max":0,"o":"m 696 -218 b 610 -244 674 -236 640 -244 b 519 -167 558 -244 519 -218 b 689 0 519 -115 557 -58 l 689 453 b 393 736 689 642 582 736 b 96 638 278 736 169 700 l 140 564 b 383 650 200 617 289 650 b 590 457 519 650 590 582 l 590 413 l 358 413 b 76 206 149 413 76 318 b 343 -7 76 79 178 -7 b 594 114 464 -7 550 39 l 594 15 b 447 -174 481 -44 447 -114 b 600 -306 447 -254 507 -306 b 718 -272 643 -306 685 -294 z m 358 71 b 174 208 242 71 174 124 b 361 339 174 283 219 339 l 590 339 l 590 219 b 358 71 551 124 469 71 z "},"å":{"ha":819,"x_min":0,"x_max":0,"o":"m 394 826 b 540 968 478 826 540 890 b 394 1114 540 1047 478 1114 b 250 968 313 1114 250 1047 b 394 826 250 890 311 826 z m 394 1065 b 489 968 449 1065 489 1022 b 394 875 489 915 450 875 b 301 968 339 875 301 915 b 394 1065 301 1024 340 1065 z m 393 736 b 96 638 278 736 169 700 l 140 564 b 383 650 200 617 289 650 b 590 457 519 650 590 582 l 590 413 l 358 413 b 76 206 149 413 76 318 b 343 -7 76 79 178 -7 b 594 114 464 -7 550 39 l 594 0 l 689 0 l 689 453 b 393 736 689 642 582 736 z m 358 71 b 174 208 242 71 174 124 b 361 339 174 283 219 339 l 590 339 l 590 219 b 358 71 551 124 469 71 z "},"ǻ":{"ha":819,"x_min":0,"x_max":0,"o":"m 394 826 b 540 968 478 826 540 890 b 513 1054 540 1000 531 1029 l 640 1161 l 585 1206 l 471 1093 b 394 1114 449 1106 422 1114 b 250 968 313 1114 250 1047 b 394 826 250 890 311 826 z m 394 1065 b 489 968 449 1065 489 1022 b 394 875 489 915 450 875 b 301 968 339 875 301 915 b 394 1065 301 1024 340 1065 z m 393 736 b 96 638 278 736 169 700 l 140 564 b 383 650 200 617 289 650 b 590 457 519 650 590 582 l 590 413 l 358 413 b 76 206 149 413 76 318 b 343 -7 76 79 178 -7 b 594 114 464 -7 550 39 l 594 0 l 689 0 l 689 453 b 393 736 689 642 582 736 z m 358 71 b 174 208 242 71 174 124 b 361 339 174 283 219 339 l 590 339 l 590 219 b 358 71 551 124 469 71 z "},"ã":{"ha":819,"x_min":0,"x_max":0,"o":"m 308 946 b 490 851 364 946 404 851 b 615 1001 564 851 613 911 l 556 1001 b 483 915 553 949 525 915 b 301 1010 429 915 388 1010 b 176 857 228 1010 179 950 l 236 857 b 308 946 239 913 267 946 z m 393 736 b 96 638 278 736 169 700 l 140 564 b 383 650 200 617 289 650 b 590 457 519 650 590 582 l 590 413 l 358 413 b 76 206 149 413 76 318 b 343 -7 76 79 178 -7 b 594 114 464 -7 550 39 l 594 0 l 689 0 l 689 453 b 393 736 689 642 582 736 z m 358 71 b 174 208 242 71 174 124 b 361 339 174 283 219 339 l 590 339 l 590 219 b 358 71 551 124 469 71 z "},"æ":{"ha":1369,"x_min":0,"x_max":0,"o":"m 1306 371 b 950 736 1306 583 1154 736 b 660 586 826 736 722 679 b 392 736 622 685 532 736 b 96 638 279 736 169 700 l 140 564 b 383 650 200 617 289 650 b 590 457 519 650 590 582 l 590 411 l 358 411 b 76 208 149 411 76 315 b 353 -7 76 81 179 -7 b 649 161 475 -7 594 39 b 975 -7 718 47 839 -7 b 1257 113 1090 -7 1190 33 l 1201 176 b 978 81 1144 113 1067 81 b 690 338 815 81 700 183 l 1303 338 b 1306 371 1304 349 1306 358 z m 949 651 b 1208 411 1081 651 1194 560 l 690 411 b 949 651 706 561 818 651 z m 360 71 b 174 211 243 71 174 124 b 361 338 174 282 221 338 l 590 338 l 590 279 b 360 71 590 150 500 71 z "},"ǽ":{"ha":1369,"x_min":0,"x_max":0,"o":"m 872 1015 l 740 1015 l 550 843 l 647 843 z m 1306 371 b 950 736 1306 583 1154 736 b 660 586 826 736 722 679 b 392 736 622 685 532 736 b 96 638 279 736 169 700 l 140 564 b 383 650 200 617 289 650 b 590 457 519 650 590 582 l 590 411 l 358 411 b 76 208 149 411 76 315 b 353 -7 76 81 179 -7 b 649 161 475 -7 594 39 b 975 -7 718 47 839 -7 b 1257 113 1090 -7 1190 33 l 1201 176 b 978 81 1144 113 1067 81 b 690 338 815 81 700 183 l 1303 338 b 1306 371 1304 349 1306 358 z m 949 651 b 1208 411 1081 651 1194 560 l 690 411 b 949 651 706 561 818 651 z m 360 71 b 174 211 243 71 174 124 b 361 338 174 282 221 338 l 590 338 l 590 279 b 360 71 590 150 500 71 z "},"b":{"ha":942,"x_min":0,"x_max":0,"o":"m 514 736 b 236 592 397 736 297 686 l 236 1031 l 138 1031 l 138 0 l 232 0 l 232 144 b 514 -7 292 46 393 -7 b 878 365 722 -7 878 144 b 514 736 878 586 722 736 z m 507 81 b 235 365 351 81 235 194 b 507 650 235 536 351 650 b 779 365 661 650 779 536 b 507 81 779 194 661 81 z "},"c":{"ha":782,"x_min":0,"x_max":0,"o":"m 440 -7 b 726 138 564 -7 668 43 l 653 188 b 440 81 603 114 525 81 b 164 365 281 81 164 193 b 440 650 164 536 281 650 b 653 542 525 650 603 615 l 726 592 b 440 736 668 688 564 736 b 64 365 222 736 64 583 b 440 -7 64 147 222 -7 z "},"ć":{"ha":782,"x_min":0,"x_max":0,"o":"m 325 843 l 422 843 l 647 1015 l 515 1015 z m 440 -7 b 726 138 564 -7 668 43 l 653 188 b 440 81 603 114 525 81 b 164 365 281 81 164 193 b 440 650 164 536 281 650 b 653 542 525 650 603 615 l 726 592 b 440 736 668 688 564 736 b 64 365 222 736 64 583 b 440 -7 64 147 222 -7 z "},"č":{"ha":782,"x_min":0,"x_max":0,"o":"m 465 843 l 644 1015 l 553 1015 l 415 901 l 278 1015 l 186 1015 l 365 843 z m 440 81 b 164 365 281 81 164 193 b 440 650 164 536 281 650 b 653 542 525 650 603 615 l 726 592 b 440 736 668 688 564 736 b 64 365 222 736 64 583 b 440 -7 64 147 222 -7 b 726 138 564 -7 668 43 l 653 188 b 440 81 603 114 525 81 z "},"ç":{"ha":782,"x_min":0,"x_max":0,"o":"m 440 81 b 164 365 281 81 164 193 b 440 650 164 536 281 650 b 653 542 525 650 603 615 l 726 592 b 440 736 668 688 564 736 b 64 365 222 736 64 583 b 379 -3 64 168 193 24 l 349 -118 l 381 -118 b 467 -182 439 -118 467 -144 b 381 -247 467 -224 436 -247 b 289 -221 347 -247 317 -239 l 265 -274 b 382 -306 299 -296 336 -306 b 539 -185 475 -306 539 -260 b 421 -72 539 -124 497 -79 l 438 -7 l 440 -7 b 726 138 564 -7 668 43 l 653 188 b 440 81 603 114 525 81 z "},"ḉ":{"ha":782,"x_min":0,"x_max":0,"o":"m 647 1015 l 515 1015 l 325 843 l 422 843 z m 440 81 b 164 365 281 81 164 193 b 440 650 164 536 281 650 b 653 542 525 650 603 615 l 726 592 b 440 736 668 688 564 736 b 64 365 222 736 64 583 b 379 -3 64 168 193 24 l 349 -118 l 381 -118 b 467 -182 439 -118 467 -144 b 381 -247 467 -224 436 -247 b 289 -221 347 -247 317 -239 l 265 -274 b 382 -306 299 -296 336 -306 b 539 -185 475 -306 539 -260 b 421 -72 539 -124 497 -79 l 438 -7 l 440 -7 b 726 138 564 -7 668 43 l 653 188 b 440 81 603 114 525 81 z "},"ĉ":{"ha":782,"x_min":0,"x_max":0,"o":"m 415 958 l 553 843 l 644 843 l 465 1015 l 365 1015 l 186 843 l 278 843 z m 440 81 b 164 365 281 81 164 193 b 440 650 164 536 281 650 b 653 542 525 650 603 615 l 726 592 b 440 736 668 688 564 736 b 64 365 222 736 64 583 b 440 -7 64 147 222 -7 b 726 138 564 -7 668 43 l 653 188 b 440 81 603 114 525 81 z "},"ċ":{"ha":782,"x_min":0,"x_max":0,"o":"m 415 875 b 482 942 453 875 482 904 b 415 1008 482 979 453 1008 b 349 942 378 1008 349 979 b 415 875 349 904 378 875 z m 440 -7 b 726 138 564 -7 668 43 l 653 188 b 440 81 603 114 525 81 b 164 365 281 81 164 193 b 440 650 164 536 281 650 b 653 542 525 650 603 615 l 726 592 b 440 736 668 688 564 736 b 64 365 222 736 64 583 b 440 -7 64 147 222 -7 z "},"d":{"ha":942,"x_min":0,"x_max":0,"o":"m 706 1031 l 706 592 b 428 736 644 686 544 736 b 64 365 219 736 64 586 b 428 -7 64 144 219 -7 b 710 144 549 -7 650 46 l 710 0 l 804 0 l 804 1031 z m 436 81 b 164 365 281 81 164 194 b 436 650 164 536 281 650 b 707 365 590 650 707 536 b 436 81 707 194 590 81 z "},"ð":{"ha":879,"x_min":0,"x_max":0,"o":"m 676 879 l 761 914 l 733 982 l 610 931 b 351 997 539 975 451 997 b 131 968 265 997 188 985 l 147 883 b 351 914 201 900 272 914 b 504 886 408 914 460 904 l 183 753 l 211 685 l 583 840 b 715 503 667 772 715 660 b 713 421 715 478 715 450 b 411 606 664 540 550 606 b 64 299 208 606 64 486 b 406 -8 64 113 210 -8 b 815 482 669 -8 815 182 b 676 879 815 660 765 792 z m 411 76 b 164 299 264 76 164 165 b 421 521 164 432 260 521 b 675 299 569 521 675 424 b 411 76 675 186 581 76 z "},"ď":{"ha":942,"x_min":0,"x_max":0,"o":"m 933 1071 l 933 808 l 1004 808 l 1017 1071 z m 706 592 b 428 736 644 686 544 736 b 64 365 219 736 64 586 b 428 -7 64 144 219 -7 b 710 144 549 -7 650 46 l 710 0 l 804 0 l 804 1031 l 706 1031 z m 436 81 b 164 365 281 81 164 194 b 436 650 164 536 281 650 b 707 365 590 650 707 536 b 436 81 707 194 590 81 z "},"đ":{"ha":942,"x_min":0,"x_max":0,"o":"m 942 915 l 804 915 l 804 1031 l 706 1031 l 706 915 l 400 915 l 400 843 l 706 843 l 706 592 b 428 736 644 686 544 736 b 64 365 219 736 64 586 b 428 -7 64 144 219 -7 b 710 144 549 -7 650 46 l 710 0 l 804 0 l 804 843 l 942 843 z m 436 81 b 164 365 281 81 164 194 b 436 650 164 536 281 650 b 707 365 590 650 707 536 b 436 81 707 194 590 81 z "},"ḍ":{"ha":942,"x_min":0,"x_max":0,"o":"m 706 1031 l 706 592 b 428 736 644 686 544 736 b 64 365 219 736 64 586 b 428 -7 64 144 219 -7 b 710 144 549 -7 650 46 l 710 0 l 804 0 l 804 1031 z m 436 81 b 164 365 281 81 164 194 b 436 650 164 536 281 650 b 707 365 590 650 707 536 b 436 81 707 194 590 81 z m 472 -144 b 413 -204 439 -144 413 -169 b 472 -264 413 -239 439 -264 b 532 -204 506 -264 532 -239 b 472 -144 532 -169 506 -144 z "},"ḏ":{"ha":942,"x_min":0,"x_max":0,"o":"m 706 1031 l 706 592 b 428 736 644 686 544 736 b 64 365 219 736 64 586 b 428 -7 64 144 219 -7 b 710 144 549 -7 650 46 l 710 0 l 804 0 l 804 1031 z m 436 81 b 164 365 281 81 164 194 b 436 650 164 536 281 650 b 707 365 590 650 707 536 b 436 81 707 194 590 81 z m 258 -235 l 686 -235 l 686 -169 l 258 -169 z "},"ǆ":{"ha":1669,"x_min":0,"x_max":0,"o":"m 706 592 b 428 736 644 686 544 736 b 64 365 219 736 64 586 b 428 -7 64 144 219 -7 b 710 144 549 -7 650 46 l 710 0 l 804 0 l 804 1031 l 706 1031 z m 1346 844 l 1525 1017 l 1433 1017 l 1296 903 l 1158 1017 l 1067 1017 l 1246 844 z m 1125 82 l 1585 665 l 1585 731 l 1007 731 l 1007 647 l 1458 647 l 999 65 l 999 0 l 1593 0 l 1593 82 z m 436 81 b 164 365 281 81 164 194 b 436 650 164 536 281 650 b 707 365 590 650 707 536 b 436 81 707 194 590 81 z "},"e":{"ha":839,"x_min":0,"x_max":0,"o":"m 775 365 b 421 736 775 585 626 736 b 64 365 215 736 64 582 b 447 -7 64 149 219 -7 b 729 113 563 -7 664 35 l 674 176 b 450 81 618 113 539 81 b 163 335 290 81 174 182 l 774 335 b 775 365 774 346 775 357 z m 421 651 b 681 408 564 651 668 551 l 163 408 b 421 651 175 551 279 651 z "},"é":{"ha":839,"x_min":0,"x_max":0,"o":"m 653 1015 l 521 1015 l 331 843 l 428 843 z m 775 365 b 421 736 775 585 626 736 b 64 365 215 736 64 582 b 447 -7 64 149 219 -7 b 729 113 563 -7 664 35 l 674 176 b 450 81 618 113 539 81 b 163 335 290 81 174 182 l 774 335 b 775 365 774 346 775 357 z m 421 651 b 681 408 564 651 668 551 l 163 408 b 421 651 175 551 279 651 z "},"ĕ":{"ha":839,"x_min":0,"x_max":0,"o":"m 421 836 b 632 1015 538 836 628 904 l 563 1015 b 421 897 560 942 499 897 b 279 1015 343 897 282 942 l 210 1015 b 421 836 214 904 304 836 z m 775 365 b 421 736 775 585 626 736 b 64 365 215 736 64 582 b 447 -7 64 149 219 -7 b 729 113 563 -7 664 35 l 674 176 b 450 81 618 113 539 81 b 163 335 290 81 174 182 l 774 335 b 775 365 774 346 775 357 z m 421 651 b 681 408 564 651 668 551 l 163 408 b 421 651 175 551 279 651 z "},"ě":{"ha":839,"x_min":0,"x_max":0,"o":"m 471 843 l 650 1015 l 558 1015 l 421 901 l 283 1015 l 192 1015 l 371 843 z m 775 365 b 421 736 775 585 626 736 b 64 365 215 736 64 582 b 447 -7 64 149 219 -7 b 729 113 563 -7 664 35 l 674 176 b 450 81 618 113 539 81 b 163 335 290 81 174 182 l 774 335 b 775 365 774 346 775 357 z m 421 651 b 681 408 564 651 668 551 l 163 408 b 421 651 175 551 279 651 z "},"ḝ":{"ha":839,"x_min":0,"x_max":0,"o":"m 421 836 b 632 1015 538 836 628 904 l 563 1015 b 421 897 560 942 499 897 b 279 1015 343 897 282 942 l 210 1015 b 421 836 214 904 304 836 z m 775 365 b 421 736 775 585 626 736 b 64 365 215 736 64 582 b 388 -3 64 168 193 22 l 357 -118 l 389 -118 b 475 -182 447 -118 475 -144 b 389 -247 475 -224 444 -247 b 297 -221 356 -247 325 -239 l 274 -274 b 390 -306 307 -296 344 -306 b 547 -185 483 -306 547 -260 b 429 -72 547 -124 506 -79 l 446 -7 l 447 -7 b 729 113 563 -7 664 35 l 674 176 b 450 81 618 113 539 81 b 163 335 290 81 174 182 l 774 335 b 775 365 774 346 775 357 z m 421 651 b 681 408 564 651 668 551 l 163 408 b 421 651 175 551 279 651 z "},"ê":{"ha":839,"x_min":0,"x_max":0,"o":"m 421 958 l 558 843 l 650 843 l 471 1015 l 371 1015 l 192 843 l 283 843 z m 775 365 b 421 736 775 585 626 736 b 64 365 215 736 64 582 b 447 -7 64 149 219 -7 b 729 113 563 -7 664 35 l 674 176 b 450 81 618 113 539 81 b 163 335 290 81 174 182 l 774 335 b 775 365 774 346 775 357 z m 421 651 b 681 408 564 651 668 551 l 163 408 b 421 651 175 551 279 651 z "},"ế":{"ha":839,"x_min":0,"x_max":0,"o":"m 835 1111 l 715 1111 l 547 960 l 635 960 z m 421 925 l 556 843 l 650 843 l 469 974 l 372 974 l 192 843 l 286 843 z m 421 736 b 64 365 215 736 64 582 b 447 -7 64 149 219 -7 b 729 113 563 -7 664 35 l 674 176 b 450 81 618 113 539 81 b 163 335 290 81 174 182 l 774 335 b 775 365 774 346 775 357 b 421 736 775 585 626 736 z m 421 651 b 681 408 564 651 668 551 l 163 408 b 421 651 175 551 279 651 z "},"ệ":{"ha":839,"x_min":0,"x_max":0,"o":"m 421 958 l 558 843 l 650 843 l 471 1015 l 371 1015 l 192 843 l 283 843 z m 775 365 b 421 736 775 585 626 736 b 64 365 215 736 64 582 b 447 -7 64 149 219 -7 b 729 113 563 -7 664 35 l 674 176 b 450 81 618 113 539 81 b 163 335 290 81 174 182 l 774 335 b 775 365 774 346 775 357 z m 421 651 b 681 408 564 651 668 551 l 163 408 b 421 651 175 551 279 651 z m 421 -144 b 361 -204 388 -144 361 -169 b 421 -264 361 -239 388 -264 b 481 -204 454 -264 481 -239 b 421 -144 481 -169 454 -144 z "},"ề":{"ha":839,"x_min":0,"x_max":0,"o":"m 717 960 l 550 1111 l 429 1111 l 631 960 z m 421 925 l 556 843 l 650 843 l 469 974 l 372 974 l 192 843 l 286 843 z m 775 365 b 421 736 775 585 626 736 b 64 365 215 736 64 582 b 447 -7 64 149 219 -7 b 729 113 563 -7 664 35 l 674 176 b 450 81 618 113 539 81 b 163 335 290 81 174 182 l 774 335 b 775 365 774 346 775 357 z m 421 651 b 681 408 564 651 668 551 l 163 408 b 421 651 175 551 279 651 z "},"ể":{"ha":839,"x_min":0,"x_max":0,"o":"m 578 1086 b 633 1040 610 1086 633 1068 b 575 971 633 1014 613 989 l 604 936 b 686 1046 656 958 686 997 b 586 1136 686 1099 649 1136 b 497 1110 554 1136 522 1126 l 518 1069 b 578 1086 538 1081 557 1086 z m 421 925 l 556 843 l 650 843 l 469 974 l 372 974 l 192 843 l 286 843 z m 775 365 b 421 736 775 585 626 736 b 64 365 215 736 64 582 b 447 -7 64 149 219 -7 b 729 113 563 -7 664 35 l 674 176 b 450 81 618 113 539 81 b 163 335 290 81 174 182 l 774 335 b 775 365 774 346 775 357 z m 421 651 b 681 408 564 651 668 551 l 163 408 b 421 651 175 551 279 651 z "},"ễ":{"ha":839,"x_min":0,"x_max":0,"o":"m 332 1093 b 514 1018 388 1093 429 1018 b 636 1144 588 1018 635 1067 l 578 1144 b 510 1076 576 1103 553 1076 b 329 1151 454 1076 411 1151 b 206 1024 256 1151 207 1104 l 265 1024 b 332 1093 267 1068 290 1093 z m 421 925 l 556 843 l 650 843 l 469 974 l 372 974 l 192 843 l 286 843 z m 775 365 b 421 736 775 585 626 736 b 64 365 215 736 64 582 b 447 -7 64 149 219 -7 b 729 113 563 -7 664 35 l 674 176 b 450 81 618 113 539 81 b 163 335 290 81 174 182 l 774 335 b 775 365 774 346 775 357 z m 421 651 b 681 408 564 651 668 551 l 163 408 b 421 651 175 551 279 651 z "},"ȅ":{"ha":839,"x_min":0,"x_max":0,"o":"m 351 843 l 218 1015 l 108 1015 l 264 843 z m 578 843 l 443 1015 l 333 1015 l 490 843 z m 775 365 b 421 736 775 585 626 736 b 64 365 215 736 64 582 b 447 -7 64 149 219 -7 b 729 113 563 -7 664 35 l 674 176 b 450 81 618 113 539 81 b 163 335 290 81 174 182 l 774 335 b 775 365 774 346 775 357 z m 421 651 b 681 408 564 651 668 551 l 163 408 b 421 651 175 551 279 651 z "},"ë":{"ha":839,"x_min":0,"x_max":0,"o":"m 297 875 b 357 935 329 875 357 900 b 297 994 357 968 329 994 b 238 935 264 994 238 968 b 297 875 238 900 264 875 z m 544 875 b 604 935 578 875 604 900 b 544 994 604 968 578 994 b 485 935 513 994 485 968 b 544 875 485 900 513 875 z m 775 365 b 421 736 775 585 626 736 b 64 365 215 736 64 582 b 447 -7 64 149 219 -7 b 729 113 563 -7 664 35 l 674 176 b 450 81 618 113 539 81 b 163 335 290 81 174 182 l 774 335 b 775 365 774 346 775 357 z m 421 651 b 681 408 564 651 668 551 l 163 408 b 421 651 175 551 279 651 z "},"ė":{"ha":839,"x_min":0,"x_max":0,"o":"m 421 875 b 488 942 458 875 488 904 b 421 1008 488 979 458 1008 b 354 942 383 1008 354 979 b 421 875 354 904 383 875 z m 775 365 b 421 736 775 585 626 736 b 64 365 215 736 64 582 b 447 -7 64 149 219 -7 b 729 113 563 -7 664 35 l 674 176 b 450 81 618 113 539 81 b 163 335 290 81 174 182 l 774 335 b 775 365 774 346 775 357 z m 421 651 b 681 408 564 651 668 551 l 163 408 b 421 651 175 551 279 651 z "},"ẹ":{"ha":839,"x_min":0,"x_max":0,"o":"m 775 365 b 421 736 775 585 626 736 b 64 365 215 736 64 582 b 447 -7 64 149 219 -7 b 729 113 563 -7 664 35 l 674 176 b 450 81 618 113 539 81 b 163 335 290 81 174 182 l 774 335 b 775 365 774 346 775 357 z m 421 651 b 681 408 564 651 668 551 l 163 408 b 421 651 175 551 279 651 z m 421 -144 b 361 -204 388 -144 361 -169 b 421 -264 361 -239 388 -264 b 481 -204 454 -264 481 -239 b 421 -144 481 -169 454 -144 z "},"è":{"ha":839,"x_min":0,"x_max":0,"o":"m 511 843 l 321 1015 l 189 1015 l 414 843 z m 775 365 b 421 736 775 585 626 736 b 64 365 215 736 64 582 b 447 -7 64 149 219 -7 b 729 113 563 -7 664 35 l 674 176 b 450 81 618 113 539 81 b 163 335 290 81 174 182 l 774 335 b 775 365 774 346 775 357 z m 421 651 b 681 408 564 651 668 551 l 163 408 b 421 651 175 551 279 651 z "},"ẻ":{"ha":839,"x_min":0,"x_max":0,"o":"m 410 1043 b 486 975 454 1043 486 1014 b 404 876 486 933 460 901 l 439 833 b 550 982 514 868 550 917 b 418 1101 550 1056 496 1101 b 303 1065 378 1101 333 1089 l 326 1017 b 410 1043 354 1035 381 1043 z m 775 365 b 421 736 775 585 626 736 b 64 365 215 736 64 582 b 447 -7 64 149 219 -7 b 729 113 563 -7 664 35 l 674 176 b 450 81 618 113 539 81 b 163 335 290 81 174 182 l 774 335 b 775 365 774 346 775 357 z m 421 651 b 681 408 564 651 668 551 l 163 408 b 421 651 175 551 279 651 z "},"ȇ":{"ha":839,"x_min":0,"x_max":0,"o":"m 421 961 b 563 843 499 961 560 915 l 632 843 b 421 1021 628 954 538 1021 b 210 843 304 1021 214 954 l 279 843 b 421 961 282 915 343 961 z m 775 365 b 421 736 775 585 626 736 b 64 365 215 736 64 582 b 447 -7 64 149 219 -7 b 729 113 563 -7 664 35 l 674 176 b 450 81 618 113 539 81 b 163 335 290 81 174 182 l 774 335 b 775 365 774 346 775 357 z m 421 651 b 681 408 564 651 668 551 l 163 408 b 421 651 175 551 279 651 z "},"ē":{"ha":839,"x_min":0,"x_max":0,"o":"m 635 961 l 207 961 l 207 896 l 635 896 z m 775 365 b 421 736 775 585 626 736 b 64 365 215 736 64 582 b 447 -7 64 149 219 -7 b 729 113 563 -7 664 35 l 674 176 b 450 81 618 113 539 81 b 163 335 290 81 174 182 l 774 335 b 775 365 774 346 775 357 z m 421 651 b 681 408 564 651 668 551 l 163 408 b 421 651 175 551 279 651 z "},"ḗ":{"ha":839,"x_min":0,"x_max":0,"o":"m 624 1178 l 504 1178 l 336 1026 l 424 1026 z m 635 939 l 207 939 l 207 876 l 635 876 z m 775 365 b 421 736 775 585 626 736 b 64 365 215 736 64 582 b 447 -7 64 149 219 -7 b 729 113 563 -7 664 35 l 674 176 b 450 81 618 113 539 81 b 163 335 290 81 174 182 l 774 335 b 775 365 774 346 775 357 z m 421 651 b 681 408 564 651 668 551 l 163 408 b 421 651 175 551 279 651 z "},"ḕ":{"ha":839,"x_min":0,"x_max":0,"o":"m 506 1026 l 339 1178 l 218 1178 l 419 1026 z m 635 939 l 207 939 l 207 876 l 635 876 z m 775 365 b 421 736 775 585 626 736 b 64 365 215 736 64 582 b 447 -7 64 149 219 -7 b 729 113 563 -7 664 35 l 674 176 b 450 81 618 113 539 81 b 163 335 290 81 174 182 l 774 335 b 775 365 774 346 775 357 z m 421 651 b 681 408 564 651 668 551 l 163 408 b 421 651 175 551 279 651 z "},"ę":{"ha":839,"x_min":0,"x_max":0,"o":"m 775 365 b 421 736 775 585 626 736 b 64 365 215 736 64 582 b 447 -7 64 149 219 -7 b 524 0 474 -7 499 -4 b 444 -169 465 -60 444 -119 b 597 -306 444 -254 506 -306 b 715 -272 642 -306 682 -294 l 693 -218 b 608 -244 671 -236 638 -244 b 517 -164 556 -244 517 -219 b 676 63 517 -108 546 -50 b 729 113 697 81 714 94 l 674 176 b 450 81 618 113 539 81 b 163 335 290 81 174 182 l 774 335 b 775 365 774 346 775 357 z m 421 651 b 681 408 564 651 668 551 l 163 408 b 421 651 175 551 279 651 z "},"ẽ":{"ha":839,"x_min":0,"x_max":0,"o":"m 333 946 b 515 851 389 946 429 851 b 640 1001 589 851 638 911 l 581 1001 b 508 915 578 949 550 915 b 326 1010 454 915 413 1010 b 201 857 253 1010 204 950 l 261 857 b 333 946 264 913 292 946 z m 775 365 b 421 736 775 585 626 736 b 64 365 215 736 64 582 b 447 -7 64 149 219 -7 b 729 113 563 -7 664 35 l 674 176 b 450 81 618 113 539 81 b 163 335 290 81 174 182 l 774 335 b 775 365 774 346 775 357 z m 421 651 b 681 408 564 651 668 551 l 163 408 b 421 651 175 551 279 651 z "},"ə":{"ha":839,"x_min":0,"x_max":0,"o":"m 392 736 b 110 617 276 736 175 694 l 165 553 b 389 649 221 617 300 649 b 676 394 549 649 665 547 l 65 394 b 64 364 65 383 64 372 b 418 -7 64 144 213 -7 b 775 364 624 -7 775 147 b 392 736 775 581 619 736 z m 418 78 b 158 321 275 78 171 178 l 676 321 b 418 78 664 178 560 78 z "},"ʒ":{"ha":714,"x_min":0,"x_max":0,"o":"m 346 301 l 624 658 l 624 731 l 3 731 l 3 642 l 506 642 l 231 290 l 231 219 l 300 219 b 563 17 481 219 563 140 b 311 -186 563 -108 475 -186 b 10 -69 183 -186 71 -137 l -31 -150 b 314 -278 39 -226 171 -278 b 664 17 546 -278 664 -150 b 346 301 664 179 558 292 z "},"ǯ":{"ha":714,"x_min":0,"x_max":0,"o":"m 358 843 l 538 1015 l 446 1015 l 308 901 l 171 1015 l 79 1015 l 258 843 z m 346 301 l 624 658 l 624 731 l 3 731 l 3 642 l 506 642 l 231 290 l 231 219 l 300 219 b 563 17 481 219 563 140 b 311 -186 563 -108 475 -186 b 10 -69 183 -186 71 -137 l -31 -150 b 314 -278 39 -226 171 -278 b 664 17 546 -278 664 -150 b 346 301 664 179 558 292 z "},"f":{"ha":471,"x_min":0,"x_max":0,"o":"m 379 954 b 488 918 421 954 460 942 l 521 992 b 375 1038 485 1022 429 1038 b 154 821 232 1038 154 951 l 154 731 l 24 731 l 24 647 l 154 647 l 154 0 l 253 0 l 253 647 l 475 647 l 475 731 l 250 731 l 250 817 b 379 954 250 907 294 954 z "},"g":{"ha":953,"x_min":0,"x_max":0,"o":"m 719 731 l 719 590 b 431 736 658 686 553 736 b 64 383 222 736 64 593 b 431 28 64 174 222 28 b 715 169 550 28 654 76 l 715 76 b 446 -189 715 -104 631 -189 b 158 -89 333 -189 228 -151 l 108 -164 b 449 -276 185 -236 315 -276 b 814 89 690 -276 814 -162 l 814 731 z m 440 115 b 164 383 279 115 164 225 b 440 650 164 542 279 650 b 718 383 601 650 718 542 b 440 115 718 225 601 115 z "},"ğ":{"ha":953,"x_min":0,"x_max":0,"o":"m 451 836 b 663 1015 568 836 658 904 l 593 1015 b 451 897 590 942 529 897 b 310 1015 374 897 313 942 l 240 1015 b 451 836 244 904 335 836 z m 719 731 l 719 590 b 431 736 658 686 553 736 b 64 383 222 736 64 593 b 431 28 64 174 222 28 b 715 169 550 28 654 76 l 715 76 b 446 -189 715 -104 631 -189 b 158 -89 333 -189 228 -151 l 108 -164 b 449 -276 185 -236 315 -276 b 814 89 690 -276 814 -162 l 814 731 z m 440 115 b 164 383 279 115 164 225 b 440 650 164 542 279 650 b 718 383 601 650 718 542 b 440 115 718 225 601 115 z "},"ǧ":{"ha":953,"x_min":0,"x_max":0,"o":"m 501 843 l 681 1015 l 589 1015 l 451 901 l 314 1015 l 222 1015 l 401 843 z m 719 731 l 719 590 b 431 736 658 686 553 736 b 64 383 222 736 64 593 b 431 28 64 174 222 28 b 715 169 550 28 654 76 l 715 76 b 446 -189 715 -104 631 -189 b 158 -89 333 -189 228 -151 l 108 -164 b 449 -276 185 -236 315 -276 b 814 89 690 -276 814 -162 l 814 731 z m 440 115 b 164 383 279 115 164 225 b 440 650 164 542 279 650 b 718 383 601 650 718 542 b 440 115 718 225 601 115 z "},"ĝ":{"ha":953,"x_min":0,"x_max":0,"o":"m 451 958 l 589 843 l 681 843 l 501 1015 l 401 1015 l 222 843 l 314 843 z m 719 731 l 719 590 b 431 736 658 686 553 736 b 64 383 222 736 64 593 b 431 28 64 174 222 28 b 715 169 550 28 654 76 l 715 76 b 446 -189 715 -104 631 -189 b 158 -89 333 -189 228 -151 l 108 -164 b 449 -276 185 -236 315 -276 b 814 89 690 -276 814 -162 l 814 731 z m 440 115 b 164 383 279 115 164 225 b 440 650 164 542 279 650 b 718 383 601 650 718 542 b 440 115 718 225 601 115 z "},"ģ":{"ha":953,"x_min":0,"x_max":0,"o":"m 451 836 b 515 890 492 836 515 860 b 472 942 515 917 499 936 l 511 1085 l 451 1085 l 403 951 b 388 890 393 925 388 910 b 451 836 388 861 410 836 z m 719 731 l 719 590 b 431 736 658 686 553 736 b 64 383 222 736 64 593 b 431 28 64 174 222 28 b 715 169 550 28 654 76 l 715 76 b 446 -189 715 -104 631 -189 b 158 -89 333 -189 228 -151 l 108 -164 b 449 -276 185 -236 315 -276 b 814 89 690 -276 814 -162 l 814 731 z m 440 115 b 164 383 279 115 164 225 b 440 650 164 542 279 650 b 718 383 601 650 718 542 b 440 115 718 225 601 115 z "},"ġ":{"ha":953,"x_min":0,"x_max":0,"o":"m 451 875 b 518 942 489 875 518 904 b 451 1008 518 979 489 1008 b 385 942 414 1008 385 979 b 451 875 385 904 414 875 z m 719 731 l 719 590 b 431 736 658 686 553 736 b 64 383 222 736 64 593 b 431 28 64 174 222 28 b 715 169 550 28 654 76 l 715 76 b 446 -189 715 -104 631 -189 b 158 -89 333 -189 228 -151 l 108 -164 b 449 -276 185 -236 315 -276 b 814 89 690 -276 814 -162 l 814 731 z m 440 115 b 164 383 279 115 164 225 b 440 650 164 542 279 650 b 718 383 601 650 718 542 b 440 115 718 225 601 115 z "},"ḡ":{"ha":953,"x_min":0,"x_max":0,"o":"m 665 961 l 238 961 l 238 896 l 665 896 z m 719 731 l 719 590 b 431 736 658 686 553 736 b 64 383 222 736 64 593 b 431 28 64 174 222 28 b 715 169 550 28 654 76 l 715 76 b 446 -189 715 -104 631 -189 b 158 -89 333 -189 228 -151 l 108 -164 b 449 -276 185 -236 315 -276 b 814 89 690 -276 814 -162 l 814 731 z m 440 115 b 164 383 279 115 164 225 b 440 650 164 542 279 650 b 718 383 601 650 718 542 b 440 115 718 225 601 115 z "},"ǥ":{"ha":960,"x_min":0,"x_max":0,"o":"m 903 -15 l 806 -15 b 814 89 811 17 814 51 l 814 731 l 719 731 l 719 594 b 431 736 658 688 553 736 b 64 393 222 736 64 597 b 431 49 64 189 222 49 b 715 185 550 49 654 96 l 715 76 b 706 -15 715 43 713 13 l 400 -15 l 400 -86 l 679 -86 b 446 -189 639 -156 561 -189 b 158 -89 333 -189 228 -151 l 108 -164 b 449 -276 185 -236 315 -276 b 786 -86 625 -276 738 -217 l 903 -86 z m 440 132 b 164 393 279 132 164 239 b 440 653 164 547 279 653 b 718 393 601 653 718 547 b 440 132 718 239 601 132 z "},"h":{"ha":940,"x_min":0,"x_max":0,"o":"m 510 736 b 236 603 386 736 290 688 l 236 1031 l 138 1031 l 138 0 l 236 0 l 236 383 b 492 647 236 550 335 647 b 711 414 631 647 711 568 l 711 0 l 810 0 l 810 424 b 510 736 810 633 688 736 z "},"ħ":{"ha":940,"x_min":0,"x_max":0,"o":"m 510 736 b 236 603 386 736 290 688 l 236 843 l 542 843 l 542 915 l 236 915 l 236 1031 l 138 1031 l 138 915 l 0 915 l 0 843 l 138 843 l 138 0 l 236 0 l 236 383 b 492 647 236 550 335 647 b 711 414 631 647 711 568 l 711 0 l 810 0 l 810 424 b 510 736 810 633 688 736 z "},"ḫ":{"ha":940,"x_min":0,"x_max":0,"o":"m 510 736 b 236 603 386 736 290 688 l 236 1031 l 138 1031 l 138 0 l 236 0 l 236 383 b 492 647 236 550 335 647 b 711 414 631 647 711 568 l 711 0 l 810 0 l 810 424 b 510 736 810 633 688 736 z m 472 -228 b 328 -117 392 -228 329 -185 l 261 -117 b 472 -285 265 -219 356 -285 b 683 -117 589 -285 679 -219 l 617 -117 b 472 -228 615 -185 553 -228 z "},"ȟ":{"ha":940,"x_min":0,"x_max":0,"o":"m 238 1143 l 417 1315 l 325 1315 l 188 1201 l 50 1315 l -42 1315 l 138 1143 z m 510 736 b 236 603 386 736 290 688 l 236 1031 l 138 1031 l 138 0 l 236 0 l 236 383 b 492 647 236 550 335 647 b 711 414 631 647 711 568 l 711 0 l 810 0 l 810 424 b 510 736 810 633 688 736 z "},"ĥ":{"ha":940,"x_min":0,"x_max":0,"o":"m 325 1110 l 417 1110 l 238 1282 l 138 1282 l -42 1110 l 50 1110 l 188 1225 z m 510 736 b 236 603 386 736 290 688 l 236 1031 l 138 1031 l 138 0 l 236 0 l 236 383 b 492 647 236 550 335 647 b 711 414 631 647 711 568 l 711 0 l 810 0 l 810 424 b 510 736 810 633 688 736 z "},"ḥ":{"ha":940,"x_min":0,"x_max":0,"o":"m 510 736 b 236 603 386 736 290 688 l 236 1031 l 138 1031 l 138 0 l 236 0 l 236 383 b 492 647 236 550 335 647 b 711 414 631 647 711 568 l 711 0 l 810 0 l 810 424 b 510 736 810 633 688 736 z m 472 -144 b 413 -204 439 -144 413 -169 b 472 -264 413 -239 439 -264 b 532 -204 506 -264 532 -239 b 472 -144 532 -169 506 -144 z "},"i":{"ha":374,"x_min":0,"x_max":0,"o":"m 188 890 b 260 963 229 890 260 922 b 188 1031 260 1000 228 1031 b 115 961 147 1031 115 999 b 188 890 115 922 147 890 z m 138 0 l 236 0 l 236 731 l 138 731 z "},"ı":{"ha":374,"x_min":0,"x_max":0,"o":"m 138 0 l 236 0 l 236 731 l 138 731 z "},"í":{"ha":374,"x_min":0,"x_max":0,"o":"m 97 843 l 194 843 l 419 1015 l 288 1015 z m 138 0 l 236 0 l 236 731 l 138 731 z "},"ĭ":{"ha":374,"x_min":0,"x_max":0,"o":"m 188 836 b 364 1015 289 836 364 904 l 299 1015 b 188 897 299 942 254 897 b 78 1015 121 897 78 942 l 11 1015 b 188 836 11 904 86 836 z m 138 0 l 236 0 l 236 731 l 138 731 z "},"î":{"ha":374,"x_min":0,"x_max":0,"o":"m 236 1015 l 139 1015 l -7 843 l 82 843 l 188 956 l 293 843 l 382 843 z m 138 0 l 236 0 l 236 731 l 138 731 z "},"ȉ":{"ha":374,"x_min":0,"x_max":0,"o":"m 31 843 l 118 843 l -15 1015 l -125 1015 z m 257 843 l 344 843 l 210 1015 l 100 1015 z m 138 0 l 236 0 l 236 731 l 138 731 z "},"ï":{"ha":374,"x_min":0,"x_max":0,"o":"m 96 875 b 153 935 128 875 153 900 b 96 993 153 968 128 993 b 38 935 63 993 38 967 b 96 875 38 901 63 875 z m 279 875 b 338 935 313 875 338 900 b 279 993 338 968 313 993 b 222 935 247 993 222 967 b 279 875 222 901 247 875 z m 138 0 l 236 0 l 236 731 l 138 731 z "},"ḯ":{"ha":374,"x_min":0,"x_max":0,"o":"m 103 1026 l 190 1026 l 390 1178 l 271 1178 z m 65 875 b 124 933 97 875 124 900 b 65 990 124 965 97 990 b 7 933 33 990 7 965 b 65 875 7 900 33 875 z m 310 875 b 368 933 342 875 368 900 b 310 990 368 965 342 990 b 251 933 279 990 251 965 b 310 875 251 900 279 875 z m 138 0 l 236 0 l 236 731 l 138 731 z "},"ị":{"ha":374,"x_min":0,"x_max":0,"o":"m 188 890 b 260 963 229 890 260 922 b 188 1031 260 1000 228 1031 b 115 961 147 1031 115 999 b 188 890 115 922 147 890 z m 138 0 l 236 0 l 236 731 l 138 731 z m 188 -264 b 247 -204 221 -264 247 -239 b 188 -144 247 -169 221 -144 b 128 -204 154 -144 128 -169 b 188 -264 128 -239 154 -264 z "},"ì":{"ha":374,"x_min":0,"x_max":0,"o":"m 181 843 l 278 843 l 88 1015 l -44 1015 z m 138 0 l 236 0 l 236 731 l 138 731 z "},"ỉ":{"ha":374,"x_min":0,"x_max":0,"o":"m 206 833 b 317 982 281 868 317 917 b 185 1101 317 1056 263 1101 b 69 1065 144 1101 100 1089 l 93 1017 b 176 1043 121 1035 147 1043 b 253 975 221 1043 253 1014 b 171 876 253 933 226 901 z m 138 0 l 236 0 l 236 731 l 138 731 z "},"ȋ":{"ha":374,"x_min":0,"x_max":0,"o":"m 11 843 l 78 843 b 188 961 78 915 121 961 b 299 843 254 961 299 915 l 364 843 b 188 1021 364 954 289 1021 b 11 843 86 1021 11 954 z m 138 0 l 236 0 l 236 731 l 138 731 z "},"ĳ":{"ha":754,"x_min":0,"x_max":0,"o":"m 568 892 b 640 964 610 892 640 924 b 568 1032 640 1001 608 1032 b 496 963 528 1032 496 1000 b 568 892 496 924 528 892 z m 188 890 b 260 963 229 890 260 922 b 188 1031 260 1000 228 1031 b 115 961 147 1031 115 999 b 188 890 115 922 147 890 z m 138 0 l 236 0 l 236 731 l 138 731 z m 403 -276 b 617 -54 542 -276 617 -189 l 617 731 l 518 731 l 518 -54 b 397 -192 518 -144 475 -192 b 283 -154 351 -192 313 -179 l 249 -229 b 403 -276 285 -261 344 -276 z "},"ī":{"ha":374,"x_min":0,"x_max":0,"o":"m 13 896 l 363 896 l 363 961 l 13 961 z m 138 0 l 236 0 l 236 731 l 138 731 z "},"į":{"ha":374,"x_min":0,"x_max":0,"o":"m 188 890 b 260 963 229 890 260 922 b 188 1031 260 1000 228 1031 b 115 961 147 1031 115 999 b 188 890 115 922 147 890 z m 269 -226 b 218 -246 254 -239 238 -246 b 156 -169 185 -246 156 -218 b 236 0 156 -125 167 -71 l 236 731 l 138 731 l 138 0 l 161 0 b 83 -179 104 -62 83 -125 b 207 -306 83 -256 133 -306 b 289 -276 240 -306 269 -296 z "},"ĩ":{"ha":374,"x_min":0,"x_max":0,"o":"m 267 851 b 372 1001 333 851 372 908 l 313 1001 b 263 917 313 949 294 917 b 108 1010 217 917 188 1010 b 3 857 42 1010 3 954 l 63 857 b 113 946 63 911 81 946 b 267 851 158 946 188 851 z m 138 0 l 236 0 l 236 731 l 138 731 z "},"j":{"ha":381,"x_min":0,"x_max":0,"o":"m 194 890 b 267 963 236 890 267 922 b 194 1031 267 1000 235 1031 b 122 961 154 1031 122 999 b 194 890 122 922 154 890 z m 29 -276 b 243 -54 168 -276 243 -189 l 243 731 l 144 731 l 144 -54 b 24 -192 144 -144 101 -192 b -90 -154 -22 -192 -61 -179 l -125 -229 b 29 -276 -89 -261 -29 -276 z "},"ȷ":{"ha":381,"x_min":0,"x_max":0,"o":"m 29 -276 b 243 -54 168 -276 243 -189 l 243 731 l 144 731 l 144 -54 b 24 -192 144 -144 101 -192 b -90 -154 -22 -192 -61 -179 l -125 -229 b 29 -276 -89 -261 -29 -276 z "},"ĵ":{"ha":381,"x_min":0,"x_max":0,"o":"m 243 1015 l 146 1015 l 0 843 l 89 843 l 194 956 l 300 843 l 389 843 z m 144 -54 b 24 -192 144 -144 101 -192 b -90 -154 -22 -192 -61 -179 l -125 -229 b 29 -276 -89 -261 -29 -276 b 243 -54 168 -276 243 -189 l 243 731 l 144 731 z "},"k":{"ha":835,"x_min":0,"x_max":0,"o":"m 703 0 l 824 0 l 482 432 l 794 731 l 672 731 l 236 332 l 236 1031 l 138 1031 l 138 0 l 236 0 l 236 208 l 408 367 z "},"ǩ":{"ha":835,"x_min":0,"x_max":0,"o":"m 238 1143 l 417 1315 l 325 1315 l 188 1201 l 50 1315 l -42 1315 l 138 1143 z m 703 0 l 824 0 l 482 432 l 794 731 l 672 731 l 236 332 l 236 1031 l 138 1031 l 138 0 l 236 0 l 236 208 l 408 367 z "},"ķ":{"ha":835,"x_min":0,"x_max":0,"o":"m 482 432 l 794 731 l 672 731 l 236 332 l 236 1031 l 138 1031 l 138 0 l 236 0 l 236 208 l 408 367 l 703 0 l 824 0 z m 432 -144 b 372 -199 396 -144 372 -168 b 413 -250 372 -225 388 -244 l 383 -364 l 438 -364 l 476 -261 b 492 -199 488 -236 492 -217 b 432 -144 492 -169 468 -144 z "},"ĸ":{"ha":819,"x_min":0,"x_max":0,"o":"m 703 0 l 824 0 l 482 432 l 794 731 l 672 731 l 236 332 l 236 731 l 138 731 l 138 0 l 236 0 l 236 208 l 408 367 z "},"l":{"ha":374,"x_min":0,"x_max":0,"o":"m 138 0 l 236 0 l 236 1031 l 138 1031 z "},"ĺ":{"ha":374,"x_min":0,"x_max":0,"o":"m 97 1143 l 194 1143 l 419 1315 l 288 1315 z m 138 0 l 236 0 l 236 1031 l 138 1031 z "},"ľ":{"ha":374,"x_min":0,"x_max":0,"o":"m 364 808 l 435 808 l 447 1071 l 364 1071 z m 138 0 l 236 0 l 236 1031 l 138 1031 z "},"ļ":{"ha":374,"x_min":0,"x_max":0,"o":"m 236 1031 l 138 1031 l 138 0 l 236 0 z m 188 -144 b 128 -199 151 -144 128 -168 b 168 -250 128 -225 143 -244 l 139 -364 l 193 -364 l 232 -261 b 247 -199 243 -236 247 -217 b 188 -144 247 -169 224 -144 z "},"ŀ":{"ha":436,"x_min":0,"x_max":0,"o":"m 138 0 l 236 0 l 236 1031 l 138 1031 z m 406 428 b 471 493 442 428 471 457 b 406 558 471 529 442 558 b 340 493 368 558 340 529 b 406 428 340 457 368 428 z "},"ḷ":{"ha":374,"x_min":0,"x_max":0,"o":"m 138 0 l 236 0 l 236 1031 l 138 1031 z m 188 -264 b 247 -204 221 -264 247 -239 b 188 -144 247 -169 221 -144 b 128 -204 154 -144 128 -169 b 188 -264 128 -239 154 -264 z "},"ǉ":{"ha":754,"x_min":0,"x_max":0,"o":"m 138 0 l 236 0 l 236 1031 l 138 1031 z m 568 890 b 640 963 610 890 640 922 b 568 1031 640 1000 608 1031 b 496 961 528 1031 496 999 b 568 890 496 922 528 890 z m 403 -276 b 617 -54 542 -276 617 -189 l 617 731 l 518 731 l 518 -54 b 397 -192 518 -144 475 -192 b 283 -154 351 -192 313 -179 l 249 -229 b 403 -276 285 -261 344 -276 z "},"ḻ":{"ha":374,"x_min":0,"x_max":0,"o":"m 138 0 l 236 0 l 236 1031 l 138 1031 z m -26 -235 l 401 -235 l 401 -169 l -26 -169 z "},"ł":{"ha":388,"x_min":0,"x_max":0,"o":"m 385 590 l 340 651 l 243 578 l 243 1031 l 144 1031 l 144 504 l 4 399 l 50 339 l 144 410 l 144 0 l 243 0 l 243 483 z "},"m":{"ha":1474,"x_min":0,"x_max":0,"o":"m 1049 736 b 760 582 917 736 813 676 b 500 736 715 685 621 736 b 232 597 378 736 283 685 l 232 731 l 138 731 l 138 0 l 236 0 l 236 383 b 481 647 236 550 332 647 b 692 414 614 647 692 568 l 692 0 l 790 0 l 790 383 b 1035 647 790 550 885 647 b 1244 414 1167 647 1244 568 l 1244 0 l 1343 0 l 1343 424 b 1049 736 1343 633 1226 736 z "},"ṃ":{"ha":1474,"x_min":0,"x_max":0,"o":"m 1049 736 b 760 582 917 736 813 676 b 500 736 715 685 621 736 b 232 597 378 736 283 685 l 232 731 l 138 731 l 138 0 l 236 0 l 236 383 b 481 647 236 550 332 647 b 692 414 614 647 692 568 l 692 0 l 790 0 l 790 383 b 1035 647 790 550 885 647 b 1244 414 1167 647 1244 568 l 1244 0 l 1343 0 l 1343 424 b 1049 736 1343 633 1226 736 z m 739 -144 b 679 -204 706 -144 679 -169 b 739 -264 679 -239 706 -264 b 799 -204 772 -264 799 -239 b 739 -144 799 -169 772 -144 z "},"n":{"ha":940,"x_min":0,"x_max":0,"o":"m 510 736 b 232 596 383 736 285 685 l 232 731 l 138 731 l 138 0 l 236 0 l 236 383 b 492 647 236 550 335 647 b 711 414 631 647 711 568 l 711 0 l 810 0 l 810 424 b 510 736 810 633 688 736 z "},"ń":{"ha":940,"x_min":0,"x_max":0,"o":"m 704 1015 l 572 1015 l 382 843 l 479 843 z m 510 736 b 232 596 383 736 285 685 l 232 731 l 138 731 l 138 0 l 236 0 l 236 383 b 492 647 236 550 335 647 b 711 414 631 647 711 568 l 711 0 l 810 0 l 810 424 b 510 736 810 633 688 736 z "},"ŉ":{"ha":1042,"x_min":0,"x_max":0,"o":"m 79 611 l 138 611 l 156 972 l 85 972 z m 611 736 b 333 596 485 736 386 685 l 333 731 l 239 731 l 239 0 l 338 0 l 338 383 b 593 647 338 550 436 647 b 813 414 732 647 813 568 l 813 0 l 911 0 l 911 424 b 611 736 911 633 789 736 z "},"ň":{"ha":940,"x_min":0,"x_max":0,"o":"m 522 843 l 701 1015 l 610 1015 l 472 901 l 335 1015 l 243 1015 l 422 843 z m 510 736 b 232 596 383 736 285 685 l 232 731 l 138 731 l 138 0 l 236 0 l 236 383 b 492 647 236 550 335 647 b 711 414 631 647 711 568 l 711 0 l 810 0 l 810 424 b 510 736 810 633 688 736 z "},"ņ":{"ha":940,"x_min":0,"x_max":0,"o":"m 510 736 b 232 596 383 736 285 685 l 232 731 l 138 731 l 138 0 l 236 0 l 236 383 b 492 647 236 550 335 647 b 711 414 631 647 711 568 l 711 0 l 810 0 l 810 424 b 510 736 810 633 688 736 z m 472 -144 b 413 -199 436 -144 413 -168 b 453 -250 413 -225 428 -244 l 424 -364 l 478 -364 l 517 -261 b 532 -199 528 -236 532 -217 b 472 -144 532 -169 508 -144 z "},"ṅ":{"ha":940,"x_min":0,"x_max":0,"o":"m 472 875 b 539 942 510 875 539 904 b 472 1008 539 979 510 1008 b 406 942 435 1008 406 979 b 472 875 406 904 435 875 z m 510 736 b 232 596 383 736 285 685 l 232 731 l 138 731 l 138 0 l 236 0 l 236 383 b 492 647 236 550 335 647 b 711 414 631 647 711 568 l 711 0 l 810 0 l 810 424 b 510 736 810 633 688 736 z "},"ṇ":{"ha":940,"x_min":0,"x_max":0,"o":"m 510 736 b 232 596 383 736 285 685 l 232 731 l 138 731 l 138 0 l 236 0 l 236 383 b 492 647 236 550 335 647 b 711 414 631 647 711 568 l 711 0 l 810 0 l 810 424 b 510 736 810 633 688 736 z m 472 -144 b 413 -204 439 -144 413 -169 b 472 -264 413 -239 439 -264 b 532 -204 506 -264 532 -239 b 472 -144 532 -169 506 -144 z "},"ŋ":{"ha":940,"x_min":0,"x_max":0,"o":"m 510 736 b 232 596 383 736 285 685 l 232 731 l 138 731 l 138 0 l 236 0 l 236 383 b 492 647 236 550 335 647 b 711 414 631 647 711 568 l 711 -54 b 590 -192 711 -144 668 -192 b 476 -154 544 -192 504 -179 l 442 -229 b 596 -276 478 -261 536 -276 b 810 -54 733 -276 810 -189 l 810 424 b 510 736 810 633 688 736 z "},"ǌ":{"ha":1321,"x_min":0,"x_max":0,"o":"m 1135 1031 b 1063 961 1094 1031 1063 999 b 1135 890 1063 922 1094 890 b 1207 963 1176 890 1207 922 b 1135 1031 1207 1000 1175 1031 z m 510 736 b 232 596 383 736 285 685 l 232 731 l 138 731 l 138 0 l 236 0 l 236 383 b 492 647 236 550 335 647 b 711 414 631 647 711 568 l 711 0 l 810 0 l 810 424 b 510 736 810 633 688 736 z m 1085 -54 b 964 -192 1085 -144 1042 -192 b 850 -154 918 -192 879 -179 l 815 -229 b 969 -276 851 -261 911 -276 b 1183 -54 1108 -276 1183 -189 l 1183 731 l 1085 731 z "},"ṉ":{"ha":940,"x_min":0,"x_max":0,"o":"m 510 736 b 232 596 383 736 285 685 l 232 731 l 138 731 l 138 0 l 236 0 l 236 383 b 492 647 236 550 335 647 b 711 414 631 647 711 568 l 711 0 l 810 0 l 810 424 b 510 736 810 633 688 736 z m 258 -235 l 686 -235 l 686 -169 l 258 -169 z "},"ñ":{"ha":940,"x_min":0,"x_max":0,"o":"m 385 946 b 567 851 440 946 481 851 b 692 1001 640 851 689 911 l 632 1001 b 560 915 629 949 601 915 b 378 1010 506 915 464 1010 b 253 857 304 1010 256 950 l 313 857 b 385 946 315 913 343 946 z m 510 736 b 232 596 383 736 285 685 l 232 731 l 138 731 l 138 0 l 236 0 l 236 383 b 492 647 236 550 335 647 b 711 414 631 647 711 568 l 711 0 l 810 0 l 810 424 b 510 736 810 633 688 736 z "},"o":{"ha":871,"x_min":0,"x_max":0,"o":"m 436 -7 b 807 365 650 -7 807 149 b 436 736 807 582 650 736 b 64 365 222 736 64 582 b 436 -7 64 149 222 -7 z m 436 81 b 164 365 281 81 164 194 b 436 650 164 536 281 650 b 707 365 592 650 707 536 b 436 81 707 194 592 81 z "},"ó":{"ha":871,"x_min":0,"x_max":0,"o":"m 344 843 l 442 843 l 667 1015 l 535 1015 z m 436 -7 b 807 365 650 -7 807 149 b 436 736 807 582 650 736 b 64 365 222 736 64 582 b 436 -7 64 149 222 -7 z m 436 81 b 164 365 281 81 164 194 b 436 650 164 536 281 650 b 707 365 592 650 707 536 b 436 81 707 194 592 81 z "},"ŏ":{"ha":871,"x_min":0,"x_max":0,"o":"m 435 836 b 646 1015 551 836 642 904 l 576 1015 b 435 897 574 942 513 897 b 293 1015 357 897 296 942 l 224 1015 b 435 836 228 904 318 836 z m 436 -7 b 807 365 650 -7 807 149 b 436 736 807 582 650 736 b 64 365 222 736 64 582 b 436 -7 64 149 222 -7 z m 436 81 b 164 365 281 81 164 194 b 436 650 164 536 281 650 b 707 365 592 650 707 536 b 436 81 707 194 592 81 z "},"ô":{"ha":871,"x_min":0,"x_max":0,"o":"m 435 958 l 572 843 l 664 843 l 485 1015 l 385 1015 l 206 843 l 297 843 z m 436 736 b 64 365 222 736 64 582 b 436 -7 64 149 222 -7 b 807 365 650 -7 807 149 b 436 736 807 582 650 736 z m 436 81 b 164 365 281 81 164 194 b 436 650 164 536 281 650 b 707 365 592 650 707 536 b 436 81 707 194 592 81 z "},"ố":{"ha":871,"x_min":0,"x_max":0,"o":"m 849 1111 l 729 1111 l 561 960 l 649 960 z m 435 925 l 569 843 l 664 843 l 483 974 l 386 974 l 206 843 l 300 843 z m 436 736 b 64 365 222 736 64 582 b 436 -7 64 149 222 -7 b 807 365 650 -7 807 149 b 436 736 807 582 650 736 z m 436 81 b 164 365 281 81 164 194 b 436 650 164 536 281 650 b 707 365 592 650 707 536 b 436 81 707 194 592 81 z "},"ộ":{"ha":871,"x_min":0,"x_max":0,"o":"m 435 958 l 572 843 l 664 843 l 485 1015 l 385 1015 l 206 843 l 297 843 z m 436 736 b 64 365 222 736 64 582 b 436 -7 64 149 222 -7 b 807 365 650 -7 807 149 b 436 736 807 582 650 736 z m 436 81 b 164 365 281 81 164 194 b 436 650 164 536 281 650 b 707 365 592 650 707 536 b 436 81 707 194 592 81 z m 435 -144 b 375 -204 401 -144 375 -169 b 435 -264 375 -239 401 -264 b 494 -204 468 -264 494 -239 b 435 -144 494 -169 468 -144 z "},"ồ":{"ha":871,"x_min":0,"x_max":0,"o":"m 731 960 l 564 1111 l 443 1111 l 644 960 z m 435 925 l 569 843 l 664 843 l 483 974 l 386 974 l 206 843 l 300 843 z m 436 736 b 64 365 222 736 64 582 b 436 -7 64 149 222 -7 b 807 365 650 -7 807 149 b 436 736 807 582 650 736 z m 436 81 b 164 365 281 81 164 194 b 436 650 164 536 281 650 b 707 365 592 650 707 536 b 436 81 707 194 592 81 z "},"ổ":{"ha":871,"x_min":0,"x_max":0,"o":"m 592 1086 b 647 1040 624 1086 647 1068 b 589 971 647 1014 626 989 l 618 936 b 700 1046 669 958 700 997 b 600 1136 700 1099 663 1136 b 511 1110 568 1136 536 1126 l 532 1069 b 592 1086 551 1081 571 1086 z m 435 925 l 569 843 l 664 843 l 483 974 l 386 974 l 206 843 l 300 843 z m 436 736 b 64 365 222 736 64 582 b 436 -7 64 149 222 -7 b 807 365 650 -7 807 149 b 436 736 807 582 650 736 z m 436 81 b 164 365 281 81 164 194 b 436 650 164 536 281 650 b 707 365 592 650 707 536 b 436 81 707 194 592 81 z "},"ỗ":{"ha":871,"x_min":0,"x_max":0,"o":"m 346 1093 b 528 1018 401 1093 443 1018 b 650 1144 601 1018 649 1067 l 592 1144 b 524 1076 590 1103 567 1076 b 343 1151 468 1076 425 1151 b 219 1024 269 1151 221 1104 l 279 1024 b 346 1093 281 1068 304 1093 z m 435 925 l 569 843 l 664 843 l 483 974 l 386 974 l 206 843 l 300 843 z m 436 736 b 64 365 222 736 64 582 b 436 -7 64 149 222 -7 b 807 365 650 -7 807 149 b 436 736 807 582 650 736 z m 436 81 b 164 365 281 81 164 194 b 436 650 164 536 281 650 b 707 365 592 650 707 536 b 436 81 707 194 592 81 z "},"ȍ":{"ha":871,"x_min":0,"x_max":0,"o":"m 278 843 l 365 843 l 232 1015 l 122 1015 z m 504 843 l 592 843 l 457 1015 l 347 1015 z m 436 -7 b 807 365 650 -7 807 149 b 436 736 807 582 650 736 b 64 365 222 736 64 582 b 436 -7 64 149 222 -7 z m 436 81 b 164 365 281 81 164 194 b 436 650 164 536 281 650 b 707 365 592 650 707 536 b 436 81 707 194 592 81 z "},"ö":{"ha":871,"x_min":0,"x_max":0,"o":"m 311 875 b 371 935 343 875 371 900 b 311 994 371 968 343 994 b 251 935 278 994 251 968 b 311 875 251 900 278 875 z m 558 875 b 618 935 592 875 618 900 b 558 994 618 968 592 994 b 499 935 526 994 499 968 b 558 875 499 900 526 875 z m 436 -7 b 807 365 650 -7 807 149 b 436 736 807 582 650 736 b 64 365 222 736 64 582 b 436 -7 64 149 222 -7 z m 436 81 b 164 365 281 81 164 194 b 436 650 164 536 281 650 b 707 365 592 650 707 536 b 436 81 707 194 592 81 z "},"ȫ":{"ha":871,"x_min":0,"x_max":0,"o":"m 221 1060 l 649 1060 l 649 1122 l 221 1122 z m 313 875 b 371 933 344 875 371 900 b 313 990 371 965 344 990 b 254 933 281 990 254 965 b 313 875 254 900 281 875 z m 557 875 b 615 933 589 875 615 900 b 557 990 615 965 589 990 b 499 933 526 990 499 965 b 557 875 499 900 526 875 z m 436 -7 b 807 365 650 -7 807 149 b 436 736 807 582 650 736 b 64 365 222 736 64 582 b 436 -7 64 149 222 -7 z m 436 81 b 164 365 281 81 164 194 b 436 650 164 536 281 650 b 707 365 592 650 707 536 b 436 81 707 194 592 81 z "},"ȱ":{"ha":871,"x_min":0,"x_max":0,"o":"m 221 1064 l 649 1064 l 649 1126 l 221 1126 z m 435 874 b 494 933 468 874 494 899 b 435 993 494 968 468 993 b 375 933 401 993 375 968 b 435 874 375 899 401 874 z m 436 -7 b 807 365 650 -7 807 149 b 436 736 807 582 650 736 b 64 365 222 736 64 582 b 436 -7 64 149 222 -7 z m 436 81 b 164 365 281 81 164 194 b 436 650 164 536 281 650 b 707 365 592 650 707 536 b 436 81 707 194 592 81 z "},"ọ":{"ha":871,"x_min":0,"x_max":0,"o":"m 436 -7 b 807 365 650 -7 807 149 b 436 736 807 582 650 736 b 64 365 222 736 64 582 b 436 -7 64 149 222 -7 z m 436 81 b 164 365 281 81 164 194 b 436 650 164 536 281 650 b 707 365 592 650 707 536 b 436 81 707 194 592 81 z m 435 -264 b 494 -204 468 -264 494 -239 b 435 -144 494 -169 468 -144 b 375 -204 401 -144 375 -169 b 435 -264 375 -239 401 -264 z "},"ò":{"ha":871,"x_min":0,"x_max":0,"o":"m 428 843 l 525 843 l 335 1015 l 203 1015 z m 436 -7 b 807 365 650 -7 807 149 b 436 736 807 582 650 736 b 64 365 222 736 64 582 b 436 -7 64 149 222 -7 z m 436 81 b 164 365 281 81 164 194 b 436 650 164 536 281 650 b 707 365 592 650 707 536 b 436 81 707 194 592 81 z "},"ỏ":{"ha":871,"x_min":0,"x_max":0,"o":"m 453 833 b 564 982 528 868 564 917 b 432 1101 564 1056 510 1101 b 317 1065 392 1101 347 1089 l 340 1017 b 424 1043 368 1035 394 1043 b 500 975 468 1043 500 1014 b 418 876 500 933 474 901 z m 436 -7 b 807 365 650 -7 807 149 b 436 736 807 582 650 736 b 64 365 222 736 64 582 b 436 -7 64 149 222 -7 z m 436 81 b 164 365 281 81 164 194 b 436 650 164 536 281 650 b 707 365 592 650 707 536 b 436 81 707 194 592 81 z "},"ơ":{"ha":871,"x_min":0,"x_max":0,"o":"m 661 665 b 794 822 747 683 794 744 b 757 939 794 865 778 907 l 693 914 b 721 825 708 889 721 860 b 608 728 721 774 686 728 b 436 736 542 728 511 736 b 64 365 222 736 64 582 b 436 -7 64 149 222 -7 b 807 365 650 -7 807 149 b 661 665 807 494 751 600 z m 436 81 b 164 365 281 81 164 194 b 436 650 164 536 281 650 b 707 365 592 650 707 536 b 436 81 707 194 590 81 z "},"ớ":{"ha":871,"x_min":0,"x_max":0,"o":"m 668 1015 l 536 1015 l 346 843 l 443 843 z m 661 665 b 794 822 747 683 794 744 b 757 939 794 865 778 907 l 693 914 b 721 825 708 889 721 860 b 608 728 721 774 686 728 b 436 736 542 728 511 736 b 64 365 222 736 64 582 b 436 -7 64 149 222 -7 b 807 365 650 -7 807 149 b 661 665 807 494 751 600 z m 436 81 b 164 365 281 81 164 194 b 436 650 164 536 281 650 b 707 365 592 650 707 536 b 436 81 707 194 590 81 z "},"ợ":{"ha":871,"x_min":0,"x_max":0,"o":"m 661 665 b 794 822 747 683 794 744 b 757 939 794 865 778 907 l 693 914 b 721 825 708 889 721 860 b 608 728 721 774 686 728 b 436 736 542 728 511 736 b 64 365 222 736 64 582 b 436 -7 64 149 222 -7 b 807 365 650 -7 807 149 b 661 665 807 494 751 600 z m 436 81 b 164 365 281 81 164 194 b 436 650 164 536 281 650 b 707 365 592 650 707 536 b 436 81 707 194 590 81 z m 436 -144 b 376 -204 403 -144 376 -169 b 436 -264 376 -239 403 -264 b 496 -204 469 -264 496 -239 b 436 -144 496 -169 469 -144 z "},"ờ":{"ha":871,"x_min":0,"x_max":0,"o":"m 526 843 l 336 1015 l 204 1015 l 429 843 z m 661 665 b 794 822 747 683 794 744 b 757 939 794 865 778 907 l 693 914 b 721 825 708 889 721 860 b 608 728 721 774 686 728 b 436 736 542 728 511 736 b 64 365 222 736 64 582 b 436 -7 64 149 222 -7 b 807 365 650 -7 807 149 b 661 665 807 494 751 600 z m 436 81 b 164 365 281 81 164 194 b 436 650 164 536 281 650 b 707 365 592 650 707 536 b 436 81 707 194 590 81 z "},"ở":{"ha":871,"x_min":0,"x_max":0,"o":"m 425 1043 b 501 975 469 1043 501 1014 b 419 876 501 933 475 901 l 454 833 b 565 982 529 868 565 917 b 433 1101 565 1056 511 1101 b 318 1065 393 1101 349 1089 l 342 1017 b 425 1043 369 1035 396 1043 z m 661 665 b 794 822 747 683 794 744 b 757 939 794 865 778 907 l 693 914 b 721 825 708 889 721 860 b 608 728 721 774 686 728 b 436 736 542 728 511 736 b 64 365 222 736 64 582 b 436 -7 64 149 222 -7 b 807 365 650 -7 807 149 b 661 665 807 494 751 600 z m 436 81 b 164 365 281 81 164 194 b 436 650 164 536 281 650 b 707 365 592 650 707 536 b 436 81 707 194 590 81 z "},"ỡ":{"ha":876,"x_min":0,"x_max":0,"o":"m 353 946 b 526 851 406 946 444 851 b 644 1001 596 851 642 911 l 588 1001 b 519 915 586 949 560 915 b 347 1010 468 915 428 1010 b 228 857 276 1010 231 950 l 285 857 b 353 946 288 913 314 946 z m 661 665 b 794 822 747 683 794 744 b 757 939 794 865 778 907 l 693 914 b 721 825 708 889 721 860 b 608 728 721 774 686 728 b 436 736 542 728 511 736 b 64 365 222 736 64 582 b 436 -7 64 149 222 -7 b 807 365 650 -7 807 149 b 661 665 807 494 751 600 z m 436 81 b 164 365 281 81 164 194 b 436 650 164 536 281 650 b 707 365 592 650 707 536 b 436 81 707 194 590 81 z "},"ő":{"ha":871,"x_min":0,"x_max":0,"o":"m 278 843 l 365 843 l 522 1015 l 413 1015 z m 504 843 l 592 843 l 747 1015 l 638 1015 z m 436 -7 b 807 365 650 -7 807 149 b 436 736 807 582 650 736 b 64 365 222 736 64 582 b 436 -7 64 149 222 -7 z m 436 81 b 164 365 281 81 164 194 b 436 650 164 536 281 650 b 707 365 592 650 707 536 b 436 81 707 194 592 81 z "},"ȏ":{"ha":871,"x_min":0,"x_max":0,"o":"m 224 843 l 293 843 b 435 961 296 915 357 961 b 576 843 513 961 574 915 l 646 843 b 435 1021 642 954 551 1021 b 224 843 318 1021 228 954 z m 436 -7 b 807 365 650 -7 807 149 b 436 736 807 582 650 736 b 64 365 222 736 64 582 b 436 -7 64 149 222 -7 z m 436 81 b 164 365 281 81 164 194 b 436 650 164 536 281 650 b 707 365 592 650 707 536 b 436 81 707 194 592 81 z "},"ō":{"ha":871,"x_min":0,"x_max":0,"o":"m 221 896 l 649 896 l 649 961 l 221 961 z m 436 -7 b 807 365 650 -7 807 149 b 436 736 807 582 650 736 b 64 365 222 736 64 582 b 436 -7 64 149 222 -7 z m 436 81 b 164 365 281 81 164 194 b 436 650 164 536 281 650 b 707 365 592 650 707 536 b 436 81 707 194 592 81 z "},"ṓ":{"ha":871,"x_min":0,"x_max":0,"o":"m 350 1026 l 438 1026 l 638 1178 l 518 1178 z m 221 876 l 649 876 l 649 939 l 221 939 z m 436 -7 b 807 365 650 -7 807 149 b 436 736 807 582 650 736 b 64 365 222 736 64 582 b 436 -7 64 149 222 -7 z m 436 81 b 164 365 281 81 164 194 b 436 650 164 536 281 650 b 707 365 592 650 707 536 b 436 81 707 194 592 81 z "},"ṑ":{"ha":871,"x_min":0,"x_max":0,"o":"m 433 1026 l 519 1026 l 353 1178 l 232 1178 z m 221 876 l 649 876 l 649 939 l 221 939 z m 436 -7 b 807 365 650 -7 807 149 b 436 736 807 582 650 736 b 64 365 222 736 64 582 b 436 -7 64 149 222 -7 z m 436 81 b 164 365 281 81 164 194 b 436 650 164 536 281 650 b 707 365 592 650 707 536 b 436 81 707 194 592 81 z "},"ǫ":{"ha":871,"x_min":0,"x_max":0,"o":"m 592 24 b 807 365 724 82 807 206 b 436 736 807 582 650 736 b 64 365 222 736 64 582 b 428 -7 64 151 218 -3 b 322 -176 347 -61 322 -121 b 476 -306 322 -254 382 -306 b 593 -272 519 -306 561 -294 l 571 -218 b 486 -244 549 -236 517 -244 b 396 -167 433 -244 396 -218 b 592 24 396 -112 426 -51 z m 164 365 b 436 650 164 536 281 650 b 707 365 592 650 707 536 b 436 81 707 194 592 81 b 164 365 281 81 164 194 z "},"ø":{"ha":871,"x_min":0,"x_max":0,"o":"m 665 663 l 774 825 l 708 825 l 619 692 b 436 736 567 721 504 736 b 64 365 222 736 64 582 b 204 68 64 239 117 135 l 93 -99 l 160 -99 l 250 38 b 436 -7 304 10 368 -7 b 807 365 650 -7 807 149 b 665 663 807 492 753 597 z m 164 365 b 436 650 164 536 281 650 b 569 617 486 650 531 639 l 256 146 b 164 365 199 196 164 272 z m 436 81 b 301 114 386 81 340 92 l 615 586 b 707 365 672 536 707 460 b 436 81 707 194 592 81 z "},"ǿ":{"ha":871,"x_min":0,"x_max":0,"o":"m 665 1015 l 533 1015 l 343 843 l 440 843 z m 665 663 l 774 825 l 708 825 l 619 692 b 436 736 567 721 504 736 b 64 365 222 736 64 582 b 204 68 64 239 117 135 l 93 -99 l 160 -99 l 250 38 b 436 -7 304 10 368 -7 b 807 365 650 -7 807 149 b 665 663 807 492 753 597 z m 164 365 b 436 650 164 536 281 650 b 569 617 486 650 531 639 l 256 146 b 164 365 199 196 164 272 z m 436 81 b 301 114 386 81 340 92 l 615 586 b 707 365 672 536 707 460 b 436 81 707 194 592 81 z "},"õ":{"ha":871,"x_min":0,"x_max":0,"o":"m 529 851 b 654 1001 603 851 651 911 l 594 1001 b 522 915 592 949 564 915 b 340 1010 468 915 426 1010 b 215 857 267 1010 218 950 l 275 857 b 347 946 278 913 306 946 b 529 851 403 946 443 851 z m 436 -7 b 807 365 650 -7 807 149 b 436 736 807 582 650 736 b 64 365 222 736 64 582 b 436 -7 64 149 222 -7 z m 436 81 b 164 365 281 81 164 194 b 436 650 164 536 281 650 b 707 365 592 650 707 536 b 436 81 707 194 592 81 z "},"ṍ":{"ha":871,"x_min":0,"x_max":0,"o":"m 350 1026 l 438 1026 l 638 1178 l 518 1178 z m 528 854 b 650 981 601 854 649 903 l 592 981 b 524 913 590 939 567 913 b 343 988 468 913 425 988 b 219 860 269 988 221 940 l 279 860 b 346 929 281 904 304 929 b 528 854 401 929 443 854 z m 436 -7 b 807 365 650 -7 807 149 b 436 736 807 582 650 736 b 64 365 222 736 64 582 b 436 -7 64 149 222 -7 z m 436 81 b 164 365 281 81 164 194 b 436 650 164 536 281 650 b 707 365 592 650 707 536 b 436 81 707 194 592 81 z "},"ṏ":{"ha":871,"x_min":0,"x_max":0,"o":"m 313 1058 b 371 1117 344 1058 371 1083 b 313 1174 371 1149 344 1174 b 254 1117 281 1174 254 1149 b 313 1058 254 1083 281 1058 z m 557 1058 b 615 1117 589 1058 615 1083 b 557 1174 615 1149 589 1174 b 499 1117 526 1174 499 1149 b 557 1058 499 1083 526 1058 z m 528 854 b 650 981 601 854 649 903 l 592 981 b 524 913 590 939 567 913 b 343 988 468 913 425 988 b 219 860 269 988 221 940 l 279 860 b 346 929 281 904 304 929 b 528 854 401 929 443 854 z m 436 -7 b 807 365 650 -7 807 149 b 436 736 807 582 650 736 b 64 365 222 736 64 582 b 436 -7 64 149 222 -7 z m 436 81 b 164 365 281 81 164 194 b 436 650 164 536 281 650 b 707 365 592 650 707 536 b 436 81 707 194 592 81 z "},"ȭ":{"ha":871,"x_min":0,"x_max":0,"o":"m 221 1060 l 649 1060 l 649 1122 l 221 1122 z m 528 854 b 650 981 601 854 649 903 l 592 981 b 524 913 590 939 567 913 b 343 988 468 913 425 988 b 219 860 269 988 221 940 l 279 860 b 346 929 281 904 304 929 b 528 854 401 929 443 854 z m 436 -7 b 807 365 650 -7 807 149 b 436 736 807 582 650 736 b 64 365 222 736 64 582 b 436 -7 64 149 222 -7 z m 436 81 b 164 365 281 81 164 194 b 436 650 164 536 281 650 b 707 365 592 650 707 536 b 436 81 707 194 592 81 z "},"œ":{"ha":1483,"x_min":0,"x_max":0,"o":"m 1419 365 b 1065 736 1419 585 1269 736 b 756 550 925 736 813 664 b 436 736 697 664 581 736 b 64 365 222 736 64 582 b 436 -7 64 149 222 -7 b 756 182 582 -7 697 67 b 1092 -7 815 67 935 -7 b 1372 113 1207 -7 1307 35 l 1317 176 b 1094 81 1263 113 1183 81 b 806 335 933 81 817 182 l 1418 335 b 1419 365 1418 346 1419 357 z m 1065 651 b 1325 408 1207 651 1313 551 l 806 408 b 1065 651 818 551 924 651 z m 436 81 b 164 365 281 81 164 194 b 436 650 164 536 281 650 b 707 365 592 650 707 536 b 436 81 707 194 592 81 z "},"p":{"ha":942,"x_min":0,"x_max":0,"o":"m 514 736 b 232 586 393 736 292 683 l 232 731 l 138 731 l 138 -269 l 236 -269 l 236 138 b 514 -7 297 43 397 -7 b 878 365 722 -7 878 143 b 514 736 878 586 722 736 z m 507 81 b 235 365 351 81 235 194 b 507 650 235 535 351 650 b 779 365 661 650 779 535 b 507 81 779 194 661 81 z "},"þ":{"ha":942,"x_min":0,"x_max":0,"o":"m 514 736 b 236 593 396 736 296 686 l 236 1031 l 138 1031 l 138 -269 l 236 -269 l 236 138 b 514 -7 297 43 397 -7 b 878 365 722 -7 878 143 b 514 736 878 586 722 736 z m 507 81 b 235 365 351 81 235 194 b 507 650 235 535 351 650 b 779 365 661 650 779 535 b 507 81 779 194 661 81 z "},"q":{"ha":942,"x_min":0,"x_max":0,"o":"m 710 731 l 710 586 b 428 736 650 683 549 736 b 64 365 219 736 64 586 b 428 -7 64 143 219 -7 b 706 138 544 -7 644 43 l 706 -269 l 804 -269 l 804 731 z m 436 81 b 164 365 281 81 164 194 b 436 650 164 535 281 650 b 707 365 590 650 707 535 b 436 81 707 194 590 81 z "},"r":{"ha":557,"x_min":0,"x_max":0,"o":"m 232 588 l 232 731 l 138 731 l 138 0 l 236 0 l 236 372 b 482 642 236 544 329 642 b 506 640 489 642 497 640 l 506 736 b 232 588 371 736 278 685 z "},"ŕ":{"ha":557,"x_min":0,"x_max":0,"o":"m 554 1015 l 422 1015 l 232 843 l 329 843 z m 232 588 l 232 731 l 138 731 l 138 0 l 236 0 l 236 372 b 482 642 236 544 329 642 b 506 640 489 642 497 640 l 506 736 b 232 588 371 736 278 685 z "},"ř":{"ha":557,"x_min":0,"x_max":0,"o":"m 372 843 l 551 1015 l 460 1015 l 322 901 l 185 1015 l 93 1015 l 272 843 z m 232 588 l 232 731 l 138 731 l 138 0 l 236 0 l 236 372 b 482 642 236 544 329 642 b 506 640 489 642 497 640 l 506 736 b 232 588 371 736 278 685 z "},"ŗ":{"ha":557,"x_min":0,"x_max":0,"o":"m 232 588 l 232 731 l 138 731 l 138 0 l 236 0 l 236 372 b 482 642 236 544 329 642 b 506 640 489 642 497 640 l 506 736 b 232 588 371 736 278 685 z m 188 -144 b 128 -199 151 -144 128 -168 b 168 -250 128 -225 143 -244 l 139 -364 l 193 -364 l 232 -261 b 247 -199 243 -236 247 -217 b 188 -144 247 -169 224 -144 z "},"ȑ":{"ha":557,"x_min":0,"x_max":0,"o":"m 253 843 l 119 1015 l 10 1015 l 165 843 z m 479 843 l 344 1015 l 235 1015 l 392 843 z m 232 588 l 232 731 l 138 731 l 138 0 l 236 0 l 236 372 b 482 642 236 544 329 642 b 506 640 489 642 497 640 l 506 736 b 232 588 371 736 278 685 z "},"ṛ":{"ha":557,"x_min":0,"x_max":0,"o":"m 232 588 l 232 731 l 138 731 l 138 0 l 236 0 l 236 372 b 482 642 236 544 329 642 b 506 640 489 642 497 640 l 506 736 b 232 588 371 736 278 685 z m 188 -144 b 128 -204 154 -144 128 -169 b 188 -264 128 -239 154 -264 b 247 -204 221 -264 247 -239 b 188 -144 247 -169 221 -144 z "},"ȓ":{"ha":557,"x_min":0,"x_max":0,"o":"m 322 961 b 464 843 400 961 461 915 l 533 843 b 322 1021 529 954 439 1021 b 111 843 206 1021 115 954 l 181 843 b 322 961 183 915 244 961 z m 232 588 l 232 731 l 138 731 l 138 0 l 236 0 l 236 372 b 482 642 236 544 329 642 b 506 640 489 642 497 640 l 506 736 b 232 588 371 736 278 685 z "},"ṟ":{"ha":557,"x_min":0,"x_max":0,"o":"m 232 588 l 232 731 l 138 731 l 138 0 l 236 0 l 236 372 b 482 642 236 544 329 642 b 506 640 489 642 497 640 l 506 736 b 232 588 371 736 278 685 z m -26 -235 l 401 -235 l 401 -169 l -26 -169 z "},"s":{"ha":679,"x_min":0,"x_max":0,"o":"m 333 -7 b 635 201 524 -7 635 75 b 161 531 635 482 161 333 b 351 651 161 600 219 651 b 567 589 426 651 503 633 l 610 668 b 351 736 549 710 446 736 b 63 528 165 736 63 647 b 536 199 63 239 536 389 b 340 79 536 126 479 79 b 81 161 238 79 139 115 l 36 83 b 333 -7 96 32 213 -7 z "},"ś":{"ha":679,"x_min":0,"x_max":0,"o":"m 247 843 l 344 843 l 569 1015 l 438 1015 z m 333 -7 b 635 201 524 -7 635 75 b 161 531 635 482 161 333 b 351 651 161 600 219 651 b 567 589 426 651 503 633 l 610 668 b 351 736 549 710 446 736 b 63 528 165 736 63 647 b 536 199 63 239 536 389 b 340 79 536 126 479 79 b 81 161 238 79 139 115 l 36 83 b 333 -7 96 32 213 -7 z "},"ṥ":{"ha":679,"x_min":0,"x_max":0,"o":"m 338 1057 b 397 1117 371 1057 397 1082 b 338 1176 397 1151 371 1176 b 278 1117 304 1176 278 1151 b 338 1057 278 1082 304 1057 z m 253 843 l 340 843 l 540 994 l 421 994 z m 333 -7 b 635 201 524 -7 635 75 b 161 531 635 482 161 333 b 351 651 161 600 219 651 b 567 589 426 651 503 633 l 610 668 b 351 736 549 710 446 736 b 63 528 165 736 63 647 b 536 199 63 239 536 389 b 340 79 536 126 479 79 b 81 161 238 79 139 115 l 36 83 b 333 -7 96 32 213 -7 z "},"ꞌ":{"ha":333,"x_min":0,"x_max":0,"o":"m 117 413 l 204 413 l 217 906 l 118 906 z "},"š":{"ha":679,"x_min":0,"x_max":0,"o":"m 388 843 l 567 1015 l 475 1015 l 338 901 l 200 1015 l 108 1015 l 288 843 z m 161 531 b 351 651 161 600 219 651 b 567 589 426 651 503 633 l 610 668 b 351 736 549 710 446 736 b 63 528 165 736 63 647 b 536 199 63 239 536 389 b 340 79 536 126 479 79 b 81 161 238 79 139 115 l 36 83 b 333 -7 96 32 213 -7 b 635 201 524 -7 635 75 b 161 531 635 482 161 333 z "},"ṧ":{"ha":679,"x_min":0,"x_max":0,"o":"m 338 1025 b 397 1085 371 1025 397 1050 b 338 1144 397 1119 371 1144 b 278 1085 304 1144 278 1119 b 338 1025 278 1050 304 1025 z m 386 843 l 567 974 l 472 974 l 338 892 l 203 974 l 108 974 l 289 843 z m 161 531 b 351 651 161 600 219 651 b 567 589 426 651 503 633 l 610 668 b 351 736 549 710 446 736 b 63 528 165 736 63 647 b 536 199 63 239 536 389 b 340 79 536 126 479 79 b 81 161 238 79 139 115 l 36 83 b 333 -7 96 32 213 -7 b 635 201 524 -7 635 75 b 161 531 635 482 161 333 z "},"ş":{"ha":679,"x_min":0,"x_max":0,"o":"m 635 201 b 161 531 635 482 161 333 b 351 651 161 600 219 651 b 567 589 426 651 503 633 l 610 668 b 351 736 549 710 446 736 b 63 528 165 736 63 647 b 536 199 63 239 536 389 b 340 79 536 126 479 79 b 81 161 238 79 139 115 l 36 83 b 303 -6 90 36 193 0 l 274 -118 l 306 -118 b 392 -182 364 -118 392 -144 b 306 -247 392 -224 361 -247 b 214 -221 272 -247 242 -239 l 190 -274 b 307 -306 224 -296 261 -306 b 464 -185 400 -306 464 -260 b 346 -72 464 -124 422 -79 l 363 -7 b 635 201 535 1 635 82 z "},"ŝ":{"ha":679,"x_min":0,"x_max":0,"o":"m 338 958 l 475 843 l 567 843 l 388 1015 l 288 1015 l 108 843 l 200 843 z m 161 531 b 351 651 161 600 219 651 b 567 589 426 651 503 633 l 610 668 b 351 736 549 710 446 736 b 63 528 165 736 63 647 b 536 199 63 239 536 389 b 340 79 536 126 479 79 b 81 161 238 79 139 115 l 36 83 b 333 -7 96 32 213 -7 b 635 201 524 -7 635 75 b 161 531 635 482 161 333 z "},"ș":{"ha":679,"x_min":0,"x_max":0,"o":"m 161 531 b 351 651 161 600 219 651 b 567 589 426 651 503 633 l 610 668 b 351 736 549 710 446 736 b 63 528 165 736 63 647 b 536 199 63 239 536 389 b 340 79 536 126 479 79 b 81 161 238 79 139 115 l 36 83 b 333 -7 96 32 213 -7 b 635 201 524 -7 635 75 b 161 531 635 482 161 333 z m 338 -144 b 278 -199 301 -144 278 -168 b 318 -250 278 -225 293 -244 l 289 -364 l 343 -364 l 382 -261 b 397 -199 393 -236 397 -217 b 338 -144 397 -169 374 -144 z "},"ṡ":{"ha":679,"x_min":0,"x_max":0,"o":"m 338 875 b 404 942 375 875 404 904 b 338 1008 404 979 375 1008 b 271 942 300 1008 271 979 b 338 875 271 904 300 875 z m 333 -7 b 635 201 524 -7 635 75 b 161 531 635 482 161 333 b 351 651 161 600 219 651 b 567 589 426 651 503 633 l 610 668 b 351 736 549 710 446 736 b 63 528 165 736 63 647 b 536 199 63 239 536 389 b 340 79 536 126 479 79 b 81 161 238 79 139 115 l 36 83 b 333 -7 96 32 213 -7 z "},"ṣ":{"ha":679,"x_min":0,"x_max":0,"o":"m 333 -7 b 635 201 524 -7 635 75 b 161 531 635 482 161 333 b 351 651 161 600 219 651 b 567 589 426 651 503 633 l 610 668 b 351 736 549 710 446 736 b 63 528 165 736 63 647 b 536 199 63 239 536 389 b 340 79 536 126 479 79 b 81 161 238 79 139 115 l 36 83 b 333 -7 96 32 213 -7 z m 338 -264 b 397 -204 371 -264 397 -239 b 338 -144 397 -169 371 -144 b 278 -204 304 -144 278 -169 b 338 -264 278 -239 304 -264 z "},"ṩ":{"ha":679,"x_min":0,"x_max":0,"o":"m 338 875 b 404 942 375 875 404 904 b 338 1008 404 979 375 1008 b 271 942 300 1008 271 979 b 338 875 271 904 300 875 z m 333 -7 b 635 201 524 -7 635 75 b 161 531 635 482 161 333 b 351 651 161 600 219 651 b 567 589 426 651 503 633 l 610 668 b 351 736 549 710 446 736 b 63 528 165 736 63 647 b 536 199 63 239 536 389 b 340 79 536 126 479 79 b 81 161 238 79 139 115 l 36 83 b 333 -7 96 32 213 -7 z m 338 -264 b 397 -204 371 -264 397 -239 b 338 -144 397 -169 371 -144 b 278 -204 304 -144 278 -169 b 338 -264 278 -239 304 -264 z "},"ß":{"ha":928,"x_min":0,"x_max":0,"o":"m 642 540 b 782 772 721 581 782 661 b 472 1038 782 924 664 1038 b 138 692 278 1038 138 919 l 138 0 l 236 0 l 236 700 b 472 951 236 867 328 951 b 686 768 608 951 686 876 b 440 561 686 643 594 563 l 440 476 l 521 476 b 764 279 665 476 764 406 b 531 79 764 151 668 79 b 396 99 475 79 433 86 l 379 15 b 535 -7 422 0 481 -7 b 864 276 724 -7 864 99 b 642 540 864 419 774 511 z "},"ſ":{"ha":410,"x_min":0,"x_max":0,"o":"m 389 1038 b 169 821 247 1038 169 951 l 169 731 l 39 731 l 39 647 l 169 647 l 169 0 l 268 0 l 268 817 b 394 954 268 907 311 954 b 501 918 435 954 474 942 l 536 992 b 389 1038 500 1022 444 1038 z "},"t":{"ha":564,"x_min":0,"x_max":0,"o":"m 488 115 b 379 78 460 90 419 78 b 253 211 297 78 253 125 l 253 647 l 475 647 l 475 731 l 253 731 l 253 890 l 154 890 l 154 731 l 24 731 l 24 647 l 154 647 l 154 206 b 368 -7 154 71 231 -7 b 522 44 425 -7 483 10 z "},"ŧ":{"ha":578,"x_min":0,"x_max":0,"o":"m 494 115 b 386 78 467 90 426 78 b 260 211 304 78 260 125 l 260 375 l 467 375 l 467 446 l 260 446 l 260 647 l 482 647 l 482 731 l 260 731 l 260 890 l 161 890 l 161 731 l 31 731 l 31 647 l 161 647 l 161 446 l 47 446 l 47 375 l 161 375 l 161 206 b 375 -7 161 71 238 -7 b 529 44 432 -7 490 10 z "},"ť":{"ha":564,"x_min":0,"x_max":0,"o":"m 458 1061 l 379 1061 l 379 831 l 446 831 z m 488 115 b 379 78 460 90 419 78 b 253 211 297 78 253 125 l 253 647 l 475 647 l 475 731 l 253 731 l 253 890 l 154 890 l 154 731 l 24 731 l 24 647 l 154 647 l 154 206 b 368 -7 154 71 231 -7 b 522 44 425 -7 483 10 z "},"ţ":{"ha":564,"x_min":0,"x_max":0,"o":"m 354 -72 l 371 -7 b 522 44 426 -7 483 10 l 488 115 b 379 78 460 90 419 78 b 253 211 297 78 253 125 l 253 647 l 475 647 l 475 731 l 253 731 l 253 890 l 154 890 l 154 731 l 24 731 l 24 647 l 154 647 l 154 206 b 313 -3 154 90 210 17 l 282 -118 l 314 -118 b 400 -182 372 -118 400 -144 b 314 -247 400 -224 369 -247 b 222 -221 281 -247 250 -239 l 199 -274 b 315 -306 232 -296 269 -306 b 472 -185 408 -306 472 -260 b 354 -72 472 -124 431 -79 z "},"ț":{"ha":564,"x_min":0,"x_max":0,"o":"m 522 44 l 488 115 b 379 78 460 90 419 78 b 253 211 297 78 253 125 l 253 647 l 475 647 l 475 731 l 253 731 l 253 890 l 154 890 l 154 731 l 24 731 l 24 647 l 154 647 l 154 206 b 368 -7 154 71 231 -7 b 522 44 425 -7 483 10 z m 346 -144 b 286 -199 310 -144 286 -168 b 326 -250 286 -225 301 -244 l 297 -364 l 351 -364 l 390 -261 b 406 -199 401 -236 406 -217 b 346 -144 406 -169 382 -144 z "},"ẗ":{"ha":564,"x_min":0,"x_max":0,"o":"m 81 1035 b 140 1094 113 1035 140 1060 b 81 1154 140 1128 113 1154 b 21 1094 47 1154 21 1128 b 81 1035 21 1060 47 1035 z m 328 1035 b 388 1094 361 1035 388 1060 b 328 1154 388 1128 361 1154 b 268 1094 296 1154 268 1128 b 328 1035 268 1060 296 1035 z m 488 115 b 379 78 460 90 419 78 b 253 211 297 78 253 125 l 253 647 l 475 647 l 475 731 l 253 731 l 253 890 l 154 890 l 154 731 l 24 731 l 24 647 l 154 647 l 154 206 b 368 -7 154 71 231 -7 b 522 44 425 -7 483 10 z "},"ṭ":{"ha":564,"x_min":0,"x_max":0,"o":"m 522 44 l 488 115 b 379 78 460 90 419 78 b 253 211 297 78 253 125 l 253 647 l 475 647 l 475 731 l 253 731 l 253 890 l 154 890 l 154 731 l 24 731 l 24 647 l 154 647 l 154 206 b 368 -7 154 71 231 -7 b 522 44 425 -7 483 10 z m 346 -144 b 286 -204 313 -144 286 -169 b 346 -264 286 -239 313 -264 b 406 -204 379 -264 406 -239 b 346 -144 406 -169 379 -144 z "},"ṯ":{"ha":564,"x_min":0,"x_max":0,"o":"m 154 206 b 368 -7 154 71 231 -7 b 522 44 425 -7 483 10 l 488 115 b 379 78 460 90 419 78 b 253 211 297 78 253 125 l 253 647 l 475 647 l 475 731 l 253 731 l 253 890 l 154 890 l 154 731 l 24 731 l 24 647 l 154 647 z m 132 -169 l 132 -235 l 560 -235 l 560 -169 z "},"u":{"ha":935,"x_min":0,"x_max":0,"o":"m 697 731 l 697 347 b 449 82 697 181 601 82 b 229 317 310 82 229 161 l 229 731 l 131 731 l 131 307 b 439 -7 131 97 253 -7 b 701 133 556 -7 650 44 l 701 0 l 796 0 l 796 731 z "},"ú":{"ha":935,"x_min":0,"x_max":0,"o":"m 696 1015 l 564 1015 l 374 843 l 471 843 z m 697 731 l 697 347 b 449 82 697 181 601 82 b 229 317 310 82 229 161 l 229 731 l 131 731 l 131 307 b 439 -7 131 97 253 -7 b 701 133 556 -7 650 44 l 701 0 l 796 0 l 796 731 z "},"ŭ":{"ha":935,"x_min":0,"x_max":0,"o":"m 464 836 b 675 1015 581 836 671 904 l 606 1015 b 464 897 603 942 542 897 b 322 1015 386 897 325 942 l 253 1015 b 464 836 257 904 347 836 z m 697 731 l 697 347 b 449 82 697 181 601 82 b 229 317 310 82 229 161 l 229 731 l 131 731 l 131 307 b 439 -7 131 97 253 -7 b 701 133 556 -7 650 44 l 701 0 l 796 0 l 796 731 z "},"ǔ":{"ha":935,"x_min":0,"x_max":0,"o":"m 514 843 l 693 1015 l 601 1015 l 464 901 l 326 1015 l 235 1015 l 414 843 z m 697 731 l 697 347 b 449 82 697 181 601 82 b 229 317 310 82 229 161 l 229 731 l 131 731 l 131 307 b 439 -7 131 97 253 -7 b 701 133 556 -7 650 44 l 701 0 l 796 0 l 796 731 z "},"û":{"ha":935,"x_min":0,"x_max":0,"o":"m 464 958 l 601 843 l 693 843 l 514 1015 l 414 1015 l 235 843 l 326 843 z m 697 731 l 697 347 b 449 82 697 181 601 82 b 229 317 310 82 229 161 l 229 731 l 131 731 l 131 307 b 439 -7 131 97 253 -7 b 701 133 556 -7 650 44 l 701 0 l 796 0 l 796 731 z "},"ȕ":{"ha":935,"x_min":0,"x_max":0,"o":"m 394 843 l 261 1015 l 151 1015 l 307 843 z m 621 843 l 486 1015 l 376 1015 l 533 843 z m 697 731 l 697 347 b 449 82 697 181 601 82 b 229 317 310 82 229 161 l 229 731 l 131 731 l 131 307 b 439 -7 131 97 253 -7 b 701 133 556 -7 650 44 l 701 0 l 796 0 l 796 731 z "},"ü":{"ha":935,"x_min":0,"x_max":0,"o":"m 340 875 b 400 935 372 875 400 900 b 340 994 400 968 372 994 b 281 935 307 994 281 968 b 340 875 281 900 307 875 z m 588 875 b 647 935 621 875 647 900 b 588 994 647 968 621 994 b 528 935 556 994 528 968 b 588 875 528 900 556 875 z m 697 731 l 697 347 b 449 82 697 181 601 82 b 229 317 310 82 229 161 l 229 731 l 131 731 l 131 307 b 439 -7 131 97 253 -7 b 701 133 556 -7 650 44 l 701 0 l 796 0 l 796 731 z "},"ụ":{"ha":935,"x_min":0,"x_max":0,"o":"m 697 731 l 697 347 b 449 82 697 181 601 82 b 229 317 310 82 229 161 l 229 731 l 131 731 l 131 307 b 439 -7 131 97 253 -7 b 701 133 556 -7 650 44 l 701 0 l 796 0 l 796 731 z m 464 -144 b 404 -204 431 -144 404 -169 b 464 -264 404 -239 431 -264 b 524 -204 497 -264 524 -239 b 464 -144 524 -169 497 -144 z "},"ù":{"ha":935,"x_min":0,"x_max":0,"o":"m 554 843 l 364 1015 l 232 1015 l 457 843 z m 697 731 l 697 347 b 449 82 697 181 601 82 b 229 317 310 82 229 161 l 229 731 l 131 731 l 131 307 b 439 -7 131 97 253 -7 b 701 133 556 -7 650 44 l 701 0 l 796 0 l 796 731 z "},"ủ":{"ha":935,"x_min":0,"x_max":0,"o":"m 453 1043 b 529 975 497 1043 529 1014 b 447 876 529 933 503 901 l 482 833 b 593 982 557 868 593 917 b 461 1101 593 1056 539 1101 b 346 1065 421 1101 376 1089 l 369 1017 b 453 1043 397 1035 424 1043 z m 697 731 l 697 347 b 449 82 697 181 601 82 b 229 317 310 82 229 161 l 229 731 l 131 731 l 131 307 b 439 -7 131 97 253 -7 b 701 133 556 -7 650 44 l 701 0 l 796 0 l 796 731 z "},"ư":{"ha":943,"x_min":0,"x_max":0,"o":"m 914 821 b 878 938 914 865 900 907 l 813 913 b 840 824 829 889 840 858 b 749 731 840 772 813 731 l 697 731 l 697 347 b 449 82 697 181 601 82 b 229 317 310 82 229 161 l 229 731 l 131 731 l 131 307 b 439 -7 131 97 253 -7 b 701 133 556 -7 650 44 l 701 0 l 796 0 l 796 660 b 914 821 874 676 914 738 z "},"ứ":{"ha":943,"x_min":0,"x_max":0,"o":"m 696 1015 l 564 1015 l 374 843 l 471 843 z m 914 821 b 878 938 914 865 900 907 l 813 913 b 840 824 829 889 840 858 b 749 731 840 772 813 731 l 697 731 l 697 347 b 449 82 697 181 601 82 b 229 317 310 82 229 161 l 229 731 l 131 731 l 131 307 b 439 -7 131 97 253 -7 b 701 133 556 -7 650 44 l 701 0 l 796 0 l 796 660 b 914 821 874 676 914 738 z "},"ự":{"ha":943,"x_min":0,"x_max":0,"o":"m 914 821 b 878 938 914 865 900 907 l 813 913 b 840 824 829 889 840 858 b 749 731 840 772 813 731 l 697 731 l 697 347 b 449 82 697 181 601 82 b 229 317 310 82 229 161 l 229 731 l 131 731 l 131 307 b 439 -7 131 97 253 -7 b 701 133 556 -7 650 44 l 701 0 l 796 0 l 796 660 b 914 821 874 676 914 738 z m 464 -144 b 404 -204 431 -144 404 -169 b 464 -264 404 -239 431 -264 b 524 -204 497 -264 524 -239 b 464 -144 524 -169 497 -144 z "},"ừ":{"ha":943,"x_min":0,"x_max":0,"o":"m 554 843 l 364 1015 l 232 1015 l 457 843 z m 914 821 b 878 938 914 865 900 907 l 813 913 b 840 824 829 889 840 858 b 749 731 840 772 813 731 l 697 731 l 697 347 b 449 82 697 181 601 82 b 229 317 310 82 229 161 l 229 731 l 131 731 l 131 307 b 439 -7 131 97 253 -7 b 701 133 556 -7 650 44 l 701 0 l 796 0 l 796 660 b 914 821 874 676 914 738 z "},"ử":{"ha":943,"x_min":0,"x_max":0,"o":"m 453 1043 b 529 975 497 1043 529 1014 b 447 876 529 933 503 901 l 482 833 b 593 982 557 868 593 917 b 461 1101 593 1056 539 1101 b 346 1065 421 1101 376 1089 l 369 1017 b 453 1043 397 1035 424 1043 z m 914 821 b 878 938 914 865 900 907 l 813 913 b 840 824 829 889 840 858 b 749 731 840 772 813 731 l 697 731 l 697 347 b 449 82 697 181 601 82 b 229 317 310 82 229 161 l 229 731 l 131 731 l 131 307 b 439 -7 131 97 253 -7 b 701 133 556 -7 650 44 l 701 0 l 796 0 l 796 660 b 914 821 874 676 914 738 z "},"ữ":{"ha":943,"x_min":0,"x_max":0,"o":"m 376 946 b 558 851 432 946 472 851 b 683 1001 632 851 681 911 l 624 1001 b 551 915 621 949 593 915 b 369 1010 497 915 456 1010 b 244 857 296 1010 247 950 l 304 857 b 376 946 307 913 335 946 z m 914 821 b 878 938 914 865 900 907 l 813 913 b 840 824 829 889 840 858 b 749 731 840 772 813 731 l 697 731 l 697 347 b 449 82 697 181 601 82 b 229 317 310 82 229 161 l 229 731 l 131 731 l 131 307 b 439 -7 131 97 253 -7 b 701 133 556 -7 650 44 l 701 0 l 796 0 l 796 660 b 914 821 874 676 914 738 z "},"ű":{"ha":935,"x_min":0,"x_max":0,"o":"m 551 1015 l 442 1015 l 307 843 l 394 843 z m 621 843 l 776 1015 l 667 1015 l 533 843 z m 697 731 l 697 347 b 449 82 697 181 601 82 b 229 317 310 82 229 161 l 229 731 l 131 731 l 131 307 b 439 -7 131 97 253 -7 b 701 133 556 -7 650 44 l 701 0 l 796 0 l 796 731 z "},"ȗ":{"ha":935,"x_min":0,"x_max":0,"o":"m 464 961 b 606 843 542 961 603 915 l 675 843 b 464 1021 671 954 581 1021 b 253 843 347 1021 257 954 l 322 843 b 464 961 325 915 386 961 z m 697 731 l 697 347 b 449 82 697 181 601 82 b 229 317 310 82 229 161 l 229 731 l 131 731 l 131 307 b 439 -7 131 97 253 -7 b 701 133 556 -7 650 44 l 701 0 l 796 0 l 796 731 z "},"ū":{"ha":935,"x_min":0,"x_max":0,"o":"m 678 961 l 250 961 l 250 896 l 678 896 z m 697 731 l 697 347 b 449 82 697 181 601 82 b 229 317 310 82 229 161 l 229 731 l 131 731 l 131 307 b 439 -7 131 97 253 -7 b 701 133 556 -7 650 44 l 701 0 l 796 0 l 796 731 z "},"ṻ":{"ha":935,"x_min":0,"x_max":0,"o":"m 342 1058 b 400 1117 374 1058 400 1083 b 342 1174 400 1149 374 1174 b 283 1117 310 1174 283 1149 b 342 1058 283 1083 310 1058 z m 586 1058 b 644 1117 618 1058 644 1083 b 586 1174 644 1149 618 1174 b 528 1117 556 1174 528 1149 b 586 1058 528 1083 556 1058 z m 678 939 l 250 939 l 250 876 l 678 876 z m 697 731 l 697 347 b 449 82 697 181 601 82 b 229 317 310 82 229 161 l 229 731 l 131 731 l 131 307 b 439 -7 131 97 253 -7 b 701 133 556 -7 650 44 l 701 0 l 796 0 l 796 731 z "},"ų":{"ha":935,"x_min":0,"x_max":0,"o":"m 803 -218 b 717 -244 781 -236 747 -244 b 626 -167 665 -244 626 -218 b 796 0 626 -115 664 -58 l 796 731 l 697 731 l 697 347 b 449 82 697 181 601 82 b 229 317 310 82 229 161 l 229 731 l 131 731 l 131 307 b 439 -7 131 97 253 -7 b 701 133 556 -7 650 44 l 701 15 b 554 -174 588 -44 554 -114 b 707 -306 554 -254 614 -306 b 825 -272 750 -306 792 -294 z "},"ů":{"ha":935,"x_min":0,"x_max":0,"o":"m 463 826 b 608 968 546 826 608 890 b 463 1114 608 1047 546 1114 b 318 968 381 1114 318 1047 b 463 826 318 890 379 826 z m 463 1065 b 557 968 517 1065 557 1022 b 463 875 557 915 518 875 b 369 968 407 875 369 915 b 463 1065 369 1024 408 1065 z m 697 731 l 697 347 b 449 82 697 181 601 82 b 229 317 310 82 229 161 l 229 731 l 131 731 l 131 307 b 439 -7 131 97 253 -7 b 701 133 556 -7 650 44 l 701 0 l 796 0 l 796 731 z "},"ũ":{"ha":935,"x_min":0,"x_max":0,"o":"m 376 946 b 558 851 432 946 472 851 b 683 1001 632 851 681 911 l 624 1001 b 551 915 621 949 593 915 b 369 1010 497 915 456 1010 b 244 857 296 1010 247 950 l 304 857 b 376 946 307 913 335 946 z m 697 731 l 697 347 b 449 82 697 181 601 82 b 229 317 310 82 229 161 l 229 731 l 131 731 l 131 307 b 439 -7 131 97 253 -7 b 701 133 556 -7 650 44 l 701 0 l 796 0 l 796 731 z "},"ṹ":{"ha":935,"x_min":0,"x_max":0,"o":"m 667 1178 l 547 1178 l 379 1026 l 467 1026 z m 375 929 b 557 854 431 929 472 854 b 679 981 631 854 678 903 l 621 981 b 553 913 619 939 596 913 b 372 988 497 913 454 988 b 249 860 299 988 250 940 l 308 860 b 375 929 310 904 333 929 z m 697 731 l 697 347 b 449 82 697 181 601 82 b 229 317 310 82 229 161 l 229 731 l 131 731 l 131 307 b 439 -7 131 97 253 -7 b 701 133 556 -7 650 44 l 701 0 l 796 0 l 796 731 z "},"v":{"ha":753,"x_min":0,"x_max":0,"o":"m 654 731 l 378 108 l 104 731 l 1 731 l 325 0 l 426 0 l 751 731 z "},"w":{"ha":1221,"x_min":0,"x_max":0,"o":"m 1119 731 l 888 110 l 654 731 l 569 731 l 335 110 l 106 731 l 11 731 l 286 0 l 379 0 l 610 599 l 840 0 l 933 0 l 1210 731 z "},"ẃ":{"ha":1221,"x_min":0,"x_max":0,"o":"m 840 1013 l 708 1013 l 518 840 l 615 840 z m 1119 731 l 888 110 l 654 731 l 569 731 l 335 110 l 106 731 l 11 731 l 286 0 l 379 0 l 610 599 l 840 0 l 933 0 l 1210 731 z "},"ŵ":{"ha":1221,"x_min":0,"x_max":0,"o":"m 608 956 l 746 840 l 838 840 l 658 1013 l 558 1013 l 379 840 l 471 840 z m 1119 731 l 888 110 l 654 731 l 569 731 l 335 110 l 106 731 l 11 731 l 286 0 l 379 0 l 610 599 l 840 0 l 933 0 l 1210 731 z "},"ẅ":{"ha":1221,"x_min":0,"x_max":0,"o":"m 485 872 b 544 932 517 872 544 897 b 485 992 544 965 517 992 b 425 932 451 992 425 965 b 485 872 425 897 451 872 z m 732 872 b 792 932 765 872 792 897 b 732 992 792 965 765 992 b 672 932 700 992 672 965 b 732 872 672 897 700 872 z m 1119 731 l 888 110 l 654 731 l 569 731 l 335 110 l 106 731 l 11 731 l 286 0 l 379 0 l 610 599 l 840 0 l 933 0 l 1210 731 z "},"ẁ":{"ha":1221,"x_min":0,"x_max":0,"o":"m 699 840 l 508 1013 l 376 1013 l 601 840 z m 1119 731 l 888 110 l 654 731 l 569 731 l 335 110 l 106 731 l 11 731 l 286 0 l 379 0 l 610 599 l 840 0 l 933 0 l 1210 731 z "},"x":{"ha":742,"x_min":0,"x_max":0,"o":"m 715 0 l 424 375 l 699 731 l 590 731 l 371 444 l 151 731 l 40 731 l 315 375 l 26 0 l 138 0 l 371 306 l 603 0 z "},"y":{"ha":753,"x_min":0,"x_max":0,"o":"m 654 731 l 379 110 l 104 731 l 1 731 l 328 1 l 296 -69 b 144 -192 254 -161 210 -192 b 11 -136 92 -192 47 -172 l -35 -210 b 143 -276 10 -254 75 -276 b 386 -87 247 -276 325 -231 l 751 731 z "},"ý":{"ha":753,"x_min":0,"x_max":0,"o":"m 589 1015 l 457 1015 l 267 843 l 364 843 z m 654 731 l 379 110 l 104 731 l 1 731 l 328 1 l 296 -69 b 144 -192 254 -161 210 -192 b 11 -136 92 -192 47 -172 l -35 -210 b 143 -276 10 -254 75 -276 b 386 -87 247 -276 325 -231 l 751 731 z "},"ŷ":{"ha":753,"x_min":0,"x_max":0,"o":"m 357 958 l 494 843 l 586 843 l 407 1015 l 307 1015 l 128 843 l 219 843 z m 654 731 l 379 110 l 104 731 l 1 731 l 328 1 l 296 -69 b 144 -192 254 -161 210 -192 b 11 -136 92 -192 47 -172 l -35 -210 b 143 -276 10 -254 75 -276 b 386 -87 247 -276 325 -231 l 751 731 z "},"ÿ":{"ha":753,"x_min":0,"x_max":0,"o":"m 233 875 b 293 935 265 875 293 900 b 233 994 293 968 265 994 b 174 935 200 994 174 968 b 233 875 174 900 200 875 z m 481 875 b 540 935 514 875 540 900 b 481 994 540 968 514 994 b 421 935 449 994 421 968 b 481 875 421 900 449 875 z m 654 731 l 379 110 l 104 731 l 1 731 l 328 1 l 296 -69 b 144 -192 254 -161 210 -192 b 11 -136 92 -192 47 -172 l -35 -210 b 143 -276 10 -254 75 -276 b 386 -87 247 -276 325 -231 l 751 731 z "},"ẏ":{"ha":753,"x_min":0,"x_max":0,"o":"m 357 875 b 424 942 394 875 424 904 b 357 1008 424 979 394 1008 b 290 942 319 1008 290 979 b 357 875 290 904 319 875 z m 654 731 l 379 110 l 104 731 l 1 731 l 328 1 l 296 -69 b 144 -192 254 -161 210 -192 b 11 -136 92 -192 47 -172 l -35 -210 b 143 -276 10 -254 75 -276 b 386 -87 247 -276 325 -231 l 751 731 z "},"ỵ":{"ha":753,"x_min":0,"x_max":0,"o":"m 654 731 l 379 110 l 104 731 l 1 731 l 328 1 l 296 -69 b 144 -192 254 -161 210 -192 b 11 -136 92 -192 47 -172 l -35 -210 b 143 -276 10 -254 75 -276 b 386 -87 247 -276 325 -231 l 751 731 z m 539 -144 b 479 -204 506 -144 479 -169 b 539 -264 479 -239 506 -264 b 599 -204 572 -264 599 -239 b 539 -144 599 -169 572 -144 z "},"ỳ":{"ha":753,"x_min":0,"x_max":0,"o":"m 447 843 l 257 1015 l 125 1015 l 350 843 z m 654 731 l 379 110 l 104 731 l 1 731 l 328 1 l 296 -69 b 144 -192 254 -161 210 -192 b 11 -136 92 -192 47 -172 l -35 -210 b 143 -276 10 -254 75 -276 b 386 -87 247 -276 325 -231 l 751 731 z "},"ỷ":{"ha":753,"x_min":0,"x_max":0,"o":"m 346 1043 b 422 975 390 1043 422 1014 b 340 876 422 933 396 901 l 375 833 b 486 982 450 868 486 917 b 354 1101 486 1056 432 1101 b 239 1065 314 1101 269 1089 l 263 1017 b 346 1043 290 1035 317 1043 z m 654 731 l 379 110 l 104 731 l 1 731 l 328 1 l 296 -69 b 144 -192 254 -161 210 -192 b 11 -136 92 -192 47 -172 l -35 -210 b 143 -276 10 -254 75 -276 b 386 -87 247 -276 325 -231 l 751 731 z "},"ȳ":{"ha":753,"x_min":0,"x_max":0,"o":"m 571 961 l 143 961 l 143 896 l 571 896 z m 654 731 l 379 110 l 104 731 l 1 731 l 328 1 l 296 -69 b 144 -192 254 -161 210 -192 b 11 -136 92 -192 47 -172 l -35 -210 b 143 -276 10 -254 75 -276 b 386 -87 247 -276 325 -231 l 751 731 z "},"ỹ":{"ha":753,"x_min":0,"x_max":0,"o":"m 269 946 b 451 851 325 946 365 851 b 576 1001 525 851 574 911 l 517 1001 b 444 915 514 949 486 915 b 263 1010 390 915 349 1010 b 138 857 189 1010 140 950 l 197 857 b 269 946 200 913 228 946 z m 654 731 l 379 110 l 104 731 l 1 731 l 328 1 l 296 -69 b 144 -192 254 -161 210 -192 b 11 -136 92 -192 47 -172 l -35 -210 b 143 -276 10 -254 75 -276 b 386 -87 247 -276 325 -231 l 751 731 z "},"z":{"ha":710,"x_min":0,"x_max":0,"o":"m 185 82 l 644 665 l 644 731 l 67 731 l 67 647 l 518 647 l 58 65 l 58 0 l 653 0 l 653 82 z "},"ź":{"ha":710,"x_min":0,"x_max":0,"o":"m 588 1015 l 456 1015 l 265 843 l 363 843 z m 185 82 l 644 665 l 644 731 l 67 731 l 67 647 l 518 647 l 58 65 l 58 0 l 653 0 l 653 82 z "},"ž":{"ha":710,"x_min":0,"x_max":0,"o":"m 406 843 l 585 1015 l 493 1015 l 356 901 l 218 1015 l 126 1015 l 306 843 z m 185 82 l 644 665 l 644 731 l 67 731 l 67 647 l 518 647 l 58 65 l 58 0 l 653 0 l 653 82 z "},"ż":{"ha":710,"x_min":0,"x_max":0,"o":"m 356 875 b 422 942 393 875 422 904 b 356 1008 422 979 393 1008 b 289 942 318 1008 289 979 b 356 875 289 904 318 875 z m 185 82 l 644 665 l 644 731 l 67 731 l 67 647 l 518 647 l 58 65 l 58 0 l 653 0 l 653 82 z "},"ẓ":{"ha":710,"x_min":0,"x_max":0,"o":"m 185 82 l 644 665 l 644 731 l 67 731 l 67 647 l 518 647 l 58 65 l 58 0 l 653 0 l 653 82 z m 367 -144 b 307 -204 333 -144 307 -169 b 367 -264 307 -239 333 -264 b 426 -204 400 -264 426 -239 b 367 -144 426 -169 400 -144 z "},"ﬁ":{"ha":956,"x_min":0,"x_max":0,"o":"m 154 821 l 154 731 l 24 731 l 24 647 l 154 647 l 154 0 l 253 0 l 253 647 l 475 647 l 475 731 l 250 731 l 250 817 b 379 954 250 907 294 954 b 488 918 421 954 460 942 l 521 992 b 375 1038 485 1022 429 1038 b 154 821 232 1038 154 951 z m 769 1031 b 697 961 729 1031 697 999 b 769 890 697 922 729 890 b 842 963 811 890 842 922 b 769 1031 842 1000 810 1031 z m 719 0 l 818 0 l 818 731 l 719 731 z "},"ﬂ":{"ha":844,"x_min":0,"x_max":0,"o":"m 154 821 l 154 731 l 24 731 l 24 647 l 154 647 l 154 0 l 253 0 l 253 647 l 475 647 l 475 731 l 250 731 l 250 817 b 379 954 250 907 294 954 b 488 918 421 954 460 942 l 521 992 b 375 1038 485 1022 429 1038 b 154 821 232 1038 154 951 z m 608 1031 l 608 0 l 707 0 l 707 1031 z "},"ª":{"ha":557,"x_min":0,"x_max":0,"o":"m 264 1036 b 71 975 192 1036 118 1013 l 100 926 b 257 978 139 958 196 978 b 385 867 342 978 385 943 l 385 844 l 239 844 b 57 719 107 844 57 790 b 228 593 57 646 117 593 b 390 664 308 593 364 622 l 390 597 l 458 597 l 458 864 b 264 1036 458 979 389 1036 z m 243 644 b 126 724 169 644 126 674 b 247 796 126 767 161 796 l 385 796 l 385 725 b 243 644 361 674 314 644 z "},"º":{"ha":575,"x_min":0,"x_max":0,"o":"m 288 593 b 528 815 426 593 528 686 b 288 1036 528 944 426 1036 b 47 815 149 1036 47 944 b 288 593 47 686 149 593 z m 288 656 b 119 815 189 656 119 719 b 288 975 119 910 189 975 b 456 815 386 975 456 910 b 288 656 456 719 386 656 z "},"А":{"ha":1033,"x_min":0,"x_max":0,"o":"m 903 0 l 1011 0 l 567 972 l 465 972 l 21 0 l 128 0 l 244 260 l 786 260 z m 282 343 l 515 865 l 749 343 z "},"Б":{"ha":1010,"x_min":0,"x_max":0,"o":"m 164 0 l 561 0 b 935 290 801 0 935 103 b 583 567 935 471 813 567 l 265 567 l 265 885 l 875 885 l 875 972 l 164 972 z m 265 82 l 265 485 l 560 485 b 832 286 742 485 832 421 b 560 82 832 151 739 82 z "},"В":{"ha":1040,"x_min":0,"x_max":0,"o":"m 740 501 b 899 724 838 538 899 611 b 568 972 899 886 772 972 l 164 972 l 164 0 l 594 0 b 947 263 829 0 947 96 b 740 501 947 392 876 474 z m 265 890 l 563 890 b 796 711 711 890 796 828 b 563 532 796 593 711 532 l 265 532 z m 594 82 l 265 82 l 265 453 l 594 453 b 846 269 758 453 846 396 b 594 82 846 142 758 82 z "},"Г":{"ha":794,"x_min":0,"x_max":0,"o":"m 782 972 l 164 972 l 164 0 l 265 0 l 264 883 l 782 883 z "},"Ѓ":{"ha":794,"x_min":0,"x_max":0,"o":"m 694 1224 l 563 1224 l 372 1051 l 469 1051 z m 782 972 l 164 972 l 164 0 l 265 0 l 264 883 l 782 883 z "},"Ґ":{"ha":799,"x_min":0,"x_max":0,"o":"m 164 0 l 265 0 l 265 883 l 782 883 l 782 1172 l 686 1172 l 686 972 l 164 972 z "},"Д":{"ha":1103,"x_min":0,"x_max":0,"o":"m 911 89 l 911 972 l 256 972 l 244 657 b 65 89 235 347 204 97 l 17 89 l 15 -218 l 111 -218 l 113 0 l 961 0 l 961 -218 l 1057 -218 l 1057 89 z m 336 647 l 344 883 l 810 883 l 810 89 l 211 89 b 336 647 304 160 328 394 z "},"Е":{"ha":915,"x_min":0,"x_max":0,"o":"m 267 89 l 267 450 l 769 450 l 769 538 l 267 538 l 267 883 l 831 883 l 831 972 l 164 972 l 164 0 l 851 0 l 851 89 z "},"Ѐ":{"ha":915,"x_min":0,"x_max":0,"o":"m 589 1051 l 399 1224 l 267 1224 l 492 1051 z m 267 89 l 267 450 l 769 450 l 769 538 l 267 538 l 267 883 l 831 883 l 831 972 l 164 972 l 164 0 l 851 0 l 851 89 z "},"Ё":{"ha":915,"x_min":0,"x_max":0,"o":"m 375 1083 b 435 1143 407 1083 435 1108 b 375 1203 435 1176 407 1203 b 315 1143 342 1203 315 1176 b 375 1083 315 1108 342 1083 z m 622 1083 b 682 1143 656 1083 682 1108 b 622 1203 682 1176 656 1203 b 563 1143 590 1203 563 1176 b 622 1083 563 1108 590 1083 z m 267 89 l 267 450 l 769 450 l 769 538 l 267 538 l 267 883 l 831 883 l 831 972 l 164 972 l 164 0 l 851 0 l 851 89 z "},"Ж":{"ha":1404,"x_min":0,"x_max":0,"o":"m 1251 0 l 1371 0 l 1038 501 l 1346 972 l 1235 972 l 954 536 l 753 536 l 753 972 l 653 972 l 653 536 l 449 536 l 169 972 l 58 972 l 367 501 l 33 0 l 153 0 l 450 446 l 653 446 l 653 0 l 753 0 l 753 446 l 954 446 z "},"З":{"ha":883,"x_min":0,"x_max":0,"o":"m 586 508 b 750 722 689 540 750 618 b 392 986 750 889 586 986 b 79 900 289 986 179 960 l 114 815 b 389 896 201 871 300 896 b 647 711 531 896 647 829 b 429 546 647 607 567 546 l 226 546 l 226 463 l 435 463 b 689 286 594 463 689 400 b 397 79 689 154 553 79 b 86 190 290 79 174 115 l 49 117 b 408 -8 151 31 285 -8 b 792 272 611 -8 792 96 b 586 508 792 390 714 476 z "},"И":{"ha":1144,"x_min":0,"x_max":0,"o":"m 164 0 l 257 0 l 879 804 l 879 0 l 981 0 l 981 972 l 888 972 l 265 167 l 265 972 l 164 972 z "},"Й":{"ha":1144,"x_min":0,"x_max":0,"o":"m 569 1043 b 796 1222 707 1043 793 1110 l 719 1222 b 569 1103 717 1147 657 1103 b 419 1222 481 1103 421 1147 l 343 1222 b 569 1043 344 1110 431 1043 z m 164 0 l 257 0 l 879 804 l 879 0 l 981 0 l 981 972 l 888 972 l 265 167 l 265 972 l 164 972 z "},"Ѝ":{"ha":1144,"x_min":0,"x_max":0,"o":"m 563 1051 l 660 1051 l 469 1224 l 338 1224 z m 164 0 l 257 0 l 879 804 l 879 0 l 981 0 l 981 972 l 888 972 l 265 167 l 265 972 l 164 972 z "},"Ҋ":{"ha":1178,"x_min":0,"x_max":0,"o":"m 569 1043 b 796 1222 707 1043 793 1110 l 719 1222 b 569 1103 717 1147 657 1103 b 419 1222 481 1103 421 1147 l 343 1222 b 569 1043 344 1110 431 1043 z m 981 89 l 981 972 l 888 972 l 265 167 l 265 972 l 164 972 l 164 0 l 257 0 l 879 804 l 879 0 l 1000 0 l 943 -218 l 1025 -218 l 1118 89 z "},"К":{"ha":975,"x_min":0,"x_max":0,"o":"m 829 0 l 947 0 l 565 500 l 926 972 l 815 972 l 486 536 l 264 536 l 264 972 l 164 972 l 164 0 l 264 0 l 264 446 l 486 446 z "},"Ќ":{"ha":975,"x_min":0,"x_max":0,"o":"m 721 1224 l 589 1224 l 399 1051 l 496 1051 z m 829 0 l 947 0 l 565 500 l 926 972 l 815 972 l 486 536 l 264 536 l 264 972 l 164 972 l 164 0 l 264 0 l 264 446 l 486 446 z "},"Л":{"ha":1090,"x_min":0,"x_max":0,"o":"m 267 972 l 253 556 b 69 86 240 228 193 86 b 24 92 54 86 42 88 l 15 0 b 93 -10 44 -7 68 -10 b 344 558 269 -10 331 169 l 356 883 l 825 883 l 825 0 l 926 0 l 926 972 z "},"М":{"ha":1338,"x_min":0,"x_max":0,"o":"m 1089 972 l 671 251 l 249 972 l 164 972 l 164 0 l 263 0 l 263 774 l 644 124 l 693 124 l 1075 778 l 1075 0 l 1174 0 l 1174 972 z "},"Н":{"ha":1140,"x_min":0,"x_max":0,"o":"m 875 972 l 875 539 l 267 539 l 267 972 l 164 972 l 164 0 l 267 0 l 267 449 l 875 449 l 875 0 l 976 0 l 976 972 z "},"О":{"ha":1182,"x_min":0,"x_max":0,"o":"m 590 -8 b 1100 486 882 -8 1100 201 b 590 981 1100 771 882 981 b 79 486 296 981 79 769 b 590 -8 79 203 296 -8 z m 590 83 b 181 486 356 83 181 254 b 590 889 181 718 356 889 b 997 486 824 889 997 718 b 590 83 997 254 824 83 z "},"П":{"ha":1146,"x_min":0,"x_max":0,"o":"m 164 972 l 164 0 l 265 0 l 265 883 l 881 883 l 881 0 l 982 0 l 982 972 z "},"Р":{"ha":986,"x_min":0,"x_max":0,"o":"m 528 972 l 164 972 l 164 0 l 267 0 l 267 307 l 528 307 b 925 639 775 307 925 432 b 528 972 925 847 775 972 z m 525 397 l 267 397 l 267 883 l 525 883 b 822 639 719 883 822 794 b 525 397 822 486 719 397 z "},"С":{"ha":994,"x_min":0,"x_max":0,"o":"m 589 -8 b 946 135 732 -8 860 40 l 881 200 b 593 83 801 118 704 83 b 182 486 358 83 182 256 b 593 889 182 717 358 889 b 881 774 704 889 801 854 l 946 839 b 590 981 860 933 732 981 b 81 486 297 981 81 771 b 589 -8 81 201 297 -8 z "},"Т":{"ha":817,"x_min":0,"x_max":0,"o":"m 800 972 l 15 972 l 15 883 l 357 883 l 357 0 l 458 0 l 458 883 l 800 883 z "},"У":{"ha":944,"x_min":0,"x_max":0,"o":"m 825 972 l 478 314 l 139 972 l 29 972 l 424 224 l 396 176 b 239 72 351 101 297 72 b 147 92 210 72 179 79 l 118 8 b 238 -18 158 -8 199 -18 b 486 154 333 -18 422 35 l 928 972 z "},"Ў":{"ha":944,"x_min":0,"x_max":0,"o":"m 463 1043 b 689 1222 600 1043 686 1110 l 613 1222 b 463 1103 610 1147 550 1103 b 313 1222 374 1103 314 1147 l 236 1222 b 463 1043 238 1110 324 1043 z m 825 972 l 478 314 l 139 972 l 29 972 l 424 224 l 396 176 b 239 72 351 101 297 72 b 147 92 210 72 179 79 l 118 8 b 238 -18 158 -8 199 -18 b 486 154 333 -18 422 35 l 928 972 z "},"Ф":{"ha":1274,"x_min":0,"x_max":0,"o":"m 1204 488 b 685 908 1204 744 1010 897 l 685 1006 l 589 1006 l 589 908 b 69 488 263 897 69 746 b 589 67 69 229 263 78 l 589 -33 l 685 -33 l 685 67 b 1204 488 1011 76 1204 229 z m 685 149 l 685 825 b 1106 488 950 815 1106 696 b 685 149 1106 279 951 160 z m 168 488 b 589 825 168 696 321 814 l 589 149 b 168 488 325 161 168 278 z "},"Х":{"ha":903,"x_min":0,"x_max":0,"o":"m 56 972 l 388 501 l 31 0 l 149 0 l 450 418 l 751 0 l 872 0 l 514 506 l 846 972 l 725 972 l 450 588 l 174 972 z "},"Ч":{"ha":1015,"x_min":0,"x_max":0,"o":"m 750 972 l 750 494 b 453 425 650 449 547 425 b 183 663 283 425 183 511 l 183 972 l 82 972 l 82 651 b 443 335 82 451 215 335 b 750 403 538 335 643 357 l 750 0 l 850 0 l 850 972 z "},"Ц":{"ha":1149,"x_min":0,"x_max":0,"o":"m 954 89 l 954 972 l 853 972 l 853 89 l 265 89 l 265 972 l 164 972 l 164 0 l 1013 0 l 1013 -228 l 1108 -228 l 1108 89 z "},"Ш":{"ha":1519,"x_min":0,"x_max":0,"o":"m 1254 972 l 1254 89 l 811 89 l 811 972 l 710 972 l 710 89 l 265 89 l 265 972 l 164 972 l 164 0 l 1356 0 l 1356 972 z "},"Щ":{"ha":1551,"x_min":0,"x_max":0,"o":"m 1356 89 l 1356 972 l 1254 972 l 1254 89 l 811 89 l 811 972 l 710 972 l 710 89 l 265 89 l 265 972 l 164 972 l 164 0 l 1411 0 l 1411 -218 l 1507 -218 l 1507 89 z "},"Џ":{"ha":1119,"x_min":0,"x_max":0,"o":"m 954 972 l 853 972 l 853 89 l 265 89 l 265 972 l 164 972 l 164 0 l 511 0 l 511 -228 l 607 -228 l 607 0 l 954 0 z "},"Ь":{"ha":986,"x_min":0,"x_max":0,"o":"m 571 625 l 265 625 l 265 972 l 164 972 l 164 0 l 550 0 b 925 319 790 0 925 110 b 571 625 925 521 800 625 z m 547 82 l 265 82 l 265 542 l 547 542 b 822 318 729 542 822 469 b 547 82 822 163 726 82 z "},"Ъ":{"ha":1139,"x_min":0,"x_max":0,"o":"m 725 625 l 419 625 l 419 972 l 15 972 l 15 883 l 318 883 l 318 0 l 703 0 b 1078 319 944 0 1078 110 b 725 625 1078 521 953 625 z m 701 82 l 419 82 l 419 542 l 701 542 b 976 318 882 542 976 469 b 701 82 976 163 881 82 z "},"Ы":{"ha":1358,"x_min":0,"x_max":0,"o":"m 571 625 l 265 625 l 265 972 l 164 972 l 164 0 l 550 0 b 925 319 790 0 925 110 b 571 625 925 521 800 625 z m 1093 0 l 1194 0 l 1194 972 l 1093 972 z m 547 82 l 265 82 l 265 542 l 547 542 b 822 318 729 542 822 469 b 547 82 822 163 726 82 z "},"Љ":{"ha":1647,"x_min":0,"x_max":0,"o":"m 1232 625 l 926 625 l 926 972 l 267 972 l 253 556 b 69 86 240 228 193 86 b 24 92 54 86 42 88 l 15 0 b 93 -10 44 -7 68 -10 b 344 558 269 -10 331 169 l 356 883 l 825 883 l 825 0 l 1211 0 b 1586 319 1451 0 1586 110 b 1232 625 1586 521 1461 625 z m 1208 82 l 926 82 l 926 542 l 1208 542 b 1483 318 1390 542 1483 469 b 1208 82 1483 163 1388 82 z "},"Њ":{"ha":1644,"x_min":0,"x_max":0,"o":"m 1257 576 l 954 576 l 954 972 l 853 972 l 853 572 l 265 572 l 265 972 l 164 972 l 164 0 l 265 0 l 265 483 l 853 483 l 853 0 l 1238 0 b 1589 296 1457 0 1589 110 b 1257 576 1589 474 1467 576 z m 1232 82 l 954 82 l 954 493 l 1232 493 b 1486 292 1394 493 1486 421 b 1232 82 1486 160 1393 82 z "},"Ѕ":{"ha":871,"x_min":0,"x_max":0,"o":"m 436 -8 b 799 257 685 -8 799 114 b 200 717 799 611 200 450 b 457 893 200 814 279 893 b 724 813 543 893 640 867 l 758 894 b 457 981 681 949 567 981 b 99 714 210 981 99 857 b 697 251 99 354 697 518 b 436 79 697 156 618 79 b 115 197 308 79 185 129 l 75 118 b 436 -8 147 43 290 -8 z "},"Є":{"ha":982,"x_min":0,"x_max":0,"o":"m 569 83 b 188 435 367 83 210 231 l 688 435 l 688 519 l 186 519 b 569 889 201 733 361 889 b 868 772 686 889 788 854 l 932 838 b 565 981 846 933 715 981 b 82 486 289 981 82 771 b 565 -8 82 201 289 -8 b 932 135 715 -8 846 40 l 868 200 b 569 83 788 118 686 83 z "},"Э":{"ha":981,"x_min":0,"x_max":0,"o":"m 415 981 b 49 838 265 981 135 932 l 113 772 b 411 889 193 854 294 889 b 793 538 614 889 771 742 l 293 538 l 293 453 l 794 453 b 411 83 779 239 619 83 b 113 200 294 83 193 118 l 49 135 b 415 -8 135 39 265 -8 b 899 486 692 -8 899 201 b 415 981 899 771 692 981 z "},"І":{"ha":429,"x_min":0,"x_max":0,"o":"m 164 0 l 265 0 l 265 972 l 164 972 z "},"Ї":{"ha":419,"x_min":0,"x_max":0,"o":"m 86 1083 b 146 1143 118 1083 146 1108 b 86 1203 146 1176 118 1203 b 26 1143 53 1203 26 1176 b 86 1083 26 1108 53 1083 z m 333 1083 b 393 1143 367 1083 393 1108 b 333 1203 393 1176 367 1203 b 274 1143 301 1203 274 1176 b 333 1083 274 1108 301 1083 z m 158 0 l 261 0 l 261 972 l 158 972 z "},"Ј":{"ha":732,"x_min":0,"x_max":0,"o":"m 299 -8 b 582 299 485 -8 582 93 l 582 972 l 125 972 l 125 883 l 481 883 l 481 294 b 300 81 481 151 419 81 b 90 200 214 81 143 122 l 29 131 b 299 -8 89 42 189 -8 z "},"Ћ":{"ha":1160,"x_min":0,"x_max":0,"o":"m 753 583 b 458 518 661 583 565 563 l 458 883 l 825 883 l 825 972 l 15 972 l 15 883 l 357 883 l 357 0 l 458 0 l 458 424 b 733 492 563 469 651 492 b 985 260 889 492 985 411 l 985 0 l 1086 0 l 1086 271 b 753 583 1086 481 954 583 z "},"Ю":{"ha":1517,"x_min":0,"x_max":0,"o":"m 949 981 b 467 540 689 981 490 797 l 265 540 l 265 972 l 164 972 l 164 0 l 265 0 l 265 447 l 465 447 b 949 -8 483 182 683 -8 b 1435 486 1226 -8 1435 201 b 949 981 1435 771 1226 981 z m 949 83 b 567 486 732 83 567 253 b 949 889 567 719 732 889 b 1332 486 1167 889 1332 719 b 949 83 1332 253 1167 83 z "},"Я":{"ha":1017,"x_min":0,"x_max":0,"o":"m 475 972 b 92 628 243 972 92 849 b 313 315 92 469 171 358 l 92 0 l 201 0 l 406 297 b 461 294 424 296 442 294 l 751 294 l 751 0 l 853 0 l 853 972 z m 194 631 b 479 883 194 796 299 883 l 751 883 l 751 382 l 469 382 b 194 631 289 382 194 472 z "},"Ђ":{"ha":1146,"x_min":0,"x_max":0,"o":"m 461 525 l 461 883 l 831 883 l 831 972 l 17 972 l 17 883 l 360 883 l 360 0 l 461 0 l 461 433 b 738 499 560 476 656 499 b 986 288 883 499 986 431 b 760 82 986 143 881 82 b 667 93 729 82 697 85 l 653 7 b 769 -7 692 -1 732 -7 b 1088 290 940 -7 1088 85 b 757 586 1088 488 951 586 b 461 525 668 586 567 565 z "},"Ѣ":{"ha":1114,"x_min":0,"x_max":0,"o":"m 701 621 l 392 621 l 392 782 l 696 782 l 696 860 l 392 860 l 392 1031 l 290 1031 l 290 860 l 26 860 l 26 782 l 290 782 l 290 0 l 679 0 b 1053 317 921 0 1053 113 b 701 621 1053 515 931 621 z m 678 82 l 392 82 l 392 539 l 678 539 b 949 314 860 539 949 464 b 678 82 949 161 857 82 z "},"Ѫ":{"ha":1228,"x_min":0,"x_max":0,"o":"m 1096 226 b 736 513 1013 425 890 513 l 721 513 l 1088 906 l 1088 972 l 140 972 l 140 901 l 507 513 l 493 513 b 133 226 338 513 217 424 l 31 0 l 138 0 l 225 200 b 515 435 290 363 389 435 l 567 435 l 567 0 l 663 0 l 663 435 l 715 435 b 1003 200 838 435 938 361 l 1090 0 l 1197 0 z m 257 892 l 971 892 l 614 513 z "},"Ѳ":{"ha":1182,"x_min":0,"x_max":0,"o":"m 590 981 b 79 486 297 981 79 769 b 590 -8 79 203 297 -8 b 1101 486 883 -8 1101 201 b 590 981 1101 771 883 981 z m 590 889 b 997 528 810 889 976 739 l 183 528 b 590 889 204 739 371 889 z m 590 83 b 183 446 371 83 203 235 l 997 446 b 590 83 978 235 810 83 z "},"Ѵ":{"ha":1039,"x_min":0,"x_max":0,"o":"m 426 0 l 528 0 l 782 701 b 953 881 826 825 872 881 b 1011 872 969 881 990 878 l 1024 974 b 939 985 993 981 965 985 b 700 761 824 985 753 913 l 478 147 l 138 972 l 26 972 z "},"Ғ":{"ha":844,"x_min":0,"x_max":0,"o":"m 815 883 l 815 972 l 197 972 l 197 490 l 49 490 l 49 413 l 197 413 l 197 0 l 299 0 l 299 413 l 717 413 l 717 490 l 297 490 l 297 883 z "},"Ҕ":{"ha":974,"x_min":0,"x_max":0,"o":"m 265 474 l 265 883 l 810 883 l 810 972 l 164 972 l 164 0 l 265 0 l 265 382 b 522 468 351 440 442 468 b 800 190 678 468 800 367 b 531 -106 800 14 685 -106 b 464 -99 508 -106 486 -103 l 446 -185 b 535 -194 476 -190 506 -194 b 900 197 744 -194 900 -35 b 543 553 900 421 744 553 b 265 474 456 553 360 528 z "},"Җ":{"ha":1461,"x_min":0,"x_max":0,"o":"m 1311 89 l 1038 501 l 1346 972 l 1235 972 l 954 536 l 753 536 l 753 972 l 653 972 l 653 536 l 449 536 l 169 972 l 58 972 l 367 501 l 33 0 l 153 0 l 450 446 l 653 446 l 653 0 l 753 0 l 753 446 l 954 446 l 1251 0 l 1346 0 l 1346 -218 l 1442 -218 l 1442 89 z "},"Ҙ":{"ha":883,"x_min":0,"x_max":0,"o":"m 792 272 b 586 508 792 390 714 476 b 750 722 689 540 750 618 b 392 986 750 889 586 986 b 79 900 289 986 179 960 l 114 815 b 389 896 201 871 300 896 b 647 711 531 896 647 829 b 429 546 647 607 567 546 l 226 546 l 226 463 l 435 463 b 689 286 594 463 689 400 b 397 79 689 154 553 79 b 86 190 290 79 174 115 l 49 117 b 371 -7 142 39 258 0 l 371 -218 l 465 -218 l 465 -6 b 792 272 643 11 792 113 z "},"Қ":{"ha":1039,"x_min":0,"x_max":0,"o":"m 879 89 l 565 500 l 926 972 l 815 972 l 486 536 l 264 536 l 264 972 l 164 972 l 164 0 l 264 0 l 264 446 l 486 446 l 829 0 l 924 0 l 924 -218 l 1019 -218 l 1019 89 z "},"Ҝ":{"ha":1011,"x_min":0,"x_max":0,"o":"m 860 0 l 979 0 l 625 499 l 953 972 l 842 972 l 544 536 l 463 536 l 463 747 l 383 747 l 383 536 l 264 536 l 264 972 l 164 972 l 164 0 l 264 0 l 264 446 l 383 446 l 383 238 l 463 238 l 463 446 l 544 446 z "},"Ҟ":{"ha":1006,"x_min":0,"x_max":0,"o":"m 860 0 l 978 0 l 596 500 l 957 972 l 846 972 l 517 536 l 294 536 l 294 767 l 549 767 l 549 842 l 294 842 l 294 972 l 194 972 l 194 842 l 51 842 l 51 767 l 194 767 l 194 0 l 294 0 l 294 446 l 517 446 z "},"Ҡ":{"ha":1129,"x_min":0,"x_max":0,"o":"m 985 0 l 1101 0 l 719 500 l 1081 972 l 969 972 l 642 536 l 419 536 l 419 972 l 15 972 l 15 883 l 319 883 l 319 0 l 419 0 l 419 446 l 640 446 z "},"Ң":{"ha":1174,"x_min":0,"x_max":0,"o":"m 976 89 l 976 972 l 875 972 l 875 539 l 267 539 l 267 972 l 164 972 l 164 0 l 267 0 l 267 449 l 875 449 l 875 0 l 1036 0 l 1036 -218 l 1132 -218 l 1132 89 z "},"Ҥ":{"ha":1511,"x_min":0,"x_max":0,"o":"m 1496 972 l 875 972 l 875 539 l 267 539 l 267 972 l 164 972 l 164 0 l 267 0 l 267 449 l 875 449 l 875 0 l 979 0 l 978 883 l 1496 883 z "},"Ҧ":{"ha":1672,"x_min":0,"x_max":0,"o":"m 982 478 l 982 972 l 164 972 l 164 0 l 265 0 l 265 883 l 881 883 l 881 0 l 982 0 l 982 385 b 1236 468 1068 442 1157 468 b 1511 190 1390 468 1511 367 b 1243 -107 1511 14 1396 -107 b 1175 -99 1221 -107 1199 -104 l 1157 -185 b 1249 -194 1189 -192 1219 -194 b 1613 197 1454 -194 1613 -33 b 1254 554 1613 421 1456 554 b 982 478 1168 554 1075 529 z "},"Ԥ":{"ha":1179,"x_min":0,"x_max":0,"o":"m 982 89 l 982 972 l 164 972 l 164 0 l 265 0 l 265 883 l 881 883 l 881 0 l 1039 0 l 1039 -218 l 1135 -218 l 1135 89 z "},"Ҩ":{"ha":1350,"x_min":0,"x_max":0,"o":"m 1246 7 l 1233 85 b 1067 61 1176 68 1121 61 b 944 75 1025 61 983 65 b 1232 574 1118 176 1232 360 b 864 990 1232 821 1083 990 b 486 553 640 990 486 813 b 738 75 486 344 585 174 b 638 67 706 69 672 67 b 190 506 371 67 190 244 b 419 936 190 685 275 844 l 343 986 b 88 508 182 886 88 710 b 619 -11 88 201 306 -11 b 836 25 696 -11 769 1 b 1064 -18 906 -3 982 -18 b 1246 7 1122 -18 1183 -10 z m 589 553 b 863 897 589 761 699 897 b 1129 563 1024 897 1129 765 b 849 110 1129 351 1019 183 b 589 553 692 185 589 344 z "},"Ҫ":{"ha":994,"x_min":0,"x_max":0,"o":"m 593 83 b 182 486 358 83 182 256 b 593 889 182 717 358 889 b 881 774 704 889 801 854 l 946 839 b 590 981 860 933 732 981 b 81 486 297 981 81 771 b 522 -4 81 224 265 25 l 522 -218 l 617 -218 l 617 -8 b 946 135 749 -1 865 46 l 881 200 b 593 83 801 118 704 83 z "},"Ҭ":{"ha":817,"x_min":0,"x_max":0,"o":"m 800 883 l 800 972 l 15 972 l 15 883 l 357 883 l 357 0 l 515 0 l 515 -218 l 611 -218 l 611 89 l 458 89 l 458 883 z "},"Ү":{"ha":906,"x_min":0,"x_max":0,"o":"m 892 972 l 789 972 l 456 426 l 122 972 l 13 972 l 401 336 l 401 0 l 504 0 l 504 336 z "},"Ұ":{"ha":906,"x_min":0,"x_max":0,"o":"m 892 972 l 789 972 l 456 426 l 122 972 l 13 972 l 376 378 l 157 378 l 157 306 l 401 306 l 401 0 l 504 0 l 504 306 l 743 306 l 743 378 l 529 378 z "},"Ҳ":{"ha":958,"x_min":0,"x_max":0,"o":"m 810 89 l 514 506 l 846 972 l 725 972 l 450 588 l 174 972 l 56 972 l 388 501 l 31 0 l 149 0 l 450 418 l 751 0 l 846 0 l 846 -218 l 942 -218 l 942 89 z "},"Ҵ":{"ha":1343,"x_min":0,"x_max":0,"o":"m 1149 88 l 1149 971 l 1047 971 l 1047 88 l 460 88 l 460 883 l 771 883 l 771 972 l 17 972 l 17 883 l 358 883 l 358 -1 l 1207 -1 l 1207 -229 l 1303 -229 l 1303 88 z "},"Ҷ":{"ha":1049,"x_min":0,"x_max":0,"o":"m 850 89 l 850 972 l 750 972 l 750 494 b 453 425 650 449 547 425 b 183 663 283 425 183 511 l 183 972 l 82 972 l 82 651 b 443 335 82 451 215 335 b 750 403 538 335 643 357 l 750 0 l 908 0 l 908 -218 l 1004 -218 l 1004 89 z "},"Ҹ":{"ha":1015,"x_min":0,"x_max":0,"o":"m 749 972 l 749 494 b 497 426 665 456 579 433 l 497 636 l 419 636 l 419 426 b 182 663 269 436 182 521 l 182 972 l 81 972 l 81 651 b 419 335 81 458 206 343 l 419 128 l 497 128 l 497 338 b 749 403 576 344 663 365 l 749 0 l 849 0 l 849 972 z "},"Һ":{"ha":1015,"x_min":0,"x_max":0,"o":"m 571 638 b 265 569 476 638 372 615 l 265 972 l 164 972 l 164 0 l 265 0 l 265 478 b 561 547 365 524 468 547 b 832 310 732 547 832 461 l 832 0 l 933 0 l 933 321 b 571 638 933 522 800 638 z "},"Ԧ":{"ha":1108,"x_min":0,"x_max":0,"o":"m 933 89 l 933 321 b 571 638 933 522 800 638 b 265 569 476 638 372 615 l 265 972 l 164 972 l 164 0 l 265 0 l 265 478 b 561 547 365 524 468 547 b 832 310 732 547 832 461 l 832 0 l 990 0 l 990 -218 l 1086 -218 l 1086 89 z "},"Ҽ":{"ha":1353,"x_min":0,"x_max":0,"o":"m 1293 489 b 803 981 1293 783 1072 981 b 310 521 544 981 328 799 l 285 521 b 144 651 192 521 144 579 b 183 769 144 689 157 731 l 89 790 b 47 640 61 740 47 689 b 272 433 47 526 125 433 l 311 433 b 808 -8 335 157 560 -8 b 1194 138 940 -8 1078 38 l 1119 204 b 810 83 1024 122 914 83 b 414 433 613 83 438 218 l 1289 433 b 1293 489 1290 450 1293 472 z m 803 890 b 1188 521 1008 890 1174 740 l 413 521 b 803 890 429 740 597 890 z "},"Ҿ":{"ha":1353,"x_min":0,"x_max":0,"o":"m 1293 489 b 803 981 1293 783 1072 981 b 310 521 544 981 328 799 l 285 521 b 144 651 192 521 144 579 b 183 769 144 689 157 731 l 89 790 b 47 640 61 740 47 689 b 272 433 47 526 125 433 l 311 433 b 763 -7 333 174 532 13 l 763 -218 l 857 -218 l 857 -7 b 1194 138 974 4 1092 50 l 1119 204 b 810 83 1024 122 914 83 b 414 433 613 83 438 218 l 1289 433 b 1293 489 1290 450 1293 472 z m 803 890 b 1188 521 1008 890 1174 740 l 413 521 b 803 890 429 740 597 890 z "},"Ӏ":{"ha":431,"x_min":0,"x_max":0,"o":"m 164 0 l 267 0 l 267 972 l 164 972 z "},"Ӂ":{"ha":1404,"x_min":0,"x_max":0,"o":"m 704 1043 b 931 1222 842 1043 928 1110 l 854 1222 b 704 1103 851 1147 792 1103 b 554 1222 615 1103 556 1147 l 478 1222 b 704 1043 479 1110 565 1043 z m 1251 0 l 1371 0 l 1038 501 l 1346 972 l 1235 972 l 954 536 l 753 536 l 753 972 l 653 972 l 653 536 l 449 536 l 169 972 l 58 972 l 367 501 l 33 0 l 153 0 l 450 446 l 653 446 l 653 0 l 753 0 l 753 446 l 954 446 z "},"Ӄ":{"ha":975,"x_min":0,"x_max":0,"o":"m 567 499 l 925 972 l 814 972 l 488 536 l 264 536 l 264 972 l 164 972 l 164 0 l 264 0 l 264 446 l 485 446 b 825 -58 681 275 825 71 b 704 -189 825 -142 778 -189 b 597 -158 671 -189 635 -178 l 568 -237 b 724 -278 618 -264 671 -278 b 935 -61 851 -278 935 -196 b 567 499 935 90 790 294 z "},"Ӈ":{"ha":1133,"x_min":0,"x_max":0,"o":"m 600 -229 b 757 -278 647 -261 703 -278 b 969 -72 868 -278 969 -210 l 969 972 l 868 972 l 868 533 l 265 533 l 265 972 l 164 972 l 164 0 l 265 0 l 265 443 l 868 443 l 868 -67 b 744 -192 868 -150 811 -192 b 633 -154 707 -192 668 -179 z "},"Ӊ":{"ha":1174,"x_min":0,"x_max":0,"o":"m 976 89 l 976 972 l 875 972 l 875 539 l 267 539 l 267 972 l 164 972 l 164 0 l 267 0 l 267 449 l 875 449 l 875 0 l 999 0 l 942 -218 l 1024 -218 l 1117 89 z "},"Ӌ":{"ha":1011,"x_min":0,"x_max":0,"o":"m 746 972 l 746 513 b 450 443 646 468 544 443 b 181 674 281 443 181 528 l 181 972 l 81 972 l 81 663 b 442 353 81 467 213 353 b 746 421 536 353 642 376 l 746 89 l 579 89 l 579 -218 l 675 -218 l 675 0 l 847 0 l 847 972 z "},"Ӎ":{"ha":1378,"x_min":0,"x_max":0,"o":"m 1174 89 l 1174 972 l 1089 972 l 671 251 l 249 972 l 164 972 l 164 0 l 263 0 l 263 774 l 644 124 l 693 124 l 1075 778 l 1075 0 l 1203 0 l 1146 -218 l 1228 -218 l 1321 89 z "},"Ӑ":{"ha":1033,"x_min":0,"x_max":0,"o":"m 517 1043 b 743 1222 654 1043 740 1110 l 667 1222 b 517 1103 664 1147 604 1103 b 367 1222 428 1103 368 1147 l 290 1222 b 517 1043 292 1110 378 1043 z m 903 0 l 1011 0 l 567 972 l 465 972 l 21 0 l 128 0 l 244 260 l 786 260 z m 282 343 l 515 865 l 749 343 z "},"Ӓ":{"ha":1033,"x_min":0,"x_max":0,"o":"m 393 1083 b 453 1143 425 1083 453 1108 b 393 1203 453 1176 425 1203 b 333 1143 360 1203 333 1176 b 393 1083 333 1108 360 1083 z m 640 1083 b 700 1143 674 1083 700 1108 b 640 1203 700 1176 674 1203 b 581 1143 608 1203 581 1176 b 640 1083 581 1108 608 1083 z m 903 0 l 1011 0 l 567 972 l 465 972 l 21 0 l 128 0 l 244 260 l 786 260 z m 282 343 l 515 865 l 749 343 z "},"Ӕ":{"ha":1425,"x_min":0,"x_max":0,"o":"m 776 89 l 776 450 l 1281 450 l 1281 538 l 776 538 l 776 883 l 1340 883 l 1340 972 l 606 972 l 13 0 l 119 0 l 276 260 l 675 260 l 675 0 l 1361 0 l 1361 89 z m 326 343 l 654 883 l 675 883 l 675 343 z "},"Ӗ":{"ha":915,"x_min":0,"x_max":0,"o":"m 499 1043 b 725 1222 636 1043 722 1110 l 649 1222 b 499 1103 646 1147 586 1103 b 349 1222 410 1103 350 1147 l 272 1222 b 499 1043 274 1110 360 1043 z m 267 89 l 267 450 l 769 450 l 769 538 l 267 538 l 267 883 l 831 883 l 831 972 l 164 972 l 164 0 l 851 0 l 851 89 z "},"Ә":{"ha":1144,"x_min":0,"x_max":0,"o":"m 554 981 b 161 835 419 981 279 935 l 235 768 b 551 889 333 851 444 889 b 958 533 756 889 936 753 l 64 533 b 60 483 61 517 60 500 b 558 -8 60 189 283 -8 b 1064 489 833 -8 1064 190 b 554 981 1064 796 822 981 z m 558 82 b 164 457 346 82 176 235 l 960 457 b 558 82 946 235 771 82 z "},"Ӛ":{"ha":1144,"x_min":0,"x_max":0,"o":"m 450 1083 b 510 1143 482 1083 510 1108 b 450 1203 510 1176 482 1203 b 390 1143 417 1203 390 1176 b 450 1083 390 1108 417 1083 z m 697 1083 b 757 1143 731 1083 757 1108 b 697 1203 757 1176 731 1203 b 638 1143 665 1203 638 1176 b 697 1083 638 1108 665 1083 z m 554 981 b 161 835 419 981 279 935 l 235 768 b 551 889 333 851 444 889 b 958 533 756 889 936 753 l 64 533 b 60 483 61 517 60 500 b 558 -8 60 189 283 -8 b 1064 489 833 -8 1064 190 b 554 981 1064 796 822 981 z m 558 82 b 164 457 346 82 176 235 l 960 457 b 558 82 946 235 771 82 z "}}}
